<svg width="143" height="97" viewBox="0 0 143 97" fill="none" xmlns="http://www.w3.org/2000/svg">
<g filter="url(#filter0_d_41_10158)">
<path d="M15.4536 78.0008L127.477 78.0008L124.091 63.5249H124.079L112.553 44.9664H108.445L102.856 39.9876L98.9356 32.8804L96.2222 37.8716L95.3011 39.5893L89.7995 41.4688L87.5591 44.5557L87.5466 44.5806L80.5639 54.227L80.3523 54.115L73.3695 50.3311L63.2128 42.95L62.7149 41.9916L58.7318 34.2745L58.5202 33.8637L58.3584 33.5401L53.417 26.2959L45.9488 11.123L40.0738 22.2631L36.9994 24.5534L33.3648 30.0549L30.0042 33.9508L28.996 38.7678L27.1165 47.6425L27.0791 47.6923L25.4983 49.771L22.8222 53.281L18.9014 62.0188L15.4536 78.0008Z" fill="#626262"/>
<path d="M15.4536 77.9885L127.477 77.9885L124.091 63.525L116.623 56.5049L113.735 57.0526L111.246 53.0198H106.491L102.757 47.5058L102.197 50.1943L99.1224 42.9502L95.3011 39.5895L99.0352 47.6427L94.3676 44.5558L93.4341 45.5018L87.5591 44.5558L80.3647 54.0902L76.8422 60.239L72.5356 57.0526L74.2657 65.641L73.1952 66.3132L70.1084 60.6747L69.3616 61.9194L62.3664 54.1276L57.7734 41.8673L57.7734 44.5558L52.0851 32.6067L46.4218 27.3043L42.3142 22.4624L36.9994 24.6157L33.3648 30.1173L30.0042 34.0132L27.1165 47.7049L22.8222 53.2812L18.9014 61.9941L15.5656 77.4532L15.4536 77.9885Z" fill="#6F6F6F"/>
<path d="M113.114 62.4172L107.425 54.2271H110.786L113.114 62.4172Z" fill="#626262"/>
<path d="M96.2218 51.8122L92.8735 47.9162L94.5539 46.4351L96.2218 51.8122Z" fill="#626262"/>
<path d="M51.3623 54.2272L45.0268 47.9165L46.4208 46.4354L41.106 39.7264L42.0395 32.7437L44.9272 39.4526L46.2341 37.9714L51.3623 54.2272Z" fill="#626262"/>
<path d="M62.7519 77.9879L59.1049 70.7437L57.1507 74.3658L50.7156 64.4082C50.4994 66.6871 50.1545 68.9519 49.6825 71.1918C49.3091 71.9262 44.8406 72.3245 43.347 71.1918C41.8534 70.0591 39.6129 73.2705 39.6129 73.2705L38.4927 77.963L62.7519 77.9879Z" fill="#545454"/>
<path d="M85.9788 49.9316C85.9788 49.9316 83.8255 61.3455 84.0122 64.4324C80.2781 66.5733 74.4031 73.2947 73.0962 75.9708C77.5771 66.648 81.3237 53.4417 85.9788 49.9316Z" fill="#545454"/>
<path d="M69.7333 52.7457L67.9658 53.4178L65.6382 50.7293L64.9785 46.4351L69.7333 52.7457Z" fill="#BABABA"/>
<path d="M35.3699 57.5884C35.3699 57.5884 33.7892 68.4546 33.3162 71.2801C32.3827 71.0685 30.6152 72.8235 29.1215 76.0348C28.5614 75.7734 29.1215 71.2801 29.1215 71.2801L24.6406 74.4292C24.6406 74.4292 32.5196 59.5923 35.3699 57.5884Z" fill="#545454"/>
<path d="M45.201 56.6425L50.715 64.4343L57.1501 74.367L59.1043 70.745L49.7815 57.5885L42.5996 49.1245L41.106 50.195L45.201 56.6425Z" fill="#626262"/>
<path d="M42.6016 49.1245L48.2898 54.2278L49.7835 57.5885L46.1863 54.2278L44.0952 53.3565L42.6016 49.1245Z" fill="white"/>
<path d="M45.2023 56.6416L39.8003 46.4351L35.3691 51.5383C35.3691 51.5383 38.9165 48.6506 39.4766 51.8122C40.2608 48.3892 45.2023 56.6416 45.2023 56.6416Z" fill="white"/>
<path d="M15.5664 77.453L23.8188 66.6241L31.4363 56.6665L35.3696 51.5383L39.8505 46.4351L41.1077 39.751L42.0412 32.7683L42.315 22.4248L37.0001 24.5781L33.3656 30.0797L30.0049 33.9756L27.1172 47.6673L22.823 53.2809L18.9022 61.9938L15.5664 77.453Z" fill="#545454"/>
<path d="M96.2227 37.8726L98.6498 36.7648L99.77 40.3993L101.637 39.5903L104.151 44.5566V45.764L105.371 49.1247L107.052 46.4361L110.039 49.1247L110.686 46.4361H112.093L112.553 44.9674H108.446L102.857 39.9886L98.9361 32.8813L96.2227 37.8726Z" fill="white"/>
<path d="M87.5596 47.9159L89.327 46.0364L89.8 52.484L92.1276 45.2896L95.3016 42.3521H96.5712L95.3016 39.5889L89.8 41.4684L87.5596 44.5552V47.9159Z" fill="white"/>
<path d="M28.9976 38.7678L29.956 40.3984L31.6861 36.5025L32.5201 35.1582V42.0041L35.7936 34.2122L36.7271 38.9172L35.3206 46.9704L38.4946 39.8632L37.8349 34.623L38.9676 30.7893L37.8349 27.3664L39.8016 26.6942L42.2785 23.6323L44.2825 29.6566L45.216 27.6402L51.3648 39.0541L50.618 34.2122L52.1988 37.8468L53.2319 36.9008L55.0989 41.0705L53.2319 30.7893L58.5218 33.8637L58.36 33.5401L53.4186 26.2959L45.9504 11.123L40.0754 22.2631L37.001 24.5534L33.3665 30.0549L30.0058 33.9508L28.9976 38.7678Z" fill="white"/>
<path d="M53.6912 42.8125C53.6912 42.8125 56.9648 49.26 57.2386 49.1231C56.8477 49.5069 56.4319 49.8645 55.9939 50.1936L58.5953 55.7076L52.795 51.5379L52.3345 48.1772L53.5792 45.8994L53.6912 42.8125Z" fill="white"/>
<path d="M47.3564 33.5518L49.7836 38.1074L50.6176 41.468L52.2979 45.0901L48.4767 41.7419L48.5638 38.2443L47.3564 33.5518Z" fill="white"/>
<path d="M27.5772 50.1941L29.4442 49.2605L29.3571 53.3556L31.1246 49.1236L32.8921 46.4351L29.9546 47.7793H27.3905L27.0793 47.6922L25.4985 49.7709L27.5772 50.1941Z" fill="white"/>
<path d="M23.8188 66.65L31.4364 56.6426L27.0177 58.3229L24.0304 65.1065L23.8188 66.65Z" fill="white"/>
<path d="M57.6104 35.6924L58.519 39.3269H60.1371L63.2986 44.5547L62.7136 41.9906L58.7306 34.2734L57.6104 35.6924Z" fill="white"/>
<path d="M76.8305 60.2641L69.7357 77.9886L69.3623 61.8822L70.1091 60.6748L73.196 66.3133L74.0175 64.4338L72.5363 57.0527L76.8305 60.2641Z" fill="#545454"/>
<path d="M127.476 78.0011L116.635 63.1021L122.049 73.2588L115.452 68.4792L118.103 78.0011H127.476Z" fill="#545454"/>
</g>
<path d="M40.2819 71.8624C39.2416 72.2454 38.2714 72.4369 37.3713 72.4369C36.3543 72.4369 35.5302 72.17 34.899 71.6361C34.2678 71.1022 33.9521 70.2492 33.9521 69.0771V63.4889C33.9521 62.6069 34.0749 61.9396 34.3204 61.487C34.5775 61.0343 34.9633 60.6514 35.4776 60.338C35.9919 60.0479 36.6232 59.9028 37.3713 59.9028C38.2831 59.9028 39.1072 60.0943 39.8436 60.4773L39.3 62.2181C38.7623 62.0208 38.172 61.9222 37.5291 61.9222C37.0381 61.9222 36.6407 62.0556 36.3368 62.3226C36.0329 62.5895 35.8809 62.9261 35.8809 63.3323V69.0422C35.8809 70.0171 36.4303 70.5046 37.5291 70.5046C37.8798 70.5046 38.2305 70.4697 38.5811 70.4001C38.9318 70.3189 39.3994 70.2028 39.9839 70.0519L40.2819 71.8624Z" fill="white"/>
<path d="M48.798 69.0422C48.798 70.2144 48.4356 71.079 47.7109 71.6361C46.9978 72.1816 46.1387 72.4543 45.1334 72.4543C44.5022 72.4543 43.906 72.3441 43.3449 72.1235C42.7838 71.8914 42.3221 71.52 41.9597 71.0094C41.609 70.4988 41.4337 69.843 41.4337 69.0422V63.4367C41.4337 62.2413 41.761 61.3361 42.4156 60.721C43.0819 60.1059 43.9937 59.7983 45.1509 59.7983C46.3082 59.7983 47.2024 60.1233 47.8336 60.7732C48.4765 61.4231 48.798 62.3168 48.798 63.4541V69.0422ZM46.8693 64.0808C46.8693 63.5934 46.8283 63.193 46.7465 62.8796C46.6647 62.5663 46.4952 62.3226 46.238 62.1485C45.9809 61.9628 45.6068 61.8699 45.1158 61.8699C44.6249 61.8699 44.2508 61.957 43.9937 62.1311C43.7365 62.3052 43.567 62.5489 43.4852 62.8622C43.4034 63.164 43.3624 63.5644 43.3624 64.0634V68.7115C43.3624 69.2686 43.5027 69.7096 43.7833 70.0345C44.0755 70.3479 44.5197 70.5046 45.1158 70.5046C45.6652 70.5046 46.0919 70.3363 46.3958 69.9997C46.7114 69.6631 46.8693 69.2221 46.8693 68.6767V64.0808Z" fill="white"/>
<path d="M58.7894 65.8217L56.7379 72.2628H55.265L53.2486 65.8391V72.2628H51.3199V60.0769H53.2486L56.0015 68.137L58.7894 60.0769H60.7181V72.2628H58.7894V65.8217Z" fill="white"/>
<path d="M70.9639 65.8217L68.9124 72.2628H67.4395L65.4231 65.8391V72.2628H63.4944V60.0769H65.4231L68.176 68.137L70.9639 60.0769H72.8926V72.2628H70.9639V65.8217Z" fill="white"/>
<path d="M75.6689 60.0769H81.5253V61.9918H77.5976V65.0731H79.9998L79.4562 66.901H77.5976V70.522H81.4902V72.2628H75.6689V60.0769Z" fill="white"/>
<path d="M85.7482 64.0286V72.2628H83.8195V60.0769H85.7482L90.5 68.2589V60.0769H92.4462V72.2628H90.5L85.7482 64.0286Z" fill="white"/>
<path d="M96.3807 62.0092H93.8558V60.0769H100.904V62.0092H98.3094V72.2628H96.3807V62.0092Z" fill="white"/>
<path d="M103.628 68.8682C103.687 69.3788 103.897 69.7908 104.26 70.1042C104.622 70.4175 105.095 70.5742 105.68 70.5742C106.171 70.5742 106.568 70.4929 106.872 70.3305C107.188 70.168 107.416 69.9707 107.556 69.7386C107.696 69.5065 107.766 69.2802 107.766 69.0597C107.766 68.549 107.638 68.1254 107.381 67.7888C107.135 67.4407 106.825 67.1679 106.451 66.9706C106.089 66.7617 105.592 66.5238 104.961 66.2569C104.271 65.9667 103.722 65.7056 103.313 65.4735C102.915 65.2298 102.57 64.9048 102.278 64.4986C101.998 64.0808 101.857 63.5528 101.857 62.9145C101.857 62.4038 102.003 61.9222 102.296 61.4696C102.588 61.0053 103.032 60.6281 103.628 60.338C104.224 60.0479 104.955 59.9028 105.82 59.9028C106.393 59.9028 106.866 59.9434 107.24 60.0247C107.614 60.1059 107.994 60.2394 108.38 60.425L107.766 62.2355C107.345 62.0963 107.001 61.9976 106.732 61.9396C106.475 61.8816 106.177 61.8525 105.838 61.8525C105.171 61.8525 104.68 61.9686 104.365 62.2007C104.049 62.4328 103.909 62.7288 103.944 63.0885C103.979 63.3787 104.154 63.6282 104.47 63.8371C104.797 64.046 105.3 64.3013 105.978 64.6031C106.773 64.9512 107.433 65.282 107.959 65.5954C108.485 65.9087 108.935 66.3381 109.309 66.8836C109.695 67.4291 109.888 68.0964 109.888 68.8856C109.888 69.9185 109.543 70.7715 108.853 71.4446C108.164 72.1177 107.112 72.4543 105.697 72.4543C104.832 72.4543 104.09 72.2976 103.47 71.9843C102.863 71.6593 102.395 71.2473 102.068 70.7483C101.752 70.2376 101.583 69.7096 101.559 69.1641L103.628 68.8682Z" fill="white"/>
<defs>
<filter id="filter0_d_41_10158" x="0.453613" y="0.123047" width="142.023" height="96.8779" filterUnits="userSpaceOnUse" color-interpolation-filters="sRGB">
<feFlood flood-opacity="0" result="BackgroundImageFix"/>
<feColorMatrix in="SourceAlpha" type="matrix" values="0 0 0 0 0 0 0 0 0 0 0 0 0 0 0 0 0 0 127 0" result="hardAlpha"/>
<feOffset dy="4"/>
<feGaussianBlur stdDeviation="7.5"/>
<feComposite in2="hardAlpha" operator="out"/>
<feColorMatrix type="matrix" values="0 0 0 0 0 0 0 0 0 0 0 0 0 0 0 0 0 0 0.45 0"/>
<feBlend mode="normal" in2="BackgroundImageFix" result="effect1_dropShadow_41_10158"/>
<feBlend mode="normal" in="SourceGraphic" in2="effect1_dropShadow_41_10158" result="shape"/>
</filter>
</defs>
</svg>
