<svg width="59" height="66" viewBox="0 0 59 66" fill="none" xmlns="http://www.w3.org/2000/svg">
<path d="M27.2278 22.9017L22.7197 28.1584C23.331 28.3638 23.987 28.3947 24.6144 28.2478C25.2417 28.1008 25.8157 27.7818 26.2721 27.3263C27.2706 26.2355 28.7969 24.1352 27.2278 22.9017Z" fill="#FDB73D"/>
<path d="M12.4182 13.7431L9.7678 20.141C9.30954 19.6859 8.98667 19.112 8.83543 18.4836C8.68419 17.8552 8.71056 17.1973 8.91159 16.5836C9.4345 15.1937 10.6145 12.8868 12.4182 13.7431Z" fill="#FDB73D"/>
<path d="M27.228 22.9011L22.7199 28.1578C22.1473 28.8052 21.5765 29.4596 21.0057 30.1139C18.769 32.7875 15.9392 34.8989 12.742 36.2796C11.2459 36.9307 9.66866 37.376 8.053 37.6034L7.97643 37.6239C7.41747 36.0186 7.09356 34.3408 7.01482 32.6429V32.6429C6.81796 29.1856 7.42478 25.7309 8.78743 22.5512C9.13635 21.7093 9.47831 20.8693 9.81249 20.0838L12.4163 13.8181C14.3447 9.32002 16.2079 5.69253 18.4024 3.80235C21.7203 0.870221 27.8709 4.02678 28.3763 4.32544L28.4311 4.36313L28.5144 4.42315C29.4387 5.08849 34.3943 8.99186 33.391 13.0999C32.7125 15.8861 30.3466 19.1693 27.228 22.9011Z" fill="#0051A6"/>
<path d="M24.5644 20.8674C22.858 22.8499 21.3373 24.9859 20.0218 27.2484C17.8965 30.4908 15.4581 33.5154 12.742 36.2787C11.222 36.9424 9.61677 37.3902 7.97271 37.609V37.609C7.41375 36.0037 7.08984 34.3259 7.0111 32.628V32.628C7.58282 31.0305 8.88489 27.5084 9.78979 25.5671C10.933 22.9558 14.8897 16.1705 14.913 16.2016L21.3877 15.3049L24.5644 20.8674Z" fill="#8D2C25"/>
<path d="M9.58855 18.7248L9.52715 18.6868C9.38811 18.6009 9.20608 18.6442 9.12059 18.7834L7.9124 20.7517C7.8269 20.891 7.87031 21.0736 8.00935 21.1595L8.07076 21.1974C8.2098 21.2834 8.39182 21.2401 8.47732 21.1008L9.68551 19.1326C9.771 18.9933 9.72759 18.8107 9.58855 18.7248Z" fill="#0151A6"/>
<path d="M24.05 27.6662L23.9886 27.6282C23.8495 27.5423 23.6675 27.5856 23.582 27.7248L22.3738 29.6931C22.2883 29.8324 22.3317 30.015 22.4708 30.1009L22.5322 30.1388C22.6712 30.2248 22.8532 30.1815 22.9387 30.0423L24.1469 28.074C24.2324 27.9347 24.189 27.7521 24.05 27.6662Z" fill="#0151A6"/>
<path d="M33.5105 11.3456C32.1432 9.55666 29.4445 7.61554 25.1857 9.54248C24.9918 4.86467 22.0532 3.30961 19.8319 2.87203C19.2822 3.06859 18.7721 3.36241 18.326 3.73956C19.3484 3.74252 20.3374 4.10858 21.1172 4.77279C23.7316 6.7889 24.4576 10.6955 24.4613 10.7095C24.4613 10.7095 28.2852 9.61003 31.2653 11.0417C32.2063 11.4425 32.976 12.1642 33.4377 13.0789C33.5687 12.5108 33.5934 11.9231 33.5105 11.3456V11.3456Z" fill="#0C8B4F"/>
<path d="M30.6392 6.25672C29.5578 5.84901 28.3723 5.81382 27.2699 6.1567C27.0798 5.01431 26.5157 3.96735 25.6667 3.18111V3.18111C24.697 2.85878 23.6926 2.65308 22.6748 2.56836C26.6115 4.50707 26.3617 7.61243 26.3585 7.62826C26.3585 7.62826 29.0419 6.00369 32.5156 8.66514C31.9849 7.79252 31.3552 6.98433 30.6392 6.25672V6.25672Z" fill="#0C8B4F"/>
<path d="M28.013 4.94605C28.4224 4.87086 28.8426 4.8778 29.2496 4.96646C28.7882 4.58118 28.4571 4.34808 28.4111 4.31551C28.3581 4.28481 28.0104 4.10107 27.4443 3.82617C27.7092 4.15089 27.9061 4.52576 28.0232 4.92835L28.013 4.94605Z" fill="#0C8B4F"/>
<path d="M32.5227 8.66358C29.042 6.00399 26.3725 7.62483 26.3585 7.62856C26.3446 7.63229 26.6097 4.50038 22.6749 2.56866C21.7161 2.47396 20.7484 2.57786 19.8319 2.87391C22.0495 3.29753 24.988 4.85259 25.1819 9.5304C29.4407 7.60346 32.1395 9.54457 33.5067 11.3336C33.3659 10.3853 33.0308 9.47624 32.5227 8.66358Z" fill="#0051A6"/>
<path d="M30.6395 6.25529C30.1992 5.80127 29.7353 5.371 29.2495 4.96631V4.96631C28.8426 4.87766 28.4223 4.87072 28.013 4.9459C27.8965 4.53809 27.6983 4.15829 27.4304 3.82976V3.82976C26.8545 3.58177 26.2659 3.36477 25.667 3.17969C26.516 3.96593 27.08 5.01289 27.2701 6.15528V6.15528C28.3725 5.8124 29.558 5.84759 30.6395 6.25529V6.25529Z" fill="#0051A6"/>
<path d="M21.4102 15.7261L15.4801 22.5538C15.7255 23.0477 16.032 23.5086 16.3924 23.9258C16.8682 24.0519 17.3603 24.1043 17.8516 24.0811L21.4102 15.7261Z" fill="#401F23"/>
<path d="M15.4728 22.5261C15.4219 22.6932 15.4045 22.8688 15.4216 23.0428C15.4388 23.2167 15.4901 23.3856 15.5728 23.5396C15.6715 23.6555 15.7925 23.7501 15.9287 23.8178C16.0648 23.8855 16.2131 23.9249 16.3647 23.9336L15.4728 22.5261Z" fill="#FDB73D"/>
<path d="M16.3853 23.8984L17.8445 24.0538C17.8445 24.0538 17.4847 24.5767 17.0476 24.4768C16.9042 24.4298 16.7717 24.3544 16.6579 24.255C16.5441 24.1556 16.4514 24.0344 16.3853 23.8984V23.8984Z" fill="#FDB73D"/>
<path d="M10.1202 25.4651C10.1202 25.4651 11.6079 25.4481 14.514 27.2439C17.42 29.0397 17.6771 30.1383 17.6771 30.1383C17.6771 30.1383 15.7907 31.4519 12.9347 29.8149C12.1324 29.3933 11.4518 28.7714 10.9588 28.0094C10.4657 27.2474 10.1769 26.371 10.1202 25.4651V25.4651Z" fill="#401F23"/>
<path d="M9.87113 25.3146C9.87113 25.3146 15.8748 23.5787 17.9156 30.2762L9.87113 25.3146Z" fill="#FDB73D"/>
<path d="M9.87104 25.3145C9.53941 26.3662 9.56786 27.4993 9.9519 28.534C10.3359 29.5687 11.0535 30.4456 11.9907 31.0255C14.8791 32.811 17.9085 30.278 17.9085 30.278L17.677 30.138C17.677 30.138 15.7718 31.0751 13.1166 29.5189C12.3554 29.0993 11.6935 28.5198 11.1763 27.82C10.6592 27.1202 10.2989 26.3168 10.1202 25.4648L9.87104 25.3145Z" fill="#FDB73D"/>
<path d="M12.7418 36.2785C11.2218 36.9422 9.61659 37.3899 7.97253 37.6088V37.6088C7.41357 36.0034 7.08966 34.3256 7.01092 32.6278C8.02436 32.2889 9.80667 31.9236 11.0228 32.6754C12.239 33.4272 12.5185 35.111 12.7418 36.2785Z" fill="#D24C38"/>
<path d="M7.87519 33.4606L8.60282 36.566L11.5683 35.7714C11.5683 35.7714 11.5097 34.0209 10.5427 33.4194C9.5757 32.8179 7.87519 33.4606 7.87519 33.4606Z" fill="#0151A6"/>
<path d="M12.7266 15.2531C12.7582 15.1968 12.8058 15.1513 12.8634 15.1224C12.9209 15.0934 12.9858 15.0823 13.0497 15.0905C13.1136 15.0986 13.1737 15.1257 13.2223 15.1682C13.2709 15.2107 13.3058 15.2667 13.3225 15.3292C13.3392 15.3916 13.337 15.4575 13.3162 15.5186C13.2954 15.5797 13.2569 15.6332 13.2056 15.6723C13.1543 15.7113 13.0926 15.7341 13.0283 15.7378C12.9639 15.7415 12.9 15.7259 12.8445 15.693C12.8075 15.6722 12.7751 15.6442 12.7491 15.6107C12.7231 15.5772 12.7041 15.5388 12.6931 15.4978C12.6821 15.4568 12.6794 15.414 12.6852 15.372C12.6909 15.33 12.705 15.2895 12.7266 15.2531V15.2531Z" fill="#0151A6"/>
<path d="M13.5291 16.939C13.4931 16.8877 13.4731 16.8268 13.4715 16.7641C13.4698 16.7014 13.4868 16.6397 13.5201 16.5867C13.5534 16.5336 13.6016 16.4917 13.6586 16.4661C13.7157 16.4405 13.779 16.4324 13.8407 16.4428C13.9024 16.4532 13.9597 16.4817 14.0053 16.5247C14.051 16.5676 14.083 16.6231 14.0973 16.6842C14.1116 16.7452 14.1076 16.8091 14.0857 16.8679C14.0639 16.9266 14.0252 16.9775 13.9746 17.0142C13.9405 17.0389 13.902 17.0565 13.8611 17.0661C13.8202 17.0757 13.7777 17.077 13.7363 17.07C13.6949 17.063 13.6552 17.0478 13.6196 17.0253C13.5841 17.0028 13.5533 16.9735 13.5291 16.939Z" fill="#0151A6"/>
<path d="M14.4277 18.1206C14.3799 18.05 14.3617 17.9634 14.3769 17.8796C14.3921 17.7957 14.4395 17.7212 14.509 17.6722C14.5431 17.6475 14.5816 17.6299 14.6225 17.6203C14.6634 17.6108 14.7058 17.6094 14.7473 17.6164C14.7887 17.6234 14.8284 17.6386 14.864 17.6611C14.8995 17.6836 14.9303 17.7129 14.9545 17.7474C15.0047 17.8173 15.0253 17.9043 15.0118 17.9893C14.9982 18.0743 14.9515 18.1504 14.882 18.2009C14.8108 18.2492 14.7235 18.2678 14.6388 18.2528C14.554 18.2379 14.4783 18.1904 14.4277 18.1206V18.1206Z" fill="#0151A6"/>
<path d="M15.5272 18.9929C15.5025 18.9587 15.4849 18.92 15.4753 18.879C15.4657 18.8379 15.4643 18.7954 15.4712 18.7539C15.4781 18.7123 15.4932 18.6726 15.5156 18.637C15.5379 18.6013 15.5672 18.5705 15.6015 18.5464C15.6355 18.5217 15.6741 18.5041 15.715 18.4945C15.7559 18.4849 15.7983 18.4836 15.8398 18.4906C15.8812 18.4976 15.9209 18.5128 15.9564 18.5353C15.992 18.5578 16.0228 18.5871 16.047 18.6216C16.0972 18.6915 16.1178 18.7785 16.1042 18.8635C16.0907 18.9485 16.044 19.0246 15.9745 19.0751C15.94 19.0997 15.9009 19.1171 15.8595 19.1263C15.8181 19.1355 15.7754 19.1363 15.7337 19.1286C15.692 19.121 15.6522 19.105 15.6167 19.0817C15.5813 19.0584 15.5508 19.0282 15.5272 18.9929V18.9929Z" fill="#0151A6"/>
<path d="M17.1244 19.0517C17.0998 19.0176 17.0821 18.9789 17.0725 18.9378C17.0629 18.8968 17.0615 18.8543 17.0684 18.8128C17.0754 18.7712 17.0904 18.7315 17.1128 18.6959C17.1352 18.6602 17.1644 18.6294 17.1988 18.6052C17.2684 18.5549 17.3551 18.5344 17.4399 18.5482C17.5248 18.5619 17.6007 18.6088 17.6512 18.6786C17.6995 18.7501 17.7182 18.8376 17.7033 18.9225C17.6885 19.0075 17.6413 19.0833 17.5717 19.1339C17.5014 19.1817 17.4151 19.1999 17.3314 19.1845C17.2478 19.1692 17.1734 19.1215 17.1244 19.0517V19.0517Z" fill="#0151A6"/>
<path d="M25.5895 23.1901C25.6191 23.1543 25.6407 23.1126 25.6529 23.0678C25.6651 23.0229 25.6675 22.976 25.66 22.9301C25.6526 22.8842 25.6354 22.8404 25.6096 22.8017C25.5838 22.763 25.5501 22.7302 25.5107 22.7057C25.4713 22.6812 25.4271 22.6654 25.3811 22.6594C25.3351 22.6534 25.2883 22.6574 25.244 22.6711C25.1997 22.6847 25.1589 22.7078 25.1242 22.7387C25.0896 22.7695 25.062 22.8075 25.0432 22.85C25.0216 22.8864 25.0075 22.9269 25.0018 22.9689C24.996 23.0109 24.9987 23.0537 25.0097 23.0947C25.0207 23.1357 25.0397 23.1741 25.0657 23.2076C25.0917 23.2411 25.1241 23.2691 25.1611 23.2899C25.232 23.3303 25.3155 23.3424 25.3949 23.3239C25.4742 23.3054 25.5437 23.2576 25.5895 23.1901V23.1901Z" fill="#0151A6"/>
<path d="M23.6981 23.2326C23.7816 23.245 23.8665 23.2236 23.9341 23.1732C24.0018 23.1228 24.0466 23.0475 24.0588 22.9638C24.0711 22.8802 24.0496 22.795 23.9992 22.7271C23.9489 22.6592 23.8737 22.6141 23.7902 22.6017C23.7489 22.5956 23.7068 22.5977 23.6663 22.6079C23.6258 22.6181 23.5877 22.6362 23.5542 22.6611C23.5207 22.6861 23.4925 22.7174 23.4711 22.7534C23.4497 22.7893 23.4355 22.8291 23.4295 22.8705C23.4234 22.9119 23.4256 22.9542 23.4358 22.9948C23.446 23.0354 23.4642 23.0736 23.4891 23.1072C23.514 23.1409 23.5453 23.1692 23.5812 23.1907C23.6171 23.2123 23.6568 23.2265 23.6981 23.2326V23.2326Z" fill="#0151A6"/>
<path d="M22.2349 22.9509C22.2788 22.9622 22.3245 22.9642 22.3692 22.9567C22.4139 22.9492 22.4565 22.9324 22.4943 22.9074C22.5321 22.8824 22.5642 22.8497 22.5887 22.8115C22.6131 22.7732 22.6292 22.7303 22.636 22.6854C22.6428 22.6405 22.6402 22.5946 22.6283 22.5508C22.6163 22.5069 22.5954 22.466 22.5667 22.4308C22.5381 22.3955 22.5024 22.3667 22.462 22.346C22.4216 22.3254 22.3773 22.3136 22.3321 22.3111C22.2478 22.3004 22.1627 22.3225 22.0943 22.3728C22.0259 22.4232 21.9794 22.498 21.9644 22.5818C21.9519 22.6666 21.9734 22.7529 22.024 22.822C22.0747 22.8911 22.1504 22.9374 22.2349 22.9509V22.9509Z" fill="#0151A6"/>
<path d="M20.9518 22.3675C20.9957 22.3788 21.0414 22.3808 21.0861 22.3733C21.1308 22.3659 21.1734 22.3491 21.2112 22.3241C21.249 22.299 21.2811 22.2664 21.3055 22.2281C21.3299 22.1899 21.3461 22.1469 21.3529 22.102C21.3597 22.0571 21.3571 22.0112 21.3451 21.9674C21.3332 21.9235 21.3123 21.8827 21.2836 21.8474C21.255 21.8121 21.2193 21.7833 21.1789 21.7627C21.1385 21.7421 21.0942 21.7302 21.0489 21.7278C20.9686 21.7235 20.8896 21.7493 20.8272 21.8002C20.7649 21.851 20.7237 21.9234 20.7115 22.0031C20.6994 22.0828 20.7173 22.1642 20.7617 22.2316C20.8061 22.2989 20.8738 22.3474 20.9518 22.3675V22.3675Z" fill="#0151A6"/>
<path d="M20.1927 20.9535C20.2731 20.9578 20.3521 20.932 20.4144 20.8811C20.4768 20.8302 20.518 20.7579 20.5301 20.6782C20.5423 20.5984 20.5244 20.517 20.48 20.4497C20.4356 20.3823 20.3679 20.3339 20.2899 20.3138C20.246 20.3024 20.2003 20.3004 20.1556 20.3079C20.1109 20.3154 20.0683 20.3322 20.0305 20.3572C19.9927 20.3822 19.9606 20.4149 19.9361 20.4531C19.9117 20.4914 19.8956 20.5344 19.8888 20.5793C19.882 20.6242 19.8846 20.67 19.8965 20.7139C19.9085 20.7577 19.9294 20.7986 19.9581 20.8339C19.9867 20.8691 20.0224 20.898 20.0628 20.9186C20.1032 20.9392 20.1475 20.9511 20.1927 20.9535V20.9535Z" fill="#0151A6"/>
<path d="M28.5402 4.40946L21.2678 16.2517C21.2624 16.2654 21.2541 16.2778 21.2434 16.2879C21.2327 16.2981 21.2199 16.3057 21.206 16.3104C21.192 16.315 21.1772 16.3166 21.1626 16.3149C21.148 16.3132 21.1339 16.3084 21.1213 16.3006C21.1088 16.2929 21.0981 16.2826 21.0899 16.2703C21.0818 16.258 21.0764 16.244 21.0742 16.2294C21.072 16.2149 21.073 16.2 21.0771 16.1858C21.0813 16.1717 21.0884 16.1586 21.0981 16.1475L28.3762 4.3262L28.5402 4.40946Z" fill="#8D2C25"/>
<path d="M25.6601 7.97282C25.7154 7.87664 25.8067 7.8065 25.9137 7.77781C26.0208 7.74913 26.1349 7.76426 26.2309 7.81987C26.3277 7.87661 26.3982 7.96931 26.4273 8.07782C26.4564 8.18633 26.4416 8.3019 26.3862 8.39942C26.3297 8.49635 26.2374 8.56698 26.1292 8.59597C26.021 8.62495 25.9058 8.60996 25.8084 8.55424C25.7593 8.52699 25.7163 8.48998 25.6821 8.44548C25.6478 8.40097 25.6229 8.34992 25.609 8.29546C25.5951 8.241 25.5925 8.18429 25.6013 8.1288C25.6101 8.07332 25.6301 8.02023 25.6601 7.97282V7.97282Z" fill="#D24C38"/>
<path d="M27.7447 7.7892C27.8001 7.69301 27.8913 7.62287 27.9983 7.59419C28.1054 7.56551 28.2195 7.58064 28.3155 7.63625C28.3638 7.6631 28.4062 7.69941 28.4402 7.74302C28.4742 7.78663 28.4991 7.83664 28.5134 7.89007C28.5277 7.9435 28.5311 7.99926 28.5235 8.05402C28.5159 8.10878 28.4973 8.16143 28.4689 8.20881C28.4136 8.305 28.3223 8.37514 28.2153 8.40382C28.1082 8.4325 27.9942 8.41737 27.8981 8.36176C27.8499 8.33491 27.8075 8.2986 27.7735 8.25499C27.7395 8.21138 27.7146 8.16137 27.7003 8.10794C27.6859 8.05451 27.6825 7.99875 27.6901 7.94399C27.6978 7.88923 27.7163 7.83658 27.7447 7.7892Z" fill="#D24C38"/>
<path d="M29.5401 8.05613C29.5965 7.9592 29.6889 7.88857 29.7971 7.85959C29.9052 7.8306 30.0205 7.84559 30.1179 7.90131C30.2128 7.96023 30.2806 8.05451 30.3063 8.16342C30.3319 8.27233 30.3134 8.38693 30.2548 8.48203C30.1962 8.57713 30.1023 8.64493 29.9937 8.67052C29.8851 8.69611 29.7708 8.67738 29.6758 8.61846C29.5855 8.56004 29.5211 8.46906 29.4958 8.36436C29.4705 8.25967 29.4864 8.1493 29.5401 8.05613V8.05613Z" fill="#D24C38"/>
<path d="M31.1876 8.58118C31.2288 8.50939 31.2905 8.45152 31.3646 8.41488C31.4387 8.37825 31.5221 8.3645 31.6041 8.37537C31.6861 8.38625 31.763 8.42125 31.8253 8.47597C31.8875 8.53068 31.9322 8.60265 31.9536 8.68275C31.9751 8.76286 31.9724 8.84752 31.9459 8.92601C31.9193 9.00451 31.8702 9.07332 31.8046 9.12374C31.739 9.17415 31.66 9.20391 31.5774 9.20926C31.4949 9.2146 31.4126 9.19528 31.341 9.15375C31.245 9.09808 31.1749 9.00649 31.1461 8.89913C31.1173 8.79176 31.1323 8.6774 31.1876 8.58118V8.58118Z" fill="#D24C38"/>
<path d="M25.7156 6.53561C25.7744 6.44144 25.7936 6.32762 25.7687 6.21919C25.7438 6.11077 25.6771 6.01662 25.583 5.95745C25.489 5.89829 25.3755 5.87896 25.2674 5.90371C25.1593 5.92847 25.0655 5.99528 25.0066 6.08946C24.9775 6.13609 24.9578 6.18803 24.9487 6.24232C24.9395 6.29661 24.9412 6.35219 24.9535 6.40588C24.9658 6.45956 24.9885 6.51031 25.0204 6.55522C25.0522 6.60013 25.0926 6.63832 25.1391 6.66762C25.1857 6.69691 25.2375 6.71674 25.2917 6.72596C25.3459 6.73518 25.4013 6.73362 25.4548 6.72136C25.5083 6.7091 25.5589 6.68639 25.6037 6.65452C25.6484 6.62265 25.6864 6.58224 25.7156 6.53561V6.53561Z" fill="#D24C38"/>
<path d="M24.6735 5.04197C24.7289 4.94444 24.7437 4.82888 24.7146 4.72036C24.6855 4.61185 24.6149 4.51916 24.5182 4.46242C24.4221 4.40681 24.308 4.39168 24.201 4.42036C24.0939 4.44904 24.0027 4.51919 23.9473 4.61537C23.919 4.66276 23.9004 4.7154 23.8928 4.77016C23.8851 4.82492 23.8886 4.88068 23.9029 4.93411C23.9172 4.98754 23.9421 5.03755 23.9761 5.08116C24.0101 5.12477 24.0525 5.16108 24.1008 5.18794C24.1966 5.24283 24.3099 5.2583 24.4167 5.23106C24.5236 5.20383 24.6156 5.13603 24.6735 5.04197V5.04197Z" fill="#D24C38"/>
<path d="M23.44 3.80812C23.4954 3.71191 23.5103 3.59754 23.4815 3.49018C23.4527 3.38281 23.3826 3.29123 23.2866 3.23556C23.2393 3.20704 23.1868 3.18836 23.1322 3.18062C23.0775 3.17288 23.0219 3.17625 22.9686 3.19053C22.9154 3.2048 22.8655 3.22968 22.8221 3.2637C22.7787 3.29771 22.7425 3.34016 22.7158 3.38851C22.6604 3.48603 22.6456 3.6016 22.6747 3.71011C22.7037 3.81862 22.7743 3.91132 22.8711 3.96806C22.9682 4.0206 23.0818 4.03329 23.188 4.00345C23.2941 3.97361 23.3845 3.90358 23.44 3.80812Z" fill="#D24C38"/>
<path d="M21.4591 5.82828L21.3486 5.75991C21.0468 5.57322 20.6517 5.66689 20.4659 5.96913L18.9733 8.39793C18.7876 8.70017 18.8816 9.09653 19.1833 9.28322L19.2938 9.35159C19.5955 9.53828 19.9907 9.44461 20.1764 9.14237L21.6691 6.71356C21.8548 6.41132 21.7608 6.01497 21.4591 5.82828Z" fill="#D24C38"/>
<path d="M14.9496 8.31824C15.3346 7.63882 18.8767 6.51761 21.3241 10.2773C23.7715 14.037 20.5506 17.22 18.8671 18.0378C17.1837 18.8556 10.3284 16.2994 14.9496 8.31824Z" fill="#FDB73D"/>
<path d="M14.9498 8.31761C14.9498 8.31761 14.7688 14.5477 18.9932 17.8388C19.528 16.3882 19.5544 14.7976 19.0679 13.3284C18.2037 10.9107 14.9498 8.31761 14.9498 8.31761Z" fill="#401F23"/>
<path d="M27.9588 14.713L28.0693 14.7813C28.3711 14.9679 28.7662 14.8741 28.9518 14.5718L30.4436 12.1424C30.6293 11.8401 30.5351 11.4438 30.2333 11.2572L30.1228 11.1889C29.821 11.0023 29.4259 11.0961 29.2402 11.3984L27.7485 13.8278C27.5628 14.1301 27.657 14.5264 27.9588 14.713Z" fill="#D24C38"/>
<path d="M30.8312 18.1627C31.2604 17.5089 30.6556 13.8318 26.2212 13.3211C21.7868 12.8105 20.392 17.1282 20.4128 19.016C20.4337 20.9038 25.7925 25.8666 30.8312 18.1627Z" fill="#FDB73D"/>
<path d="M30.8309 18.1619C30.8309 18.1619 25.3645 21.1234 20.5574 18.8042C21.6155 17.6653 23.0308 16.9243 24.5684 16.7042C27.058 16.3889 30.8309 18.1619 30.8309 18.1619Z" fill="#401F23"/>
<g style="mix-blend-mode:multiply" opacity="0.61">
<path d="M28.4572 4.34912L8.01833 37.6132L7.94176 37.6337C7.3828 36.0283 7.05889 34.3505 6.98016 32.6527V32.6527C6.78329 29.1953 7.39011 25.7406 8.75276 22.561C9.10168 21.7191 9.44364 20.8791 9.77782 20.0936L12.3816 13.8279C14.31 9.32979 16.1732 5.7023 18.3677 3.81211C21.7204 0.870659 27.8711 4.02722 28.3764 4.32588L28.4572 4.34912Z" fill="#C1AD91"/>
</g>
<path d="M55.4883 39.5997L56.359 47.1045C56.9754 46.7682 57.4851 46.2656 57.8301 45.654C58.1751 45.0424 58.3415 44.3463 58.3105 43.6448C58.1829 41.9938 57.6575 39.232 55.4883 39.5997Z" fill="#8D2C25"/>
<path d="M37.2639 44.709L40.3938 51.5459C39.6925 51.5798 38.9958 51.4163 38.3828 51.074C37.7698 50.7317 37.2651 50.2244 36.9261 49.6096C36.2281 48.1687 35.2523 45.527 37.2639 44.709Z" fill="#8D2C25"/>
<path d="M55.4881 39.5998L56.3588 47.1046C56.4714 48.0277 56.5764 48.9583 56.6965 49.9039C57.1775 53.6855 56.7583 57.5272 55.4731 61.1161C54.8955 62.7967 54.0898 64.3901 53.0787 65.8516C53.0577 65.8712 53.04 65.894 53.0262 65.9192V65.9192C51.3248 65.1846 49.7394 64.2062 48.32 63.0148V63.0148C45.4153 60.6324 43.103 57.6088 41.5648 54.1817C41.1595 53.2861 40.7541 52.408 40.3488 51.5475L37.2339 44.7931C35.0647 39.9375 33.526 35.8024 33.6386 32.6279C33.8338 27.7797 40.8892 25.1756 41.4672 24.973H41.5122H41.5798H41.6849C42.8933 24.7403 49.6711 23.6296 52.193 27.457C53.9569 30.0387 54.8051 34.3465 55.4881 39.5998Z" fill="#FDB73D"/>
<path d="M51.9001 40.2208C51.9001 40.2208 52.0502 42.78 53.6339 48.5737C54.6588 52.6678 55.2748 56.8535 55.4729 61.0692C54.8861 62.7745 54.0624 64.3888 53.026 65.8648V65.8648C51.3246 65.1302 49.7392 64.1518 48.3198 62.9604V62.9604C47.4717 61.3244 45.6177 57.707 44.732 55.5382C43.5611 52.6863 41.0392 44.5136 41.0992 44.5286L45.1674 38.6523L51.9001 40.2208Z" fill="#8D2C25"/>
<path d="M39.1259 50.6501L39.1115 50.6541C38.924 50.7071 38.8149 50.902 38.8678 51.0894L39.5329 53.4439C39.5858 53.6314 39.7807 53.7405 39.9682 53.6875L39.9827 53.6834C40.1702 53.6305 40.2792 53.4356 40.2263 53.2481L39.5613 50.8936C39.5083 50.7062 39.3134 50.5971 39.1259 50.6501Z" fill="#0151A6"/>
<path d="M56.9006 45.662C56.9907 45.6366 57.0871 45.648 57.1688 45.6937C57.2504 45.7394 57.3106 45.8156 57.336 45.9056L58.0031 48.2673C58.0279 48.3554 58.0168 48.4498 57.9721 48.5297C57.9274 48.6096 57.8527 48.6685 57.7646 48.6934V48.6934C57.6746 48.7188 57.5781 48.7074 57.4965 48.6617C57.4148 48.6161 57.3547 48.5398 57.3292 48.4498L56.6602 46.0809C56.6394 45.9936 56.6528 45.9017 56.6975 45.8238C56.7421 45.746 56.8148 45.6882 56.9006 45.662V45.662Z" fill="#0151A6"/>
<path d="M50.9021 26.0454C48.4627 25.8202 44.8974 26.5557 43.3287 31.3888C39.4407 28.0942 36.033 29.3174 34.0665 30.7734C33.8099 31.3567 33.6648 31.9829 33.6387 32.6196C34.388 31.7934 35.4072 31.2613 36.5134 31.1186C40.0562 30.5332 43.7115 32.8447 43.7265 32.8447C43.7265 32.8447 45.6555 28.9722 48.9806 27.6514C49.9923 27.1954 51.1324 27.1104 52.2006 27.4112C51.8576 26.8783 51.417 26.4149 50.9021 26.0454V26.0454Z" fill="#0C8B4F"/>
<path d="M44.7095 24.5892C43.5887 25.1569 42.6884 26.0809 42.15 27.2159C41.0952 26.5331 39.8449 26.2166 38.5922 26.3153V26.3153C37.6179 26.8572 36.711 27.5122 35.8901 28.2666C40.3186 26.533 42.6454 29.017 42.6454 29.017C42.6454 29.017 43.3209 25.6774 48.0046 24.8369C46.9192 24.6291 45.8137 24.546 44.7095 24.5892V24.5892Z" fill="#0C8B4F"/>
<path d="M41.73 25.7373C41.9694 25.3561 42.2804 25.0248 42.6457 24.7617C41.9927 24.8518 41.5648 24.9418 41.5048 24.9568C41.142 25.0799 40.7862 25.2227 40.439 25.3846C40.8904 25.4128 41.3317 25.5301 41.7375 25.7298L41.73 25.7373Z" fill="#0C8B4F"/>
<path d="M48.0198 24.8516C43.3286 25.6921 42.6456 29.0242 42.6456 29.0392C42.6456 29.0543 40.3263 26.5326 35.8903 28.2888C35.117 28.9817 34.496 29.8276 34.0664 30.7729C36.0329 29.3169 39.4406 28.0936 43.3211 31.3882C44.8973 26.5552 48.4551 25.8197 50.902 26.0448C50.0348 25.4508 49.0531 25.0444 48.0198 24.8516V24.8516Z" fill="#FDB73D"/>
<path d="M44.7099 24.5898C44.0193 24.6105 43.3303 24.6681 42.6458 24.7625V24.7625C42.2751 25.0241 41.9589 25.3555 41.7151 25.7381C41.3093 25.5384 40.868 25.421 40.4166 25.3929V25.3929C39.9062 25.618 39.2682 25.9257 38.5776 26.3159C39.8311 26.2194 41.0815 26.5386 42.1354 27.224V27.224C42.6762 26.0838 43.5823 25.1568 44.7099 24.5898V24.5898Z" fill="#FDB73D"/>
<path d="M45.4751 38.9609L46.5259 48.7172C47.1021 48.8848 47.6974 48.9781 48.2973 48.9949C48.7473 48.7058 49.152 48.3517 49.4982 47.9442L45.4751 38.9609Z" fill="#401F23"/>
<path d="M46.5259 48.7246C46.5259 48.7246 46.9012 49.3475 47.4116 49.3925C47.5773 49.399 47.7425 49.3718 47.8974 49.3124C48.0522 49.2531 48.1934 49.1629 48.3123 49.0473L46.5259 48.7246Z" fill="#FDB73D"/>
<path d="M48.2974 49.0018L49.4983 47.9512C49.4983 47.9512 49.6484 48.6191 49.2431 48.8968C49.1008 48.9774 48.9436 49.0282 48.781 49.0463C48.6184 49.0644 48.4539 49.0492 48.2974 49.0018Z" fill="#FDB73D"/>
<path d="M44.8975 55.1783C44.8975 55.1783 45.9708 54.0001 49.5586 52.9644C53.1464 51.9288 54.1972 52.5592 54.1972 52.5592C54.1972 52.5592 53.8444 55.0508 50.4443 56.1239C49.5163 56.4555 48.5185 56.5427 47.5471 56.3771C46.5756 56.2114 45.6632 55.7986 44.8975 55.1783V55.1783Z" fill="#401F23"/>
<path d="M44.627 55.2614C44.627 55.2614 47.6668 49.1825 54.5121 52.4846L44.627 55.2614Z" fill="#D24C38"/>
<path d="M44.627 55.2607C45.2203 56.3017 46.1446 57.1146 47.253 57.5701C48.3613 58.0256 49.5902 58.0977 50.7442 57.7748C54.302 56.7692 54.4971 52.5215 54.4971 52.5215L54.2119 52.5965C54.2119 52.5965 53.5514 54.8104 50.3539 55.8011C49.4532 56.0967 48.4992 56.1941 47.5574 56.0866C46.6155 55.9791 45.708 55.6692 44.8972 55.1782L44.627 55.2607Z" fill="#D24C38"/>
<path d="M55.4729 61.0699C54.8861 62.7753 54.0624 64.3896 53.026 65.8655V65.8655C51.3246 65.131 49.7392 64.1526 48.3198 62.9612C48.8002 61.903 49.821 60.1769 51.3222 59.7866C52.6807 59.4339 54.4071 60.357 55.4729 61.0699Z" fill="#D24C38"/>
<path d="M49.6562 62.8631L52.6586 64.5441L54.2048 61.5872C54.2048 61.5872 52.7637 60.3414 51.5627 60.6792C50.3618 61.0169 49.6562 62.8631 49.6562 62.8631Z" fill="#0151A6"/>
<path d="M38.6601 45.5583C38.6383 45.4708 38.6501 45.3783 38.6932 45.2991C38.7363 45.2199 38.8075 45.1598 38.8928 45.1305C38.9366 45.118 38.9825 45.1142 39.0279 45.1195C39.0732 45.1248 39.117 45.1391 39.1568 45.1614C39.1966 45.1837 39.2315 45.2137 39.2596 45.2496C39.2878 45.2855 39.3085 45.3267 39.3206 45.3707C39.3462 45.4602 39.3352 45.5563 39.2902 45.6378C39.2452 45.7193 39.1698 45.7798 39.0804 45.8059C38.9919 45.8267 38.8988 45.8126 38.8205 45.7665C38.7422 45.7203 38.6847 45.6458 38.6601 45.5583V45.5583Z" fill="#0151A6"/>
<path d="M40.6341 46.1813C40.5667 46.1719 40.5036 46.1428 40.4527 46.0977C40.4018 46.0526 40.3653 45.9935 40.3479 45.9277C40.3305 45.8619 40.3329 45.7925 40.3549 45.7281C40.3768 45.6637 40.4173 45.6072 40.4712 45.5657C40.5251 45.5243 40.5901 45.4996 40.658 45.495C40.7258 45.4903 40.7936 45.5058 40.8527 45.5395C40.9118 45.5731 40.9596 45.6235 40.9902 45.6843C41.0207 45.7451 41.0327 45.8136 41.0244 45.8811C41.0114 45.9721 40.9632 46.0545 40.8903 46.1105C40.8174 46.1666 40.7255 46.192 40.6341 46.1813V46.1813Z" fill="#0151A6"/>
<path d="M42.2482 46.3555C42.1788 46.3476 42.1133 46.3192 42.06 46.2739C42.0067 46.2287 41.9681 46.1687 41.949 46.1015C41.9299 46.0343 41.9312 45.9629 41.9527 45.8964C41.9742 45.8299 42.015 45.7713 42.0699 45.7281C42.1248 45.6848 42.1913 45.6588 42.2609 45.6534C42.3306 45.648 42.4003 45.6634 42.4612 45.6976C42.5222 45.7319 42.5715 45.7834 42.6031 45.8458C42.6346 45.9081 42.647 45.9784 42.6385 46.0478C42.6254 46.1394 42.5776 46.2224 42.5049 46.2797C42.4322 46.337 42.3403 46.3641 42.2482 46.3555Z" fill="#0151A6"/>
<path d="M43.749 46.084C43.7036 46.0781 43.6599 46.0633 43.6203 46.0405C43.5806 46.0177 43.5459 45.9873 43.518 45.951C43.4901 45.9148 43.4697 45.8734 43.4578 45.8293C43.4459 45.7851 43.4428 45.7391 43.4487 45.6937C43.4546 45.6484 43.4694 45.6047 43.4922 45.5651C43.5151 45.5254 43.5455 45.4907 43.5817 45.4628C43.6179 45.4349 43.6593 45.4145 43.7035 45.4026C43.7476 45.3907 43.7937 45.3876 43.839 45.3935C43.8845 45.3991 43.9285 45.4136 43.9683 45.4363C44.0081 45.459 44.043 45.4894 44.071 45.5258C44.0989 45.5621 44.1193 45.6036 44.1311 45.6479C44.1428 45.6922 44.1456 45.7384 44.1393 45.7838C44.1347 45.8297 44.1208 45.8742 44.0985 45.9145C44.0761 45.9549 44.0456 45.9902 44.0091 46.0183C43.9725 46.0465 43.9305 46.0668 43.8858 46.0781C43.8411 46.0894 43.7945 46.0914 43.749 46.084V46.084Z" fill="#0151A6"/>
<path d="M44.9726 44.8535C44.881 44.8416 44.7979 44.7938 44.7416 44.7206C44.6853 44.6474 44.6604 44.5548 44.6724 44.4633C44.6843 44.3717 44.7321 44.2887 44.8053 44.2324C44.8785 44.1761 44.9711 44.1511 45.0627 44.1631C45.108 44.169 45.1517 44.1838 45.1914 44.2066C45.231 44.2294 45.2657 44.2598 45.2936 44.296C45.3215 44.3323 45.342 44.3736 45.3538 44.4178C45.3657 44.4619 45.3688 44.508 45.3629 44.5533C45.357 44.5987 45.3422 44.6424 45.3194 44.682C45.2966 44.7216 45.2662 44.7564 45.2299 44.7843C45.1937 44.8121 45.1523 44.8326 45.1081 44.8445C45.064 44.8564 45.0179 44.8594 44.9726 44.8535V44.8535Z" fill="#0151A6"/>
<path d="M54.5121 41.1016C54.4843 41.0133 54.4236 40.9391 54.3426 40.8944C54.2615 40.8497 54.1663 40.8379 54.0768 40.8615C53.9964 40.8939 53.9307 40.9548 53.8924 41.0326C53.854 41.1103 53.8456 41.1995 53.8688 41.283C53.892 41.3666 53.9452 41.4386 54.0182 41.4855C54.0912 41.5323 54.1788 41.5506 54.2645 41.5369C54.3094 41.5248 54.3515 41.5038 54.3883 41.4753C54.4251 41.4468 54.4559 41.4113 54.479 41.3708C54.502 41.3304 54.5168 41.2858 54.5225 41.2396C54.5282 41.1933 54.5247 41.1465 54.5121 41.1016V41.1016Z" fill="#0151A6"/>
<path d="M53.1535 42.6619C53.2261 42.6031 53.2723 42.5179 53.2822 42.4251C53.292 42.3322 53.2647 42.2393 53.2061 42.1666C53.1623 42.1122 53.1033 42.0721 53.0367 42.0512C52.9701 42.0304 52.8987 42.0298 52.8318 42.0495C52.7648 42.0692 52.7052 42.1084 52.6605 42.162C52.6157 42.2156 52.5879 42.2813 52.5806 42.3507C52.5732 42.4201 52.5866 42.4901 52.6191 42.5519C52.6516 42.6137 52.7016 42.6645 52.763 42.6978C52.8243 42.7311 52.8942 42.7455 52.9637 42.7391C53.0332 42.7327 53.0993 42.7058 53.1535 42.6619V42.6619Z" fill="#0151A6"/>
<path d="M51.8473 43.624C51.8838 43.5954 51.9143 43.5599 51.9371 43.5196C51.9598 43.4792 51.9744 43.4347 51.98 43.3887C51.9855 43.3428 51.982 43.2961 51.9695 43.2515C51.9571 43.2069 51.936 43.1651 51.9074 43.1287C51.8486 43.0561 51.7634 43.0099 51.6705 43C51.5777 42.9902 51.4847 43.0175 51.412 43.0761C51.3521 43.1376 51.3168 43.2188 51.3125 43.3044C51.3081 43.3901 51.3352 43.4744 51.3886 43.5416C51.4419 43.6087 51.518 43.6541 51.6024 43.6693C51.6868 43.6845 51.7739 43.6684 51.8473 43.624V43.624Z" fill="#0151A6"/>
<path d="M50.4437 44.2086C50.5163 44.1498 50.5625 44.0646 50.5724 43.9718C50.5822 43.8789 50.5549 43.7859 50.4963 43.7132C50.4348 43.6534 50.3536 43.618 50.2679 43.6137C50.1823 43.6094 50.098 43.6365 50.0308 43.6898C49.9636 43.7432 49.9182 43.8192 49.903 43.9036C49.8879 43.9881 49.904 44.0751 49.9484 44.1485C49.9769 44.185 50.0124 44.2155 50.0528 44.2382C50.0931 44.261 50.1376 44.2756 50.1836 44.2812C50.2296 44.2867 50.2763 44.2832 50.3209 44.2707C50.3655 44.2583 50.4073 44.2371 50.4437 44.2086V44.2086Z" fill="#0151A6"/>
<path d="M48.7551 43.7871C48.794 43.7591 48.8267 43.7234 48.8513 43.6822C48.8759 43.6411 48.8919 43.5954 48.8982 43.5479C48.9046 43.5004 48.9012 43.4521 48.8882 43.4059C48.8753 43.3598 48.8531 43.3167 48.8229 43.2794C48.7928 43.2422 48.7554 43.2114 48.713 43.1891C48.6706 43.1667 48.624 43.1533 48.5763 43.1495C48.5285 43.1458 48.4804 43.1518 48.435 43.1672C48.3896 43.1826 48.3479 43.2072 48.3123 43.2393C48.2453 43.2997 48.204 43.3835 48.1969 43.4735C48.1898 43.5635 48.2175 43.6527 48.2742 43.7229C48.3309 43.7931 48.4124 43.8388 48.5019 43.8508C48.5913 43.8627 48.682 43.8399 48.7551 43.7871V43.7871Z" fill="#0151A6"/>
<path d="M41.685 24.9199L45.7831 39.4792C45.784 39.5044 45.7765 39.5291 45.7617 39.5494C45.7469 39.5698 45.7257 39.5846 45.7016 39.5915C45.6774 39.5984 45.6516 39.597 45.6283 39.5875C45.605 39.5781 45.5855 39.5611 45.573 39.5393L41.4673 24.9725H41.5123L41.685 24.9199Z" fill="#8D2C25"/>
<path d="M42.4127 29.8434C42.3877 29.7562 42.3893 29.6636 42.417 29.5773C42.4448 29.4909 42.4977 29.4148 42.5688 29.3586C42.6399 29.3023 42.7261 29.2684 42.8165 29.2612C42.9069 29.254 42.9975 29.2738 43.0766 29.3181C43.1557 29.3624 43.2199 29.4292 43.261 29.5101C43.3021 29.5909 43.3183 29.6821 43.3075 29.7722C43.2966 29.8622 43.2593 29.947 43.2002 30.0158C43.1412 30.0846 43.063 30.1343 42.9756 30.1586C42.9179 30.1757 42.8574 30.181 42.7977 30.1744C42.7379 30.1677 42.6801 30.1491 42.6276 30.1197C42.5752 30.0904 42.5291 30.0508 42.4922 30.0033C42.4553 29.9559 42.4282 29.9015 42.4127 29.8434V29.8434Z" fill="#0151A6"/>
<path d="M43.7938 28.0492C43.7783 27.989 43.7752 27.9263 43.7847 27.8649C43.7942 27.8035 43.8162 27.7446 43.8492 27.692C43.8822 27.6393 43.9256 27.5939 43.9767 27.5586C44.0278 27.5232 44.0856 27.4986 44.1465 27.4863C44.2462 27.4898 44.3419 27.5257 44.4193 27.5886C44.4966 27.6515 44.5514 27.7378 44.5752 27.8346C44.5989 27.9314 44.5905 28.0334 44.551 28.1249C44.5116 28.2165 44.4434 28.2926 44.3567 28.3419C44.2432 28.3733 44.1221 28.3606 44.0176 28.3063C43.9131 28.252 43.8331 28.1601 43.7938 28.0492V28.0492Z" fill="#0151A6"/>
<path d="M45.3398 26.8413C45.3181 26.7287 45.3395 26.612 45.3997 26.5143C45.46 26.4167 45.5547 26.3452 45.6651 26.3141C45.7755 26.2829 45.8936 26.2944 45.996 26.3462C46.0984 26.3979 46.1776 26.4863 46.218 26.5937C46.2484 26.71 46.2325 26.8336 46.1738 26.9386C46.115 27.0435 46.0179 27.1216 45.9028 27.1565C45.7863 27.1889 45.6618 27.1739 45.5563 27.1149C45.4509 27.0559 45.373 26.9575 45.3398 26.8413V26.8413Z" fill="#0151A6"/>
<path d="M46.9688 25.8649C46.9439 25.7777 46.9454 25.6851 46.9732 25.5987C47.001 25.5124 47.0538 25.4363 47.1249 25.38C47.196 25.3238 47.2823 25.2899 47.3727 25.2827C47.4631 25.2755 47.5536 25.2953 47.6327 25.3396C47.7119 25.3839 47.7761 25.4507 47.8172 25.5316C47.8583 25.6124 47.8744 25.7036 47.8636 25.7937C47.8528 25.8837 47.8155 25.9685 47.7564 26.0373C47.6973 26.1061 47.6191 26.1558 47.5317 26.1801C47.4741 26.1972 47.4136 26.2025 47.3538 26.1959C47.2941 26.1892 47.2362 26.1706 47.1838 26.1412C47.1313 26.1118 47.0853 26.0723 47.0483 26.0248C47.0114 25.9773 46.9844 25.923 46.9688 25.8649V25.8649Z" fill="#0151A6"/>
<path d="M41.3095 28.746C41.2762 28.6298 41.1984 28.5315 41.093 28.4724C40.9875 28.4134 40.863 28.3984 40.7465 28.4308C40.6391 28.4712 40.5508 28.5504 40.499 28.6527C40.4472 28.7551 40.4358 28.8732 40.4669 28.9836C40.498 29.094 40.5695 29.1887 40.6672 29.249C40.7648 29.3092 40.8816 29.3306 40.9942 29.3089C41.1104 29.2757 41.2088 29.1978 41.2678 29.0924C41.3269 28.987 41.3419 28.8624 41.3095 28.746V28.746Z" fill="#0151A6"/>
<path d="M39.343 28.4843C39.3026 28.3769 39.2234 28.2886 39.121 28.2368C39.0186 28.185 38.9005 28.1735 38.7901 28.2047C38.6797 28.2358 38.585 28.3073 38.5247 28.4049C38.4645 28.5026 38.4431 28.6193 38.4648 28.7319C38.4768 28.7942 38.5016 28.8532 38.5376 28.9054C38.5736 28.9575 38.6201 29.0016 38.674 29.0349C38.728 29.0682 38.7882 29.0899 38.851 29.0987C38.9138 29.1075 38.9777 29.1031 39.0387 29.0859C39.0997 29.0687 39.1565 29.039 39.2054 28.9987C39.2543 28.9585 39.2944 28.9085 39.323 28.8519C39.3516 28.7954 39.3681 28.7335 39.3716 28.6702C39.375 28.6069 39.3653 28.5436 39.343 28.4843V28.4843Z" fill="#0151A6"/>
<path d="M37.4663 28.5374C37.4432 28.4493 37.3945 28.37 37.3261 28.3098C37.2578 28.2495 37.1731 28.211 37.0828 28.1992C36.9925 28.1874 36.9007 28.2027 36.8192 28.2433C36.7376 28.2839 36.6701 28.3479 36.6251 28.4271C36.5801 28.5063 36.5598 28.5972 36.5668 28.688C36.5737 28.7788 36.6076 28.8654 36.664 28.9369C36.7205 29.0084 36.797 29.0614 36.8837 29.0891C36.9705 29.1169 37.0636 29.1181 37.151 29.0927C37.2645 29.0578 37.3604 28.9809 37.419 28.8776C37.4776 28.7744 37.4945 28.6527 37.4663 28.5374V28.5374Z" fill="#0151A6"/>
<path d="M37.5495 31.6533L37.5134 31.6635C37.1144 31.776 36.8822 32.1906 36.9948 32.5895L37.8077 35.4715C37.9202 35.8704 38.3348 36.1026 38.7338 35.9901L38.7699 35.9799C39.1689 35.8674 39.4011 35.4528 39.2886 35.0539L38.4757 32.1719C38.3632 31.773 37.9485 31.5408 37.5495 31.6533Z" fill="#401F23"/>
<path d="M34.787 38.7113C34.5393 37.9008 36.2881 34.2084 41.0468 35.0415C45.8055 35.8745 46.0157 40.7601 45.4378 42.7264C44.8598 44.6927 37.7668 48.2724 34.787 38.7113Z" fill="#D34A3A"/>
<path d="M34.7871 38.7113C34.7871 38.7113 39.6284 43.4393 45.3628 42.4637C44.5986 40.9558 43.3401 39.7558 41.7976 39.064C39.2606 37.9908 34.7871 38.7113 34.7871 38.7113Z" fill="#401F23"/>
<path d="M49.5326 32.9567L49.5687 32.9466C49.9679 32.8348 50.2009 32.4206 50.089 32.0215L49.2811 29.1381C49.1693 28.739 48.7551 28.5061 48.3559 28.6179L48.3198 28.628C47.9206 28.7398 47.6877 29.154 47.7995 29.5531L48.6074 32.4365C48.7192 32.8356 49.1334 33.0685 49.5326 32.9567Z" fill="#401F23"/>
<path d="M54.3548 33.2032C54.1521 32.3852 50.7745 30.1563 47.1041 33.3383C43.4338 36.5204 45.8507 40.8431 47.3668 42.179C48.883 43.5148 56.8017 42.9144 54.3548 33.2032Z" fill="#D34A3A"/>
<path d="M54.355 33.2051C54.355 33.2051 52.6962 39.7643 47.2995 41.9332C47.1643 40.2486 47.6121 38.5688 48.568 37.1751C50.1518 34.9237 54.355 33.2051 54.355 33.2051Z" fill="#401F23"/>
<g style="mix-blend-mode:multiply" opacity="0.61">
<path d="M41.5798 24.9414L53.0787 65.8051C53.0577 65.8247 53.04 65.8475 53.0262 65.8726C51.3248 65.1381 49.7394 64.1597 48.32 62.9683C45.4153 60.5859 43.103 57.5622 41.5648 54.1351C41.1595 53.2395 40.7541 52.3615 40.3488 51.5009L37.2339 44.7916C35.0647 39.936 33.526 35.8009 33.6386 32.6263C33.8338 27.7782 40.8893 25.1741 41.4672 24.9714H41.5122L41.5798 24.9414Z" fill="#C1AD91"/>
</g>
</svg>
