<svg width="1920" height="1080" viewBox="0 0 1920 1080" fill="none" xmlns="http://www.w3.org/2000/svg">
<g clip-path="url(#clip0_9_3135)">
<path d="M1920 0H0V1080H1920V0Z" fill="url(#paint0_linear_9_3135)"/>
<path d="M874.522 727.683C860.91 727.678 847.489 730.387 835.354 735.588C846.426 713.075 846.784 687.826 836.355 665.095C825.926 642.363 805.513 623.9 779.36 613.544C753.208 603.189 723.331 601.739 695.944 609.496C668.557 617.253 645.769 633.621 632.32 655.193C624.379 639.668 612.705 625.702 598.036 614.181C583.367 602.659 566.023 593.832 547.102 588.259C528.181 582.686 508.094 580.487 488.114 581.803C468.134 583.118 448.695 587.919 431.027 595.901C439.235 580.867 441.151 563.927 436.463 547.854C431.775 531.781 420.759 517.526 405.22 507.423C389.68 497.319 370.536 491.965 350.921 492.237C331.305 492.509 312.38 498.39 297.242 508.918C298.963 499.215 298.352 489.319 295.444 479.819C292.537 470.32 287.392 461.411 280.318 453.625C273.243 445.839 264.383 439.334 254.265 434.498C244.148 429.662 232.98 426.594 221.428 425.477C209.875 424.36 198.175 425.217 187.023 427.997C175.871 430.776 165.497 435.422 156.518 441.656C147.54 447.89 140.14 455.586 134.761 464.284C129.382 472.983 126.134 482.506 125.21 492.286C108.115 482.835 88.2861 477.502 67.8626 476.863C47.4391 476.223 27.1964 480.301 9.31843 488.657C9.44643 486.756 9.54882 484.856 9.54882 482.933C9.54883 470.496 6.64506 458.18 1.00336 446.69C-4.63835 435.2 -12.9075 424.76 -23.3317 415.967C-33.756 407.173 -46.1312 400.198 -59.7506 395.441C-73.37 390.683 -87.9667 388.236 -102.707 388.239C-117.454 388.227 -132.059 390.668 -145.687 395.422C-159.316 400.176 -171.7 407.149 -182.132 415.944C-192.565 424.738 -200.841 435.181 -206.487 446.675C-212.134 458.17 -215.04 470.49 -215.04 482.933C-215.04 485.504 -214.886 488.031 -214.656 490.536C-216.448 490.536 -218.266 490.536 -220.083 490.536C-245.744 490.539 -270.63 497.96 -290.594 511.562C-310.559 525.165 -324.398 544.129 -329.805 565.294C-354.932 549.173 -385.638 540.462 -417.203 540.497C-436.217 540.497 -455.044 543.657 -472.609 549.797C-490.175 555.937 -506.135 564.936 -519.579 576.281C-533.022 587.626 -543.685 601.094 -550.959 615.916C-558.233 630.738 -561.975 646.624 -561.971 662.667C-562.013 688.716 -552.142 714.088 -533.811 735.048C-537.965 734.537 -542.157 734.277 -546.355 734.271C-569.333 734.276 -591.368 741.982 -607.614 755.694C-623.859 769.405 -632.986 787.999 -632.986 807.387C-632.958 824.396 -625.902 840.865 -613.034 853.958C-600.165 867.052 -582.289 875.95 -562.483 879.12L-574.438 902.362L-576.998 984.442C-576.998 984.442 874.522 1006.04 866.842 990.922C863.053 983.448 855.526 926.446 848.922 870.675C860.842 873.795 873.42 874.706 885.797 873.345C898.173 871.984 910.054 868.383 920.629 862.79C931.203 857.196 940.22 849.741 947.064 840.934C953.908 832.128 958.416 822.178 960.281 811.766C962.145 801.354 961.323 790.724 957.868 780.605C954.414 770.486 948.409 761.115 940.266 753.135C932.123 745.155 922.032 738.753 910.685 734.368C899.338 729.982 887.002 727.717 874.522 727.726V727.683Z" fill="url(#paint1_linear_9_3135)"/>
<path d="M-805.376 598.687C-791.753 598.679 -778.321 601.396 -766.182 606.615C-771.975 594.991 -774.944 582.504 -774.912 569.895C-774.912 557.459 -772.009 545.145 -766.369 533.657C-760.729 522.168 -752.462 511.729 -742.04 502.936C-731.619 494.142 -719.247 487.167 -705.63 482.408C-692.014 477.65 -677.42 475.2 -662.681 475.2C-642.156 475.206 -622.027 479.964 -604.485 488.957C-586.944 497.949 -572.664 510.83 -563.2 526.198C-551.978 504.276 -533.39 485.608 -509.731 472.502C-486.073 459.397 -458.382 452.427 -430.08 452.455C-406.221 452.424 -382.727 457.39 -361.702 466.906C-366.948 457.333 -369.656 446.91 -369.638 436.363C-369.638 416.976 -360.512 398.381 -344.266 384.67C-328.021 370.959 -305.986 363.253 -283.008 363.247C-262.911 363.226 -243.436 369.124 -227.942 379.923C-228.539 376.439 -228.839 372.923 -228.838 369.403C-228.838 350.034 -219.73 331.457 -203.512 317.748C-187.294 304.04 -165.292 296.322 -142.336 296.287C-120.619 296.288 -99.6942 303.17 -83.7068 315.572C-67.7193 327.973 -57.8353 344.988 -56.0127 363.247C-37.7676 353.128 -16.4067 347.743 5.42731 347.76C24.4546 347.732 43.1736 351.815 59.8017 359.619C59.6737 357.718 59.5969 355.817 59.5969 353.895C59.5969 328.78 71.4211 304.694 92.4684 286.936C113.516 269.177 142.062 259.2 171.827 259.2C201.593 259.2 230.139 269.177 251.186 286.936C272.234 304.694 284.058 328.78 284.058 353.895C284.058 356.465 283.904 358.992 283.674 361.498C285.466 361.498 287.283 361.498 289.101 361.498C314.762 361.5 339.648 368.921 359.612 382.524C379.577 396.127 393.415 415.09 398.822 436.255C426.558 418.54 460.926 409.843 495.639 411.756C530.351 413.669 563.087 426.064 587.855 446.674C612.623 467.284 627.767 494.729 630.517 523.989C633.267 553.248 623.438 582.364 602.829 606.01C606.983 605.499 611.175 605.239 615.373 605.232C636.957 605.211 657.773 611.99 673.744 624.24C689.716 636.49 699.692 653.329 701.719 671.461C703.747 689.592 697.679 707.708 684.705 722.263C671.731 736.817 652.786 746.761 631.578 750.147L643.584 773.28L646.144 855.36C646.144 855.36 -805.376 876.96 -797.696 861.84C-793.907 854.367 -786.355 797.364 -779.776 741.593C-788.068 743.753 -796.697 744.853 -805.376 744.855C-828.352 744.855 -850.387 737.154 -866.633 723.446C-882.879 709.738 -892.006 691.146 -892.006 671.76C-891.993 652.38 -882.86 633.797 -866.616 620.095C-850.372 606.393 -828.345 598.693 -805.376 598.687V598.687Z" fill="url(#paint2_linear_9_3135)"/>
<path d="M640 756C633.984 749.52 565.939 718.243 565.939 718.243L511.36 679.644L409.6 667.44L344.806 644.393C344.806 644.393 276.582 608.407 265.958 605.513C255.334 602.618 191.027 563.242 191.027 563.242C191.027 563.242 145.075 595.447 139.52 599.767C133.965 604.087 94.9504 638.647 94.9504 638.647L4.37765 667.44L-186.035 796.09C-186.035 796.09 -1.71515 841.687 17.7152 847.498C37.1457 853.308 414.694 838.858 414.694 838.858L631.552 818.446C631.552 818.446 645.965 762.48 640 756Z" fill="#C9E0C3"/>
<path d="M1051.75 851.709L1022.28 831.708C1022.28 831.708 979.635 825.832 976.205 828.878C972.775 831.924 936.96 815.81 936.96 815.81L890.88 782.114L826.88 755.762L730.675 714.096L697.959 750.816H602.266L488.013 826.891L692.813 903.377C692.813 903.377 1056.33 910.828 1064.01 915.084C1071.69 919.339 1051.75 851.709 1051.75 851.709Z" fill="#C9E0C3"/>
<path d="M77.1586 216.864C76.9825 215.595 76.8971 214.319 76.9026 213.041C76.9099 207.655 78.3799 202.342 81.1996 197.51C84.0193 192.678 88.1138 188.455 93.1687 185.166C98.2236 181.877 104.105 179.609 110.36 178.537C116.615 177.464 123.079 177.615 129.255 178.978C133.59 168.337 141.883 159.163 152.897 152.82C163.912 146.477 177.059 143.305 190.383 143.776C203.707 144.247 216.494 148.335 226.841 155.433C237.189 162.531 244.542 172.259 247.808 183.168C253.697 180.069 260.409 178.258 267.336 177.9C274.263 177.541 281.187 178.647 287.481 181.115C293.774 183.584 299.239 187.338 303.379 192.037C307.52 196.737 310.206 202.234 311.194 208.03C314.569 204.59 318.991 201.992 323.985 200.515C328.979 199.038 334.356 198.737 339.537 199.646C344.719 200.554 349.508 202.638 353.391 205.671C357.274 208.705 360.103 212.575 361.575 216.864H77.1586Z" fill="url(#paint3_linear_9_3135)"/>
<path d="M386.714 312.509C386.243 308.931 386.813 305.31 388.374 301.96C389.935 298.609 392.439 295.63 395.671 293.28C398.903 290.929 402.764 289.279 406.922 288.47C411.08 287.662 415.408 287.721 419.533 288.641C422.27 281.941 427.497 276.166 434.436 272.173C441.375 268.181 449.655 266.184 458.047 266.48C466.438 266.776 474.492 269.349 481.012 273.816C487.532 278.284 492.169 284.407 494.234 291.276C497.942 289.318 502.172 288.172 506.538 287.943C510.904 287.715 515.269 288.409 519.237 289.965C523.204 291.521 526.648 293.888 529.256 296.852C531.863 299.815 533.553 303.282 534.17 306.936C536.299 304.773 539.087 303.14 542.233 302.212C545.379 301.285 548.765 301.097 552.027 301.67C555.29 302.243 558.306 303.554 560.753 305.464C563.199 307.373 564.983 309.809 565.914 312.509H386.714Z" fill="url(#paint4_linear_9_3135)"/>
<path d="M744.013 543.91C743.91 543.128 743.859 542.342 743.859 541.555C743.893 535.864 746.587 530.414 751.357 526.389C756.127 522.365 762.586 520.092 769.331 520.063C771.527 520.057 773.713 520.296 775.834 520.776C778.486 514.283 783.551 508.686 790.275 504.816C797 500.946 805.025 499.01 813.157 499.297C821.29 499.583 829.096 502.076 835.415 506.405C841.734 510.734 846.228 516.668 848.23 523.325C851.828 521.459 855.916 520.374 860.132 520.164C864.347 519.955 868.558 520.629 872.39 522.126C876.222 523.623 879.556 525.896 882.094 528.743C884.632 531.591 886.296 534.923 886.938 538.445C889 536.353 891.698 534.774 894.743 533.877C897.787 532.98 901.064 532.8 904.221 533.355C907.378 533.909 910.297 535.179 912.664 537.027C915.031 538.875 916.757 541.232 917.658 543.845L744.013 543.91Z" fill="url(#paint5_linear_9_3135)"/>
<path d="M1440.92 511.682C1454.54 511.664 1467.96 514.374 1480.09 519.588C1468.9 497.055 1468.46 471.744 1478.86 448.944C1489.27 426.144 1509.71 407.619 1535.93 397.238C1562.14 386.857 1592.09 385.424 1619.53 393.238C1646.96 401.053 1669.76 417.51 1683.15 439.171C1691.1 423.65 1702.77 409.689 1717.44 398.171C1732.11 386.653 1749.46 377.829 1768.38 372.256C1787.29 366.684 1807.38 364.484 1827.36 365.796C1847.33 367.108 1866.77 371.904 1884.44 379.879C1876.26 364.846 1874.37 347.917 1879.06 331.857C1883.76 315.798 1894.77 301.557 1910.3 291.46C1925.83 281.363 1944.96 276.008 1964.56 276.269C1984.16 276.53 2003.08 282.391 2018.23 292.896C2016.51 283.193 2017.12 273.297 2020.02 263.797C2022.93 254.298 2028.08 245.389 2035.15 237.603C2042.23 229.817 2051.09 223.312 2061.2 218.476C2071.32 213.64 2082.49 210.572 2094.04 209.455C2105.59 208.338 2117.29 209.195 2128.45 211.975C2139.6 214.754 2149.97 219.4 2158.95 225.634C2167.93 231.868 2175.33 239.564 2180.71 248.262C2186.09 256.961 2189.33 266.484 2190.26 276.264C2207.35 266.813 2227.18 261.48 2247.61 260.841C2268.03 260.201 2288.27 264.279 2306.15 272.635C2306.02 270.734 2305.92 268.834 2305.92 266.911C2306.37 242.042 2318.39 218.318 2339.39 200.863C2360.39 183.409 2388.68 173.625 2418.16 173.625C2447.64 173.625 2475.94 183.409 2496.94 200.863C2517.94 218.318 2529.96 242.042 2530.41 266.911C2530.41 269.482 2530.25 272.009 2530.02 274.536C2531.81 274.536 2533.63 274.406 2535.45 274.406C2561.11 274.409 2586 281.83 2605.96 295.432C2625.93 309.035 2639.76 327.999 2645.17 349.164C2672.9 331.379 2707.3 322.624 2742.06 324.507C2776.81 326.389 2809.6 338.782 2834.41 359.413C2859.22 380.043 2874.37 407.528 2877.1 436.825C2879.84 466.123 2869.96 495.269 2849.28 518.918C2853.43 518.414 2857.63 518.162 2861.82 518.162C2883.38 518.17 2904.17 524.961 2920.11 537.208C2936.05 549.455 2946.01 566.278 2948.03 584.39C2950.06 602.501 2944.01 620.599 2931.06 635.146C2918.12 649.693 2899.21 659.645 2878.03 663.055L2889.98 686.297L2892.54 768.377C2892.54 768.377 1441.02 789.977 1448.7 774.857C1452.49 767.383 1460.02 710.402 1466.62 654.61C1454.7 657.742 1442.12 658.662 1429.73 657.308C1417.35 655.954 1405.46 652.358 1394.87 646.766C1384.29 641.173 1375.26 633.717 1368.41 624.907C1361.56 616.097 1357.05 606.142 1355.18 595.724C1353.32 585.306 1354.14 574.67 1357.6 564.546C1361.06 554.421 1367.07 545.048 1375.22 537.066C1383.38 529.085 1393.48 522.684 1404.83 518.303C1416.19 513.922 1428.54 511.663 1441.02 511.682H1440.92Z" fill="url(#paint6_linear_9_3135)"/>
<path d="M2422.66 729.735C2411.9 729.733 2401.3 731.871 2391.71 735.977C2400.58 718.18 2400.95 698.177 2392.74 680.155C2384.53 662.133 2368.38 647.488 2347.66 639.286C2326.95 631.084 2303.27 629.96 2281.6 636.15C2259.92 642.339 2241.93 655.363 2231.37 672.495C2225.1 660.235 2215.88 649.208 2204.3 640.111C2192.71 631.014 2179.02 624.045 2164.08 619.645C2149.14 615.245 2133.28 613.511 2117.5 614.551C2101.72 615.591 2086.37 619.383 2072.42 625.687C2078.9 613.817 2080.41 600.443 2076.71 587.753C2073.01 575.063 2064.32 563.809 2052.05 555.831C2039.78 547.853 2024.67 543.624 2009.18 543.837C1993.69 544.049 1978.75 548.69 1966.8 556.999C1967.27 554.245 1967.51 551.466 1967.51 548.683C1967.54 533.779 1960.73 519.444 1948.51 508.68C1936.3 497.916 1919.62 491.557 1901.97 490.934C1884.32 490.312 1867.07 495.474 1853.83 505.34C1840.59 515.207 1832.39 529.012 1830.94 543.867C1817.45 536.395 1801.79 532.178 1785.66 531.671C1769.54 531.165 1753.55 534.389 1739.44 540.994C1739.44 539.503 1739.62 537.991 1739.62 536.479C1739.62 516.647 1730.28 497.626 1713.66 483.603C1697.04 469.579 1674.5 461.7 1651 461.7C1627.49 461.7 1604.95 469.579 1588.33 483.603C1571.71 497.626 1562.37 516.647 1562.37 536.479C1562.37 538.51 1562.5 540.497 1562.68 542.484C1561.24 542.484 1559.81 542.484 1558.37 542.484C1538.11 542.49 1518.47 548.351 1502.7 559.092C1486.94 569.833 1476.02 584.806 1471.74 601.517C1449.85 587.623 1422.76 580.828 1395.42 582.37C1368.08 583.912 1342.31 593.688 1322.8 609.919C1303.29 626.149 1291.33 647.753 1289.12 670.795C1286.9 693.838 1294.57 716.785 1310.72 735.459C1307.44 735.061 1304.13 734.859 1300.81 734.854C1283.75 734.82 1267.29 740.166 1254.65 749.844C1242.02 759.523 1234.13 772.834 1232.53 787.168C1230.92 801.501 1235.73 815.823 1245.99 827.324C1256.26 838.825 1271.24 846.674 1288.01 849.334L1278.57 867.672L1276.54 932.472C1276.54 932.472 2422.71 949.515 2416.64 937.57C2413.64 931.673 2407.71 886.68 2402.43 842.638C2411.84 845.101 2421.77 845.82 2431.54 844.746C2441.31 843.672 2450.69 840.831 2459.04 836.417C2467.39 832.002 2474.51 826.118 2479.92 819.168C2485.32 812.217 2488.88 804.364 2490.36 796.144C2491.84 787.925 2491.19 779.533 2488.47 771.543C2485.75 763.554 2481.01 756.154 2474.59 749.85C2468.17 743.547 2460.21 738.488 2451.25 735.02C2442.3 731.552 2432.56 729.756 2422.71 729.756L2422.66 729.735Z" fill="url(#paint7_linear_9_3135)"/>
<path d="M1991.01 717.12L1919.33 653.897C1919.33 653.897 1900.11 642.363 1891 632.297C1881.88 622.231 1836.98 600.61 1825.28 591.97C1813.58 583.33 1742.03 609.25 1742.03 609.25C1742.03 609.25 1698.97 641.002 1689.6 645.322C1680.23 649.642 1659.21 682.798 1646.72 683.489C1634.23 684.18 1575.81 702.195 1567.49 702.562C1559.17 702.929 1502.82 693.641 1495.99 700.402C1489.15 707.163 1437.11 755.719 1429.61 759.521C1424.77 762.456 1420.12 765.607 1415.68 768.96C1393.46 756 1370.24 743.407 1359.36 748.462C1351.68 752.026 1323.52 735.156 1313.28 735.739C1303.04 736.323 1265.46 795.377 1258.6 795.679C1251.74 795.982 1205.27 788.314 1199.72 793.93C1194.16 799.546 1151.08 839.571 1144.96 842.681C1138.84 845.791 1100.8 874.325 1100.8 874.325L1496.65 888.343C1516.62 873.85 1535.46 857.715 1559.37 847.822C1580.29 839.182 1608.6 837.389 1608.01 812.355C1607.97 810.286 1607.75 808.222 1607.37 806.177L1856.26 814.99L1991.01 717.12Z" fill="#C9E0C3"/>
<path d="M1797.4 344.995C1797.64 343.058 1797.76 341.111 1797.76 339.163C1797.76 324.989 1791.09 311.394 1779.21 301.369C1767.33 291.344 1751.23 285.709 1734.43 285.703C1728.98 285.708 1723.56 286.296 1718.3 287.453C1711.71 271.303 1699.12 257.378 1682.39 247.75C1665.67 238.122 1645.72 233.304 1625.49 234.012C1605.26 234.721 1585.85 240.918 1570.13 251.683C1554.41 262.447 1543.23 277.205 1538.25 293.76C1529.31 289.052 1519.12 286.3 1508.6 285.755C1498.08 285.209 1487.57 286.887 1478.01 290.637C1468.46 294.386 1460.16 300.089 1453.87 307.227C1447.59 314.366 1443.52 322.714 1442.02 331.517C1436.9 326.293 1430.18 322.347 1422.6 320.104C1415.01 317.861 1406.85 317.406 1398.98 318.788C1391.11 320.17 1383.84 323.337 1377.94 327.947C1372.05 332.557 1367.76 338.437 1365.53 344.952L1797.4 344.995Z" fill="url(#paint8_linear_9_3135)"/>
<path d="M1142.4 290.088C1142.25 289.013 1142.17 287.931 1142.17 286.848C1142.18 278.969 1145.89 271.415 1152.5 265.846C1159.1 260.277 1168.06 257.148 1177.4 257.148C1180.42 257.15 1183.43 257.477 1186.36 258.12C1190.03 249.15 1197.03 241.419 1206.32 236.074C1215.62 230.73 1226.71 228.057 1237.94 228.452C1249.18 228.847 1259.97 232.29 1268.7 238.269C1277.44 244.248 1283.65 252.444 1286.43 261.641C1291.4 259.031 1297.06 257.507 1302.91 257.208C1308.75 256.908 1314.59 257.843 1319.9 259.927C1325.21 262.011 1329.82 265.179 1333.31 269.144C1336.8 273.109 1339.07 277.746 1339.9 282.636C1342.75 279.735 1346.48 277.543 1350.69 276.296C1354.91 275.05 1359.44 274.797 1363.81 275.563C1368.18 276.329 1372.22 278.087 1375.5 280.646C1378.77 283.206 1381.16 286.47 1382.4 290.088H1142.4Z" fill="url(#paint9_linear_9_3135)"/>
</g>
<defs>
<linearGradient id="paint0_linear_9_3135" x1="960" y1="1080" x2="960" y2="0" gradientUnits="userSpaceOnUse">
<stop offset="0.16" stop-color="#FFF9D9"/>
<stop offset="0.24" stop-color="#F9F7D9"/>
<stop offset="0.34" stop-color="#EAF1D9"/>
<stop offset="0.46" stop-color="#D0E8D9"/>
<stop offset="0.59" stop-color="#ABDBDA"/>
<stop offset="0.72" stop-color="#7CCADA"/>
<stop offset="0.86" stop-color="#43B6DA"/>
<stop offset="1" stop-color="#009EDB"/>
</linearGradient>
<linearGradient id="paint1_linear_9_3135" x1="164.122" y1="996.236" x2="164.122" y2="388.239" gradientUnits="userSpaceOnUse">
<stop stop-color="white" stop-opacity="0"/>
<stop offset="1" stop-color="white"/>
</linearGradient>
<linearGradient id="paint2_linear_9_3135" x1="-94.9759" y1="867.262" x2="-94.9759" y2="259.243" gradientUnits="userSpaceOnUse">
<stop stop-color="white" stop-opacity="0"/>
<stop offset="1" stop-color="white"/>
</linearGradient>
<linearGradient id="paint3_linear_9_3135" x1="219.239" y1="216.864" x2="219.239" y2="143.748" gradientUnits="userSpaceOnUse">
<stop stop-color="white" stop-opacity="0"/>
<stop offset="1" stop-color="white"/>
</linearGradient>
<linearGradient id="paint4_linear_9_3135" x1="476.211" y1="312.509" x2="476.211" y2="266.457" gradientUnits="userSpaceOnUse">
<stop stop-color="white" stop-opacity="0"/>
<stop offset="1" stop-color="white"/>
</linearGradient>
<linearGradient id="paint5_linear_9_3135" x1="830.771" y1="543.91" x2="830.771" y2="499.262" gradientUnits="userSpaceOnUse">
<stop stop-color="white" stop-opacity="0"/>
<stop offset="1" stop-color="white"/>
</linearGradient>
<linearGradient id="paint6_linear_9_3135" x1="2151.32" y1="780.235" x2="2151.32" y2="172.217" gradientUnits="userSpaceOnUse">
<stop stop-color="white" stop-opacity="0"/>
<stop offset="1" stop-color="white"/>
</linearGradient>
<linearGradient id="paint7_linear_9_3135" x1="1861.71" y1="941.803" x2="1861.71" y2="461.7" gradientUnits="userSpaceOnUse">
<stop stop-color="white" stop-opacity="0"/>
<stop offset="1" stop-color="white"/>
</linearGradient>
<linearGradient id="paint8_linear_9_3135" x1="1581.65" y1="344.995" x2="1581.65" y2="233.971" gradientUnits="userSpaceOnUse">
<stop stop-color="white" stop-opacity="0"/>
<stop offset="1" stop-color="white"/>
</linearGradient>
<linearGradient id="paint9_linear_9_3135" x1="1262.29" y1="290.088" x2="1262.29" y2="228.399" gradientUnits="userSpaceOnUse">
<stop stop-color="white" stop-opacity="0"/>
<stop offset="1" stop-color="white"/>
</linearGradient>
<clipPath id="clip0_9_3135">
<rect width="1920" height="1080" fill="white"/>
</clipPath>
</defs>
</svg>
