<svg width="171" height="148" viewBox="0 0 171 148" fill="none" xmlns="http://www.w3.org/2000/svg">
<g filter="url(#filter0_d_79_9576)">
<path d="M64.6197 67.5831C62.3277 71.0054 58.9351 73.5417 55.0041 74.7715C46.3127 77.4882 37.0052 73.2031 32.4868 65.0159C31.7755 63.7207 31.1969 62.357 30.7597 60.9456C30.2675 59.3452 29.9544 57.6952 29.8261 56.0257C29.5746 52.8094 29.7916 49.5735 30.4703 46.4195C30.6663 45.4859 30.8904 44.5524 31.1611 43.6748C31.6074 42.1469 32.1691 40.6552 32.8415 39.2124C35.026 34.5447 38.2935 30.8104 42.4198 29.5315C48.0958 27.7577 54.1639 30.9692 58.9717 36.0664C62.0045 39.2811 64.4389 43.0116 66.16 47.0823C66.5241 47.9412 66.8322 48.8 67.0936 49.6496C67.2965 50.281 67.4647 50.923 67.5977 51.5727C67.8371 52.692 67.99 53.8281 68.0552 54.9708C68.319 59.4374 67.1123 63.8674 64.6197 67.5831V67.5831Z" fill="#FDB41B"/>
<path d="M57.1793 41.1075C56.4913 41.382 55.7443 41.4746 55.0101 41.3765C54.2759 41.2784 53.5794 40.9928 52.9876 40.5474C51.8067 39.7475 50.779 38.7419 49.9536 37.5787C50.0301 38.7694 49.98 39.9648 49.8042 41.1449C49.8042 41.3503 49.7109 41.5463 49.6642 41.7517C49.5018 42.4347 49.1875 43.0723 48.7447 43.617C48.3018 44.1617 47.7417 44.5995 47.1062 44.8978C46.3716 45.1394 45.5867 45.1856 44.8288 45.0317C44.0709 44.8779 43.3661 44.5292 42.7839 44.0202C41.5796 43.0867 41.1782 41.6583 40.562 40.286C39.4761 41.2672 38.4852 42.3487 37.6027 43.5161C37.1552 44.0821 36.5887 44.5428 35.9434 44.8654C35.2981 45.1881 34.5897 45.3649 33.8684 45.3832C33.7271 45.3706 33.5868 45.3488 33.4483 45.3179C32.5007 45.0897 31.6799 44.5 31.1611 43.6748C31.6074 42.1469 32.1692 40.6552 32.8415 39.2124C35.026 34.5447 38.2935 30.8104 42.4198 29.5315C48.0958 27.7577 54.1639 30.9692 58.9717 36.0664C59.0477 36.2875 59.1008 36.5159 59.1304 36.7479C59.2905 37.5869 59.1892 38.4548 58.8403 39.2345C58.4914 40.0141 57.9116 40.6679 57.1793 41.1075V41.1075Z" fill="#336E91"/>
<path d="M68.0645 54.9432C67.2155 56.0784 66.252 57.1232 65.1892 58.0613C62.3856 60.5371 59.094 62.3975 55.5269 63.5226C52.8539 64.3667 50.0955 64.9114 47.3023 65.147C44.9332 65.34 42.5547 65.393 40.1793 65.3057C38.7696 65.3057 37.3786 65.1843 35.9596 65.0816C34.8767 64.9883 33.6444 65.0816 32.4868 65.0069C31.7756 63.7118 31.1969 62.3481 30.7597 60.9366C30.2676 59.3363 29.9545 57.6862 29.8262 56.0168C32.6234 57.3477 35.6081 58.2419 38.6763 58.6681C42.026 59.1345 45.4314 59.0144 48.74 58.3133C55.7125 56.7794 61.8977 52.7819 66.1601 47.0547C66.5242 47.9136 66.8323 48.7724 67.0936 49.622C67.2965 50.2534 67.4648 50.8954 67.5978 51.5451C67.8403 52.6641 67.9963 53.8002 68.0645 54.9432V54.9432Z" fill="#336E91"/>
<g style="mix-blend-mode:multiply" opacity="0.5">
<path d="M64.6197 67.5826C62.3277 71.0049 58.9351 73.5412 55.0041 74.771C46.3127 77.4876 37.0052 73.2026 32.4868 65.0153C31.7755 63.7202 31.1969 62.3565 30.7597 60.9451C30.2675 59.3447 29.9544 57.6946 29.8261 56.0252C29.5746 52.8088 29.7916 49.573 30.4703 46.419C30.6663 45.4854 30.8904 44.5518 31.1611 43.6743C31.6074 42.1464 32.1691 40.6547 32.8415 39.2119C32.9049 41.2538 33.0951 43.2897 33.411 45.308C33.495 45.9335 33.6164 46.5403 33.7284 47.1751C34.5161 51.3306 36.205 55.2628 38.6762 58.6952C39.6468 59.9881 40.7653 61.1631 42.009 62.196C43.5863 63.4828 45.3782 64.4815 47.3023 65.146C50.896 66.4942 54.8755 66.3768 58.3835 64.8193C61.2963 63.3197 63.6736 60.9555 65.1892 58.051C65.8004 56.9678 66.3098 55.8302 66.7108 54.6529C67.0817 53.6324 67.3934 52.5913 67.6444 51.5348C67.8838 52.6541 68.0367 53.7902 68.1018 54.933C68.3602 59.4173 67.1367 63.8622 64.6197 67.5826V67.5826Z" fill="#FDB41B"/>
</g>
<g style="mix-blend-mode:multiply" opacity="0.5">
<path d="M64.6197 67.5816C62.3277 71.0039 58.9351 73.5402 55.0041 74.77C46.3127 77.4866 37.0052 73.2016 32.4868 65.0144C31.7755 63.7192 31.1969 62.3555 30.7597 60.9441C30.2675 59.3437 29.9544 57.6937 29.8261 56.0242C29.5746 52.8079 29.7916 49.572 30.4703 46.418C30.6663 47.3515 30.8904 48.2851 31.1331 49.2186C31.9052 52.1795 33.0206 55.04 34.4566 57.742C35.9306 60.5548 37.8649 63.1012 40.1792 65.2758C40.4686 65.5558 40.7674 65.8079 41.0661 66.0693C46.1446 70.317 53.3424 72.3428 59.6158 70.2329C61.4158 69.6248 63.1056 68.7295 64.6197 67.5816V67.5816Z" fill="#FDB41B"/>
</g>
<g style="mix-blend-mode:screen" opacity="0.5">
<path d="M48.3293 37.9323C48.8349 39.7759 49.7983 41.4619 51.1299 42.8335C51.8767 43.7245 52.8708 44.3742 53.9866 44.7006C54.5518 44.8701 55.1568 44.8516 55.7107 44.6479C56.2645 44.4443 56.7373 44.0663 57.058 43.571C57.3504 42.888 57.4222 42.1309 57.2634 41.4051C56.8124 38.5329 55.2624 35.9485 52.941 34.1981C52.0728 33.5446 49.9817 32.247 48.8614 33.0778C47.7411 33.9087 48.0305 36.728 48.3293 37.9323Z" fill="#FDB41B"/>
</g>
<g style="mix-blend-mode:screen" opacity="0.5">
<path d="M57.3007 46.5305C57.4416 47.1415 57.7593 47.6976 58.2142 48.1292C58.6691 48.5609 59.241 48.849 59.8587 48.9577C60.1363 49.0118 60.4222 49.0082 60.6984 48.9472C60.9746 48.8862 61.2353 48.769 61.4644 48.6029C61.7613 48.2647 61.9724 47.8598 62.0796 47.4227C62.1869 46.9855 62.1872 46.529 62.0805 46.0917C62.0512 45.4108 61.8059 44.7569 61.3804 44.2246C61.0016 43.8935 60.5532 43.652 60.0684 43.5178C59.5835 43.3837 59.0747 43.3604 58.5797 43.4497C57.4688 43.8325 57.058 45.5409 57.3007 46.5305Z" fill="#FDB41B"/>
</g>
<path d="M135.831 37.2055C136.158 38.4804 136.358 39.7843 136.429 41.0984C136.462 41.7453 136.462 42.3933 136.429 43.0402C136.342 48.0725 134.378 52.8906 130.921 56.5487C128.57 59.0207 125.566 60.7752 122.258 61.6086C114.388 63.5784 106.322 59.9375 101.869 53.1039C100.513 51.0507 99.518 48.7805 98.928 46.3917C98.7973 45.8502 98.6853 45.2807 98.5919 44.7113C98.1026 41.3411 98.1941 37.9121 98.8627 34.5729C98.9374 34.1434 99.0401 33.6953 99.1334 33.2659C99.5536 31.4286 100.119 29.6274 100.823 27.8793C101.859 25.2636 103.291 22.8232 105.071 20.6442C106.913 18.256 109.466 16.5138 112.362 15.6684C117.842 14.2961 123.443 17.4608 127.85 22.3713C128.186 22.7354 128.512 23.1182 128.783 23.5009C131.268 26.5509 133.253 29.9761 134.664 33.6486C135.132 34.8069 135.522 35.9952 135.831 37.2055Z" fill="#FD811B"/>
<path d="M127.859 22.4277C127.857 22.9817 127.788 23.5334 127.654 24.0708C127.543 24.5175 127.406 24.957 127.243 25.3871C126.878 26.3836 126.317 27.2964 125.592 28.0712C124.867 28.8459 123.993 29.4666 123.023 29.8962C122.61 30.0605 122.177 30.1704 121.735 30.2229C120.893 30.3303 120.038 30.2474 119.233 29.9802C119.957 28.8766 120.286 27.5604 120.166 26.246C120.166 26.1806 120.166 26.1059 120.166 26.0406C119.959 25.2258 119.448 24.5211 118.738 24.0708C118.454 23.8802 118.131 23.7568 117.793 23.7098C117.454 23.6629 117.109 23.6936 116.784 23.7998C116.46 23.906 116.163 24.0848 115.918 24.3226C115.672 24.5604 115.484 24.851 115.368 25.1724C115.178 25.6828 115.097 26.2274 115.131 26.7709C115.165 27.3144 115.312 27.8448 115.564 28.3278C116.061 29.2158 116.79 29.9516 117.674 30.4563C116.804 31.8322 115.664 33.0169 114.322 33.9385C113.556 34.4737 112.691 34.8517 111.778 35.0504C110.864 35.2491 109.921 35.2646 109.001 35.0961C108.354 34.9639 107.739 34.7071 107.19 34.3399C107.987 33.3404 108.377 32.0766 108.282 30.8017C108.278 30.3124 108.127 29.8355 107.85 29.4328C107.572 29.0301 107.179 28.7199 106.723 28.5425C106.289 28.4467 105.835 28.4951 105.431 28.6804C105.027 28.8657 104.694 29.1778 104.483 29.5694C104.133 30.2654 104.044 31.0633 104.231 31.8193C104.44 32.7863 104.915 33.6756 105.603 34.3866C105.139 34.7692 104.598 35.0463 104.016 35.1988C103.818 35.258 103.615 35.2986 103.409 35.3201C102.575 35.3944 101.737 35.2326 100.991 34.8533C100.249 34.4834 99.6087 33.9388 99.1241 33.2663C99.0308 33.6957 98.9281 34.1438 98.8534 34.5733C99.5026 35.2417 100.294 35.7554 101.169 36.0763C101.93 36.3637 102.749 36.4692 103.559 36.3844C103.772 36.3638 103.984 36.3295 104.193 36.2817C105.032 36.0803 105.81 35.6801 106.462 35.1147C107.162 35.6142 107.956 35.9667 108.796 36.151C109.868 36.3826 110.979 36.3666 112.045 36.1043C113.075 35.8549 114.054 35.4284 114.939 34.844C116.44 33.8079 117.711 32.473 118.673 30.9231C119.867 31.3617 121.161 31.4555 122.407 31.1938C122.756 31.1301 123.097 31.03 123.425 30.8951C125.274 30.1078 126.792 28.7018 127.719 26.9181C128.16 26.0998 128.493 25.2273 128.708 24.3228C128.764 24.0708 128.811 23.8187 128.848 23.5573C128.522 23.1372 128.195 22.7918 127.859 22.4277ZM106.387 33.6304C105.843 33.0779 105.467 32.3816 105.304 31.6232C105.162 31.1191 105.212 30.5804 105.444 30.1109C105.591 29.8549 105.832 29.6671 106.116 29.5881C106.227 29.56 106.342 29.56 106.453 29.5881C106.929 29.7188 107.181 30.3443 107.237 30.9044C107.288 31.8798 106.979 32.8402 106.369 33.6024L106.387 33.6304ZM118.262 29.5788C117.525 29.1638 116.919 28.5489 116.516 27.805C116.335 27.4615 116.228 27.0841 116.2 26.6968C116.173 26.3094 116.227 25.9207 116.358 25.5551C116.416 25.3777 116.517 25.2166 116.65 25.0852C116.783 24.9538 116.945 24.8557 117.123 24.799H117.207C117.533 24.7516 117.865 24.8246 118.141 25.0043C118.386 25.1651 118.596 25.3751 118.757 25.6209C118.917 25.8667 119.026 26.1431 119.074 26.4327C119.144 27.5348 118.853 28.6296 118.243 29.5508L118.262 29.5788Z" fill="#FDB41B"/>
<path d="M135.831 37.206C136.158 38.4809 136.358 39.7848 136.429 41.0989C136.462 41.7458 136.462 42.3939 136.429 43.0407C135.725 43.8919 134.954 44.6848 134.123 45.412L133.572 45.8974C128.987 49.6237 123.523 52.1115 117.702 53.1231C115.072 53.6104 112.403 53.8511 109.729 53.842C107.092 53.8308 104.462 53.584 101.869 53.1044C100.513 51.0513 99.5179 48.7811 98.928 46.3922C98.7973 45.8507 98.6853 45.2813 98.5919 44.7118C100.106 45.4991 101.751 46.0052 103.446 46.2055C103.68 46.2055 103.913 46.2615 104.137 46.2802C105.445 46.3875 106.76 46.3875 108.067 46.2802C109.309 46.1961 110.56 46.0188 111.802 45.8321C116.834 45.0665 121.875 43.8716 126.337 41.435C129.756 39.615 132.649 36.9468 134.739 33.6865C135.18 34.8344 135.545 36.0101 135.831 37.206V37.206Z" fill="#FDB41B"/>
<g style="mix-blend-mode:multiply" opacity="0.5">
<path d="M136.41 41.0987C136.443 41.7456 136.443 42.3936 136.41 43.0405C136.324 48.0728 134.359 52.8909 130.902 56.549C128.551 59.021 125.547 60.7755 122.239 61.6089C114.388 63.5787 106.322 59.9378 101.869 53.1042C100.513 51.051 99.518 48.7808 98.928 46.392C98.7973 45.8505 98.6853 45.281 98.5919 44.7116C98.1026 41.3414 98.1941 37.9124 98.8627 34.5732C98.9374 34.1437 99.0401 33.6956 99.1334 33.2662C99.5536 31.4289 100.119 29.6277 100.823 27.8796C101.859 25.2639 103.291 22.8235 105.071 20.6445C104.334 23.9177 103.906 27.2526 103.792 30.6056C103.753 32.131 103.831 33.6571 104.025 35.1706C104.025 35.5347 104.109 35.8895 104.165 36.2536C104.662 39.8551 105.984 43.2931 108.03 46.2986C108.208 46.5693 108.404 46.8307 108.609 47.0921C110.905 50.0531 114.115 52.1731 117.739 53.1229C119.789 53.6545 121.936 53.6929 124.003 53.2349C128.279 52.2453 131.78 49.1086 134.16 45.4117L134.356 45.113C135.14 43.8279 135.826 42.486 136.41 41.0987V41.0987Z" fill="#FD811B"/>
</g>
<g style="mix-blend-mode:multiply" opacity="0.5">
<path d="M130.958 56.5493C128.607 59.0213 125.603 60.7759 122.295 61.6092C114.388 63.579 106.322 59.9381 101.869 53.1045C100.513 51.0513 99.518 48.7811 98.928 46.3923C98.7973 45.8508 98.6853 45.2813 98.5919 44.7119C98.1026 41.3417 98.1941 37.9127 98.8627 34.5735C98.9374 34.144 99.0401 33.6959 99.1334 33.2665C99.5536 31.4292 100.119 29.628 100.823 27.8799C100.767 29.2989 100.767 30.6805 100.823 32.1276C100.823 33.0611 100.935 33.948 101.038 34.8535C101.038 35.2643 101.113 35.6751 101.178 36.0765C101.616 39.6135 102.615 43.058 104.137 46.2802C104.893 47.8531 105.806 49.3451 106.863 50.7333C107.738 51.8646 108.723 52.906 109.804 53.842C111.713 55.6045 113.965 56.955 116.42 57.8094C118.874 58.6639 121.477 59.004 124.069 58.8085C126.492 58.5184 128.834 57.7505 130.958 56.5493V56.5493Z" fill="#FD811B"/>
</g>
<g style="mix-blend-mode:screen" opacity="0.5">
<path d="M120.036 24.7992C120.136 26.7114 120.717 28.5673 121.725 30.1952C122.259 31.2353 123.087 32.0956 124.106 32.6691C124.619 32.9431 125.206 33.0447 125.781 32.9589C126.356 32.8732 126.888 32.6046 127.299 32.193C127.734 31.5892 127.969 30.8645 127.971 30.1205C128.14 27.2386 127.19 24.4026 125.32 22.204C124.61 21.3731 122.846 19.646 121.585 20.2155C120.325 20.785 119.998 23.5576 120.036 24.7992Z" fill="#FD811B"/>
</g>
<g style="mix-blend-mode:screen" opacity="0.5">
<path d="M126.925 35.1433C126.933 35.7769 127.128 36.3939 127.487 36.9159C127.847 37.4379 128.353 37.8413 128.942 38.0747C129.2 38.19 129.48 38.2496 129.763 38.2496C130.047 38.2496 130.326 38.19 130.585 38.0747C130.951 37.8095 131.248 37.4595 131.449 37.0547C131.651 36.6499 131.752 36.2023 131.743 35.7501C131.872 35.0694 131.777 34.3651 131.472 33.743C131.169 33.3319 130.778 32.9942 130.327 32.755C129.876 32.5158 129.377 32.3812 128.867 32.3613C127.672 32.5387 126.935 34.1257 126.925 35.1433Z" fill="#FD811B"/>
</g>
<path d="M137.11 48.8369C139.547 37.8864 141.993 26.8144 141.862 15.6024C141.908 14.5907 141.746 13.5803 141.386 12.6337C141.193 12.1655 140.87 11.7625 140.454 11.4729C140.039 11.1832 139.549 11.0191 139.043 11C137.848 11.0653 137.008 12.1576 136.373 13.1658C133.121 18.4436 130.952 24.3151 129.99 30.4389C129.029 36.5628 129.294 42.8167 130.771 48.8369C131.117 50.1999 132.274 49.7145 133.665 49.9012C134.283 50.029 134.922 49.9985 135.525 49.8124C136.127 49.6263 136.673 49.2907 137.11 48.8369V48.8369Z" fill="#75C195"/>
<path d="M42.7 72.5586C38.2742 60.0131 30.8372 48.7454 21.0415 39.7442C19.7159 38.5212 17.7741 37.2889 16.2524 38.2598C14.9827 39.0627 14.9361 40.8738 15.1414 42.3581C16.047 48.8463 19.2117 54.8771 23.254 60.0116C27.2963 65.1462 32.2255 69.5432 37.1546 73.8562C37.5518 74.2723 38.0508 74.5775 38.6021 74.7417C39.1534 74.9059 39.738 74.9233 40.2982 74.7922C40.8583 74.6611 41.3745 74.3861 41.7957 73.9944C42.2169 73.6026 42.5286 73.1077 42.7 72.5586Z" fill="#75C195"/>
<path d="M65.6094 74.4164C59.2662 62.7196 55.8967 49.6424 55.7977 36.3367C55.7977 34.535 56.1618 32.2664 57.9076 31.7903C59.3546 31.3982 60.7082 32.5652 61.6978 33.7228C65.8988 38.7453 68.2327 45.1215 69.3436 51.5723C70.4545 58.0232 70.3985 64.6421 70.2772 71.1769C70.3175 71.7485 70.2085 72.3208 69.9609 72.8375C69.7133 73.3543 69.3355 73.7978 68.8648 74.1245C68.394 74.4512 67.8464 74.6499 67.2757 74.7011C66.705 74.7522 66.1307 74.6541 65.6094 74.4164Z" fill="#75C195"/>
<path d="M107.647 62.7748C108.419 49.4921 105.915 36.2233 100.356 24.135C99.6 22.4919 98.293 20.6061 96.5193 20.9142C95.0349 21.1663 94.2881 22.7813 93.9054 24.2657C92.2343 30.6045 92.8224 37.3354 94.5682 43.6836C96.3139 50.0318 99.1519 55.9412 102.037 61.8319C102.243 62.3678 102.585 62.8407 103.03 63.204C103.475 63.5673 104.007 63.8084 104.573 63.9036C105.139 63.9987 105.721 63.9447 106.26 63.7468C106.799 63.5488 107.277 63.2138 107.647 62.7748V62.7748Z" fill="#75C195"/>
<path d="M102.802 50.8724C103.559 55.0019 103.105 59.262 101.495 63.1393C100.219 66.1633 98.1987 68.8158 95.623 70.8505C93.3454 72.6561 90.6589 73.8743 87.7999 74.398C84.1879 75.001 80.4787 74.5463 77.1194 73.0886C73.7601 71.6309 70.8942 69.2326 68.8674 66.1827C67.1152 63.6645 65.9245 60.7991 65.3759 57.7807C65.2639 57.1552 65.1705 56.5111 65.1145 55.8483C64.791 50.578 65.7521 45.308 67.9152 40.4913C67.9805 40.3233 68.0459 40.1552 68.1299 39.9872C69.2831 37.4087 70.8155 35.0173 72.6763 32.8922C74.7338 30.4129 77.5531 28.6832 80.6955 27.9723C85.8394 27.0388 90.8246 29.9421 94.7829 34.5072C98.6261 38.9842 101.324 44.3281 102.643 50.0789C102.699 50.3123 102.802 50.5924 102.802 50.8724Z" fill="#92CFE1"/>
<path d="M94.7829 34.4606C94.4373 35.2419 93.8343 35.8812 93.0744 36.2717C92.2184 36.7397 91.2476 36.9565 90.2738 36.8971C89.3494 36.8296 88.4449 36.5956 87.6038 36.2063C86.7798 35.8418 85.9868 35.4109 85.2326 34.918C85.3589 35.5224 85.3649 36.1458 85.2502 36.7525C85.1356 37.3592 84.9026 37.9374 84.5645 38.4541C84.2264 38.9707 83.7899 39.4157 83.2798 39.7637C82.7697 40.1116 82.1961 40.3557 81.5917 40.482C80.9873 40.6083 80.364 40.6143 79.7573 40.4996C79.1505 40.385 78.5724 40.152 78.0557 39.8139C77.539 39.4758 77.094 39.0393 76.7461 38.5292C76.3981 38.0191 76.154 37.4455 76.0277 36.8411C74.8235 38.2601 73.5352 39.7445 71.7894 40.3793C71.5425 40.4632 71.2898 40.5287 71.0332 40.5753C70.0205 40.7228 68.9887 40.4972 68.1299 39.9405C69.2831 37.3621 70.8155 34.9706 72.6763 32.8455C74.7338 30.3662 77.5531 28.6366 80.6955 27.9257C85.8394 27.0201 90.8246 29.9328 94.7829 34.4606Z" fill="#CC454C"/>
<path d="M102.802 50.872C103.559 55.0014 103.105 59.2616 101.495 63.1389C96.6881 65.8701 91.3667 67.5739 85.8673 68.1427C82.9308 68.4558 79.9683 68.437 77.0359 68.0867C74.249 67.7706 71.506 67.1444 68.858 66.2196C67.1058 63.7014 65.9151 60.8361 65.3665 57.8176C65.2545 57.1922 65.1611 56.548 65.1051 55.8852C66.5996 57.0916 68.3016 58.0154 70.1276 58.6112C71.3134 59.0406 72.5266 59.3899 73.7591 59.6567L74.6927 59.8528C80.2083 61.0818 85.9508 60.8305 91.338 59.1246C96.0881 57.5491 100.114 54.3186 102.681 50.0225C102.699 50.3119 102.802 50.5919 102.802 50.872Z" fill="#CC454C"/>
<path d="M75.2716 47.5589C75.3859 48.0554 75.3505 48.5748 75.1697 49.0512C74.9889 49.5276 74.671 49.9397 74.256 50.2354C73.841 50.5311 73.3476 50.6972 72.8383 50.7125C72.329 50.7279 71.8265 50.5919 71.3945 50.3217C70.9625 50.0515 70.6202 49.6593 70.4111 49.1946C70.202 48.7299 70.1353 48.2137 70.2195 47.7111C70.3038 47.2086 70.5351 46.7423 70.8844 46.3712C71.2336 46.0001 71.685 45.741 72.1815 45.6264C72.5114 45.5491 72.8533 45.5377 73.1875 45.5931C73.5217 45.6485 73.8417 45.7696 74.1289 45.9492C74.4162 46.1288 74.6651 46.3636 74.8612 46.6398C75.0573 46.9161 75.1968 47.2284 75.2716 47.5589Z" fill="#CC454C"/>
<path d="M86.2875 48.9769C86.4018 49.4735 86.3663 49.9928 86.1856 50.4692C86.0048 50.9456 85.6868 51.3578 85.2718 51.6535C84.8569 51.9492 84.3635 52.1152 83.8542 52.1306C83.3448 52.1459 82.8424 52.0099 82.4104 51.7397C81.9783 51.4695 81.6361 51.0773 81.427 50.6126C81.2178 50.148 81.1512 49.6317 81.2354 49.1292C81.3196 48.6266 81.551 48.1603 81.9002 47.7893C82.2495 47.4182 82.7009 47.159 83.1974 47.0445C83.5272 46.9684 83.8687 46.958 84.2025 47.014C84.5363 47.0699 84.8558 47.1911 85.1428 47.3705C85.4297 47.55 85.6785 47.7842 85.8749 48.0598C86.0713 48.3355 86.2115 48.6471 86.2875 48.9769Z" fill="#CC454C"/>
<path d="M96.3978 44.6089C96.5122 45.1054 96.4767 45.6248 96.2959 46.1012C96.1151 46.5776 95.7972 46.9897 95.3822 47.2854C94.9672 47.5811 94.4739 47.7472 93.9645 47.7625C93.4552 47.7779 92.9528 47.6419 92.5207 47.3717C92.0887 47.1015 91.7465 46.7093 91.5373 46.2446C91.3282 45.7799 91.2615 45.2637 91.3458 44.7611C91.43 44.2586 91.6614 43.7923 92.0106 43.4212C92.3598 43.0501 92.8112 42.791 93.3077 42.6764C93.9736 42.5253 94.6722 42.6437 95.2511 43.0058C95.83 43.3678 96.2422 43.9441 96.3978 44.6089V44.6089Z" fill="#CC454C"/>
<g style="mix-blend-mode:multiply" opacity="0.5">
<path d="M103.166 54.523C103.223 57.48 102.657 60.4159 101.504 63.1397C100.228 66.1637 98.208 68.8162 95.6323 70.8509C93.3546 72.6565 90.6681 73.8747 87.8091 74.3984C84.1972 75.0015 80.488 74.5467 77.1287 73.089C73.7694 71.6314 70.9035 69.233 68.8767 66.1831C67.1245 63.6649 65.9338 60.7995 65.3852 57.7811C65.2731 57.1556 65.1798 56.5115 65.1238 55.8487C64.8002 50.5784 65.7613 45.3085 67.9244 40.4917C67.9898 40.3237 68.0551 40.1556 68.1392 39.9876C69.2924 37.4091 70.8248 35.0177 72.6856 32.8926C71.9743 35.4116 71.4317 37.9752 71.0612 40.5664C70.9398 41.3692 70.8651 42.1908 70.7905 43.003C70.6924 44.214 70.6643 45.4296 70.7064 46.6438C70.7298 47.7564 70.8233 48.8665 70.9865 49.9673C70.9865 49.9673 70.9865 49.9673 70.9865 49.9673C71.4063 53.4566 72.6337 56.8001 74.5713 59.7323L74.6554 59.863C77.9788 64.6054 83.8602 67.7515 89.5922 66.7993C94.0359 66.0524 97.8168 62.9997 100.421 59.3308C101.477 57.813 102.396 56.204 103.166 54.523V54.523Z" fill="#92CFE1"/>
</g>
<g style="mix-blend-mode:multiply" opacity="0.5">
<path d="M95.6229 70.8504C93.3452 72.656 90.6587 73.8742 87.7997 74.3979C84.1878 75.001 80.4785 74.5462 77.1193 73.0885C73.76 71.6309 70.8941 69.2325 68.8673 66.1826C67.1151 63.6644 65.9244 60.799 65.3758 57.7806C65.2637 57.1552 65.1704 56.511 65.1144 55.8482C64.7908 50.5779 65.7519 45.308 67.915 40.4912C67.7937 41.7702 67.7097 43.0398 67.691 44.3188C67.5225 49.1992 68.3516 54.0626 70.1276 58.6115C70.7825 60.2481 71.6053 61.8123 72.5828 63.2793C73.8193 65.1115 75.3271 66.7452 77.0545 68.1244C79.5551 70.3261 82.6369 71.7611 85.9314 72.2578C89.2259 72.7545 92.5937 72.2918 95.6323 70.9251L95.6229 70.8504Z" fill="#92CFE1"/>
</g>
<g style="mix-blend-mode:screen" opacity="0.5">
<path d="M87.3424 38.1765C87.321 40.0944 87.7868 41.9863 88.696 43.6751C89.1675 44.7434 89.9395 45.6516 90.9179 46.2891C91.4139 46.5936 91.9946 46.7307 92.5745 46.6803C93.1543 46.6299 93.7026 46.3945 94.1386 46.009C94.6133 45.4362 94.8915 44.726 94.9322 43.9832C95.2919 41.1017 94.5188 38.1931 92.7757 35.8706C92.1222 34.9931 90.4698 33.1726 89.1628 33.6581C87.8558 34.1435 87.3797 36.9349 87.3424 38.1765Z" fill="#92CFE1"/>
</g>
<g style="mix-blend-mode:screen" opacity="0.5">
<path d="M93.5879 48.9218C93.5522 49.5482 93.7036 50.1712 94.0227 50.7114C94.3419 51.2516 94.8144 51.6848 95.3803 51.9559C95.631 52.0893 95.9073 52.1675 96.1907 52.1852C96.4741 52.2029 96.758 52.1597 97.0234 52.0585C97.401 51.8169 97.7151 51.4881 97.9393 51.0999C98.1635 50.7116 98.2912 50.2752 98.3117 49.8273C98.4756 49.1508 98.4133 48.4393 98.1343 47.8015C97.8608 47.3691 97.491 47.0058 97.0537 46.7402C96.6164 46.4746 96.1235 46.3138 95.6137 46.2705C94.4934 46.3732 93.6532 47.9042 93.5879 48.9218Z" fill="#92CFE1"/>
</g>
<path d="M155.641 85.9465C155.383 86.2071 155.051 86.382 154.691 86.4471C154.33 86.5123 153.958 86.4646 153.625 86.3106C152.966 85.9898 152.381 85.5351 151.907 84.9756C152.147 85.3883 152.311 85.8403 152.393 86.3106C152.426 86.5418 152.398 86.7777 152.313 86.9953C152.228 87.2129 152.088 87.4047 151.907 87.5522C151.263 87.991 150.404 87.5522 149.779 87.1134C149.188 86.6704 148.624 86.1935 148.089 85.6851C147.145 88.8079 145.838 91.8095 144.196 94.6285C137.969 105.252 127.159 112.515 115.779 117.249C103.176 122.486 88.9949 124.969 75.7478 122.038C75.3612 123.684 74.8204 125.291 74.1328 126.836C73.7407 127.62 73.1992 128.451 72.2656 128.582C71.8879 128.606 71.5113 128.521 71.1803 128.337C70.8494 128.154 70.5781 127.879 70.3985 127.546C70.0431 126.86 69.8635 126.096 69.8757 125.324C69.8548 123.715 70.0335 122.109 70.4079 120.544C60.05 116.818 51.0462 110.074 44.5578 101.182C42.2396 98.0572 40.2352 94.7113 38.5737 91.1931C36.6683 91.9205 34.6146 92.1736 32.5896 91.9306C31.5067 91.7532 30.2557 91.1464 30.1997 90.0635C30.1437 88.9805 31.2359 88.299 32.1788 87.8323C31.2453 87.2068 30.181 86.9547 29.2755 86.3479C28.3699 85.7411 27.6978 84.4808 28.2579 83.5472C28.5585 83.1956 28.9458 82.9288 29.3815 82.7732C29.8171 82.6176 30.2858 82.5787 30.7412 82.6604C32.369 82.7318 33.977 83.0465 35.5116 83.5939C35.3249 83.0431 35.1475 82.5017 34.9795 81.9509C33.7686 78.0632 32.8328 74.0951 32.1788 70.0761C32.1788 70.0761 33.047 70.1507 34.6341 70.2348C37.9109 70.4121 44.2684 70.6175 52.4836 70.2348C51.7105 68.5761 51.1913 66.8106 50.9433 64.9975C50.7566 63.8866 50.8032 62.4863 51.8115 61.9915C52.8197 61.4967 54.0333 62.3649 54.7988 63.2518C56.4743 65.2693 57.9296 67.4601 59.1399 69.7867C72.8028 68.7925 86.2997 66.1821 99.3481 62.0102C98.1158 58.7801 98.1811 54.3177 98.4145 51.3956C98.4226 50.8515 98.5602 50.317 98.8159 49.8366C98.9472 49.598 99.1507 49.407 99.3973 49.2913C99.6439 49.1756 99.9208 49.141 100.188 49.1925C100.758 49.3605 101.038 49.9953 101.224 50.5554C101.802 52.306 102.233 54.1015 102.513 55.9234C102.55 53.7558 103.046 51.6207 103.969 49.6592C104.305 48.9404 104.903 48.1375 105.696 48.3056C106.322 48.4456 106.63 49.1458 106.798 49.7619C107.651 52.7642 107.886 55.9084 107.489 59.0041C118.878 54.3363 129.894 47.9415 139.304 38.998C141.504 42.5176 143.463 46.1824 145.167 49.9673C146.333 48.3704 147.818 47.0323 149.527 46.037C149.831 45.8055 150.187 45.6514 150.565 45.588C150.942 45.5245 151.329 45.5537 151.692 45.673C152.626 46.1584 152.626 47.5401 152.066 48.4736C151.424 49.3037 150.87 50.1985 150.413 51.1436C150.9 50.7832 151.456 50.5288 152.047 50.3967C152.343 50.336 152.651 50.3638 152.932 50.4767C153.212 50.5896 153.453 50.7826 153.625 51.0316C154.017 51.7597 153.522 52.6373 153.009 53.2814C151.618 54.9926 149.941 56.4489 148.052 57.5851C148.964 60.5078 149.589 63.5125 149.919 66.5566C149.919 67.0327 150.012 67.4901 150.04 67.9756C150.199 70.2289 150.199 72.4905 150.04 74.7438C150.04 75.1919 149.984 75.6774 149.947 76.0882C152.54 77.9685 154.528 80.5638 155.669 83.5566C155.869 83.9243 155.971 84.3369 155.966 84.7552C155.961 85.1734 155.849 85.5835 155.641 85.9465V85.9465Z" fill="#C47A4A"/>
<path d="M39.7594 79.4201C43.9524 80.6822 48.3103 81.3115 52.6891 81.2872C57.0553 81.2682 61.4176 81.0251 65.7589 80.559C74.4783 79.7375 83.2163 79.0373 91.721 77.0768C100.255 75.1991 108.416 71.9148 115.872 67.3585C119.6 65.0888 123.138 62.5193 126.449 59.6754C129.777 56.8184 132.868 53.6963 135.691 50.3398C133 53.8082 130.007 57.0321 126.748 59.9741C123.477 62.917 119.967 65.5836 116.255 67.9467C108.789 72.6302 100.581 76.0111 91.9824 77.945C83.3844 79.8121 74.5996 80.559 65.8429 81.2218C61.4697 81.6109 57.0789 81.7667 52.6891 81.6886C48.2873 81.6112 43.9247 80.8458 39.7594 79.4201V79.4201Z" fill="#A85C2A"/>
<path d="M49.3657 97.1209C53.4644 97.9765 57.6576 98.2903 61.838 98.0544C66.0156 97.8137 70.1783 97.3619 74.3103 96.7008C82.6104 95.6553 90.827 94.0301 98.9001 91.837C102.92 90.7226 106.86 89.3346 110.691 87.6827C114.513 86.009 118.184 84.0068 121.66 81.6986C125.147 79.4042 128.369 76.7304 131.266 73.726C134.179 70.7241 136.689 67.357 138.735 63.709C134.822 71.2095 129.081 77.6023 122.043 82.296C115.037 87.0023 107.308 90.5281 99.1615 92.7332C91.0391 94.9006 82.7668 96.4608 74.413 97.401C70.2487 97.9737 66.0577 98.3321 61.8567 98.4745C57.6505 98.6009 53.4471 98.1454 49.3657 97.1209V97.1209Z" fill="#A85C2A"/>
<path d="M71.3881 112.628C78.3308 113.048 85.2988 112.602 92.1316 111.302C105.814 108.691 118.586 102.58 129.203 93.5647C131.85 91.3277 134.345 88.9169 136.671 86.3484C139.022 83.7908 141.205 81.084 143.206 78.2451C141.344 81.1928 139.269 84.0008 136.998 86.6471C134.711 89.2965 132.25 91.7914 129.632 94.1155C124.368 98.7471 118.498 102.641 112.184 105.692C105.855 108.685 99.1507 110.811 92.253 112.012C85.3619 113.201 78.3373 113.408 71.3881 112.628V112.628Z" fill="#A85C2A"/>
<path d="M56.3767 95.4033C58.2438 96.701 60.0176 98.0453 61.838 99.3336C63.6584 100.622 65.4602 101.864 67.3273 103.227C63.0115 101.705 59.2148 98.9929 56.3767 95.4033V95.4033Z" fill="#A85C2A"/>
<path d="M115.779 63.2793C116.21 66.3427 116.013 69.4619 115.2 72.4468C114.961 70.9029 114.901 69.3366 115.023 67.779C115.108 66.2558 115.361 64.7467 115.779 63.2793Z" fill="#A85C2A"/>
<path d="M120.67 60.7959C120.845 62.6589 120.845 64.5342 120.67 66.3972C120.537 68.2896 120.224 70.1651 119.737 71.9985C119.559 70.1201 119.559 68.229 119.737 66.3505C119.873 64.4738 120.185 62.614 120.67 60.7959V60.7959Z" fill="#A85C2A"/>
<path d="M97.7705 88.2988C98.0277 91.0601 97.6543 93.8436 96.6783 96.4394C96.5331 95.0659 96.5613 93.6796 96.7623 92.3131C96.9302 90.9383 97.2689 89.5898 97.7705 88.2988V88.2988Z" fill="#A85C2A"/>
<path d="M104.67 85.8525C105.02 87.9903 104.738 90.1839 103.857 92.1634C103.507 90.0256 103.789 87.832 104.67 85.8525V85.8525Z" fill="#A85C2A"/>
<path d="M129.567 89.3164C130.285 92.6648 130.39 96.1158 129.875 99.5015C129.499 97.834 129.295 96.1322 129.269 94.4229C129.196 92.7151 129.296 91.0042 129.567 89.3164V89.3164Z" fill="#A85C2A"/>
<path d="M54.5657 77.6652C55.994 78.7574 57.2543 79.9524 58.5333 81.138C59.8122 82.3236 61.0539 83.5279 62.2675 84.8722C59.0943 83.2212 56.4435 80.7192 54.6124 77.6465L54.5657 77.6652Z" fill="#A85C2A"/>
<path d="M62.1647 77.208C63.5097 78.278 64.7421 79.4823 65.8429 80.8022C66.9761 82.0987 67.971 83.5097 68.8116 85.0125C67.4642 83.9418 66.2315 82.7342 65.1334 81.409C64.0042 80.1127 63.0095 78.7052 62.1647 77.208V77.208Z" fill="#A85C2A"/>
<path d="M125.814 70.9806L125.628 71.2047C127.665 70.8452 129.682 70.3746 131.668 69.795C133.64 69.2082 135.573 68.4973 137.456 67.6665C139.33 66.8263 141.146 65.8594 142.889 64.7725C144.634 63.6597 146.299 62.4276 147.874 61.085C146.529 62.6976 144.986 64.1342 143.281 65.3606C141.581 66.6034 139.754 67.6612 137.829 68.516C135.909 69.3745 133.907 70.0375 131.854 70.4952C129.814 70.9635 127.73 71.22 125.637 71.2607H125.562L125.814 70.9806Z" fill="#A85C2A"/>
<path d="M133.04 61.4125C133.544 59.1159 134.151 56.9034 134.692 54.6629C135.234 52.4223 135.738 50.2098 136.41 47.96C136.483 50.3058 136.225 52.6503 135.645 54.9243C135.085 57.1984 134.208 59.3825 133.04 61.4125V61.4125Z" fill="#A85C2A"/>
<path d="M71.2762 90.2686C73.9369 92.7611 76.5135 95.3004 79.1741 97.737C80.4904 98.9786 81.8441 100.183 83.1884 101.406C83.8402 102.015 84.5326 102.58 85.2609 103.096C85.9923 103.616 86.8371 103.956 87.7255 104.085C86.8019 104.131 85.883 103.928 85.0648 103.497C84.2447 103.068 83.4692 102.558 82.7496 101.975C81.3026 100.864 79.949 99.6694 78.5673 98.4372C75.8683 95.9665 73.4256 93.2298 71.2762 90.2686Z" fill="#A85C2A"/>
<path d="M74.7957 74.5664C76.995 76.4049 79.0777 78.3785 81.0318 80.4758C83.0145 82.5392 84.8694 84.7215 86.5864 87.0107C84.3871 85.1722 82.3044 83.1986 80.3503 81.1013C78.3676 79.0379 76.5127 76.8556 74.7957 74.5664V74.5664Z" fill="#A85C2A"/>
<path d="M114.182 109.024C114.649 106.092 115.265 103.236 115.844 100.351C116.423 97.4664 117.011 94.6097 117.711 91.7344C117.601 97.6647 116.405 103.525 114.182 109.024V109.024Z" fill="#A85C2A"/>
<path d="M41.0944 76.8164C43.2509 79.3183 45.3794 81.7922 47.6292 84.1355C49.8791 86.4787 52.297 88.7099 54.6869 90.9598C49.0044 87.5061 44.3197 82.6315 41.0944 76.8164V76.8164Z" fill="#A85C2A"/>
<g style="mix-blend-mode:multiply" opacity="0.5">
<path d="M155.641 85.9462C155.383 86.2068 155.051 86.3817 154.691 86.4468C154.33 86.512 153.958 86.4643 153.625 86.3103C152.966 85.9895 152.381 85.5348 151.907 84.9753C152.147 85.388 152.311 85.84 152.393 86.3103C152.426 86.5415 152.398 86.7774 152.313 86.995C152.228 87.2126 152.088 87.4044 151.907 87.5519C151.263 87.9907 150.404 87.5519 149.779 87.1131C149.188 86.6701 148.624 86.1932 148.089 85.6848C147.145 88.8076 145.838 91.8092 144.196 94.6282C137.969 105.252 127.159 112.515 115.779 117.248C103.176 122.485 88.9949 124.969 75.7478 122.037C75.3612 123.684 74.8204 125.291 74.1328 126.836C73.7407 127.62 73.1992 128.451 72.2656 128.582C71.8879 128.605 71.5113 128.521 71.1803 128.337C70.8494 128.153 70.5781 127.879 70.3985 127.545C70.0431 126.859 69.8634 126.096 69.8757 125.323C69.8548 123.714 70.0335 122.109 70.4079 120.544C60.05 116.818 51.0462 110.074 44.5578 101.182C42.2396 98.0569 40.2352 94.711 38.5737 91.1928C36.6683 91.9202 34.6146 92.1733 32.5896 91.9303C31.5067 91.7529 30.2557 91.1461 30.1997 90.0632C30.1437 88.9802 31.2359 88.2987 32.1788 87.832C31.2453 87.2065 30.181 86.9544 29.2755 86.3476C28.3699 85.7408 27.6978 84.4805 28.2579 83.547C28.5585 83.1953 28.9458 82.9285 29.3815 82.7729C29.8171 82.6173 30.2858 82.5784 30.7412 82.6601C32.369 82.7315 33.977 83.0462 35.5116 83.5936C35.3249 83.0428 35.1475 82.5014 34.9795 81.9506C33.7686 78.0629 32.8328 74.0948 32.1788 70.0758C32.1788 70.0758 33.047 70.1505 34.6341 70.2345C44.1039 82.1513 56.7473 91.1509 71.108 96.1966C86.5957 101.471 103.978 101.397 119.149 95.2631C132.264 89.9688 143.158 80.3238 150.003 67.9473C150.161 70.2006 150.161 72.4622 150.003 74.7155C150.003 75.1636 149.947 75.6491 149.909 76.0599C152.502 77.9402 154.491 80.5355 155.632 83.5283C155.842 83.8963 155.953 84.3123 155.955 84.736C155.957 85.1597 155.849 85.5766 155.641 85.9462V85.9462Z" fill="#C47A4A"/>
</g>
<g style="mix-blend-mode:multiply" opacity="0.5">
<path d="M155.641 85.9457C155.383 86.2064 155.051 86.3812 154.691 86.4464C154.33 86.5115 153.958 86.4638 153.625 86.3098C152.966 85.989 152.381 85.5344 151.907 84.9748C152.147 85.3875 152.311 85.8396 152.393 86.3098C152.426 86.5411 152.398 86.777 152.313 86.9945C152.228 87.2121 152.088 87.404 151.907 87.5514C151.263 87.9902 150.404 87.5514 149.779 87.1127C149.188 86.6697 148.624 86.1927 148.089 85.6843C147.145 88.8072 145.838 91.8088 144.196 94.6278C137.969 105.252 127.159 112.515 115.779 117.248C103.176 122.485 88.9949 124.968 75.7478 122.037C75.3612 123.684 74.8204 125.29 74.1328 126.835C73.7407 127.62 73.1992 128.45 72.2656 128.581C71.8879 128.605 71.5113 128.52 71.1803 128.336C70.8494 128.153 70.5781 127.878 70.3985 127.545C70.0431 126.859 69.8634 126.096 69.8757 125.323C69.8548 123.714 70.0335 122.108 70.4079 120.543C60.05 116.817 51.0462 110.073 44.5578 101.181C42.2396 98.0564 40.2352 94.7106 38.5737 91.1923C36.6683 91.9198 34.6146 92.1729 32.5896 91.9298C31.5067 91.7524 30.2557 91.1456 30.1997 90.0627C30.1437 88.9798 31.2359 88.2983 32.1788 87.8315C31.2453 87.206 30.181 86.954 29.2755 86.3472C28.3699 85.7403 27.6978 84.4801 28.2579 83.5465C28.5585 83.1949 28.9458 82.928 29.3815 82.7725C29.8171 82.6169 30.2858 82.578 30.7412 82.6596C32.369 82.731 33.977 83.0457 35.5116 83.5932C35.3249 83.0424 35.1475 82.5009 34.9795 81.9501C44.2272 92.8428 56.2117 101.073 69.6984 105.793C85.186 111.068 102.569 110.993 117.739 104.86C131.884 99.1653 143.401 88.4048 150.04 74.6777C150.04 75.1258 149.984 75.6113 149.947 76.0221C152.54 77.9024 154.528 80.4977 155.669 83.4905C155.881 83.8662 155.989 84.2909 155.984 84.7219C155.979 85.1528 155.861 85.5749 155.641 85.9457V85.9457Z" fill="#C47A4A"/>
</g>
<path d="M87.8654 68.665C88.3105 68.7819 88.6967 69.0591 88.95 69.4433C89.2033 69.8275 89.3057 70.2917 89.2377 70.7469C88.7956 70.6374 88.4117 70.3637 88.1641 69.9814C87.9039 69.5952 87.7973 69.1257 87.8654 68.665Z" fill="#DEB86D"/>
<path d="M90.8061 68.9548C90.9719 68.9953 91.1251 69.0762 91.2521 69.1902C91.3792 69.3042 91.4761 69.4478 91.5342 69.6083C91.5844 69.7647 91.597 69.9307 91.5711 70.0929C91.5451 70.2551 91.4813 70.4089 91.3849 70.5418C91.2195 70.5017 91.0668 70.4212 90.9403 70.3075C90.8138 70.1938 90.7176 70.0504 90.6602 69.8903C90.6028 69.7302 90.5861 69.5583 90.6115 69.3901C90.637 69.2219 90.7038 69.0627 90.8061 68.9268V68.9548Z" fill="#DEB86D"/>
<path d="M71.108 66.9199C71.6111 67.3476 72.0018 67.892 72.246 68.5055C72.4901 69.119 72.5802 69.783 72.5084 70.4394C72.0001 70.0292 71.6102 69.4911 71.3788 68.8804C71.1138 68.2631 71.0203 67.5859 71.108 66.9199V66.9199Z" fill="#DEB86D"/>
<path d="M73.7498 66.6211C74.2397 66.9862 74.5733 67.5232 74.6834 68.1241C74.8216 68.7263 74.7213 69.3587 74.4033 69.8885C74.0915 69.4121 73.8759 68.8793 73.7685 68.3202C73.6528 67.7603 73.6465 67.1834 73.7498 66.6211V66.6211Z" fill="#DEB86D"/>
<path d="M41.9998 101.265C42.0148 101.023 42.0925 100.789 42.225 100.586C42.3575 100.383 42.5405 100.218 42.7559 100.107C42.9668 99.9833 43.2069 99.918 43.4514 99.918C43.696 99.918 43.9361 99.9833 44.1469 100.107C43.8976 100.439 43.5791 100.713 43.2134 100.91C42.8412 101.119 42.426 101.241 41.9998 101.265V101.265Z" fill="#DEB86D"/>
<path d="M44.5389 102.844C44.7621 102.089 45.2323 101.432 45.8739 100.977C46.0176 101.177 46.0933 101.419 46.0899 101.666C46.0865 101.913 46.0043 102.152 45.8553 102.349C45.7184 102.562 45.5164 102.725 45.2792 102.815C45.042 102.904 44.7824 102.914 44.5389 102.844V102.844Z" fill="#DEB86D"/>
<path d="M32.8416 79.0561C33.3899 78.9797 33.9486 79.0675 34.4471 79.3084C34.9456 79.5493 35.3615 79.9326 35.6422 80.4098C35.0968 80.4952 34.5384 80.407 34.0458 80.1577C33.54 79.9242 33.1191 79.5392 32.8416 79.0561V79.0561Z" fill="#DEB86D"/>
<path d="M32.4589 74.6582C33.0701 74.7181 33.6552 74.9364 34.1562 75.2917C34.6573 75.647 35.0569 76.1269 35.3155 76.684C34.6996 76.6416 34.1093 76.4211 33.6165 76.0492C33.1063 75.7049 32.7048 75.2224 32.4589 74.6582V74.6582Z" fill="#DEB86D"/>
<path d="M71.556 103.562C71.9656 104.016 72.2404 104.575 72.3495 105.177C72.4796 105.77 72.4375 106.389 72.2282 106.96C71.826 106.503 71.5519 105.948 71.4339 105.351C71.3158 104.754 71.358 104.137 71.556 103.562V103.562Z" fill="#DEB86D"/>
<path d="M74.1421 104.645C74.4194 105.08 74.5412 105.597 74.4876 106.11C74.461 106.627 74.2565 107.118 73.9088 107.501C73.6422 107.061 73.5213 106.548 73.5632 106.035C73.6051 105.522 73.8077 105.036 74.1421 104.645V104.645Z" fill="#DEB86D"/>
<path d="M87.3333 121.486C87.6392 121.871 87.8039 122.349 87.8001 122.84C87.8133 123.336 87.6476 123.819 87.3333 124.203C87.0233 123.817 86.8582 123.335 86.8665 122.84C86.8626 122.349 87.0274 121.871 87.3333 121.486V121.486Z" fill="#DEB86D"/>
<path d="M90.1153 121.495C90.5587 122.115 90.8585 122.826 90.9928 123.577C91.1698 124.32 91.1698 125.093 90.9928 125.836C90.5547 125.213 90.2526 124.504 90.1063 123.756C89.9599 123.008 89.9725 122.238 90.1433 121.495H90.1153Z" fill="#DEB86D"/>
<path d="M148.332 65.0431C148.487 64.5569 148.795 64.134 149.211 63.8378C149.627 63.5416 150.127 63.388 150.638 63.4001C150.478 63.8963 150.147 64.3197 149.704 64.595C149.307 64.888 148.825 65.0452 148.332 65.0431V65.0431Z" fill="#DEB86D"/>
<path d="M148.462 67.4705C148.549 66.9872 148.799 66.5485 149.172 66.2288C149.538 65.9041 150.008 65.7189 150.497 65.7061C150.413 66.1874 150.162 66.6236 149.788 66.9383C149.42 67.2625 148.952 67.4503 148.462 67.4705Z" fill="#DEB86D"/>
<path d="M125.058 48.7148C125.483 48.9156 125.816 49.2689 125.992 49.7044C126.162 50.1332 126.162 50.6106 125.992 51.0394C125.562 50.8412 125.227 50.4826 125.058 50.0405C124.889 49.6148 124.889 49.1405 125.058 48.7148V48.7148Z" fill="#DEB86D"/>
<path d="M127.131 46.251C127.533 46.7616 127.805 47.3623 127.924 48.0014C128.042 48.6405 128.004 49.2988 127.812 49.9198C127.403 49.4127 127.127 48.8119 127.008 48.1714C126.889 47.531 126.931 46.8711 127.131 46.251V46.251Z" fill="#DEB86D"/>
<path d="M112.138 78.4307C112.278 78.8741 112.341 79.3382 112.324 79.803C112.306 80.2684 112.205 80.7267 112.026 81.1566C111.818 80.9911 111.652 80.7788 111.541 80.537C111.431 80.2952 111.379 80.0308 111.39 79.7652C111.401 79.4996 111.474 79.2403 111.604 79.0084C111.734 78.7765 111.917 78.5786 112.138 78.4307V78.4307Z" fill="#DEB86D"/>
<path d="M115.032 78.2998C115.12 79.7493 114.841 81.1976 114.219 82.5101C113.916 81.8079 113.832 81.0308 113.977 80.2798C114.122 79.5289 114.489 78.8389 115.032 78.2998V78.2998Z" fill="#DEB86D"/>
<path d="M126.711 83.1924C126.859 83.5559 126.901 83.9541 126.832 84.3407C126.757 84.725 126.576 85.0807 126.309 85.3676C126.142 85.2199 126.018 85.0304 125.949 84.8187C125.88 84.607 125.869 84.3807 125.917 84.1633C125.954 83.9466 126.046 83.7432 126.186 83.573C126.325 83.4028 126.506 83.2717 126.711 83.1924V83.1924Z" fill="#DEB86D"/>
<path d="M129.539 81.2773C129.707 81.7257 129.707 82.2199 129.539 82.6683C129.39 83.1245 129.082 83.5121 128.671 83.7606C128.509 83.3109 128.505 82.8191 128.662 82.3672C128.818 81.9154 129.124 81.5307 129.53 81.2773H129.539Z" fill="#DEB86D"/>
<path d="M60.1293 88.252C60.6643 88.4487 61.1245 88.8077 61.4456 89.2789C61.787 89.7328 61.9824 90.2797 62.0057 90.8472C61.4691 90.6533 61.0081 90.2936 60.6894 89.8203C60.348 89.3664 60.1526 88.8194 60.1293 88.252V88.252Z" fill="#DEB86D"/>
<path d="M62.1926 87.9531C62.6788 88.1736 63.0854 88.538 63.3576 88.9972C63.6298 89.4564 63.7543 89.9881 63.7143 90.5204C63.2315 90.2957 62.8278 89.9303 62.5563 89.4722C62.2847 89.0141 62.158 88.4846 62.1926 87.9531V87.9531Z" fill="#DEB86D"/>
<path d="M140.415 56.9863C140.546 57.1287 140.645 57.2971 140.706 57.4806C140.767 57.664 140.789 57.8582 140.77 58.0506C140.746 58.2376 140.683 58.4174 140.585 58.5783C140.487 58.7392 140.356 58.8775 140.2 58.9841C140.066 58.8442 139.964 58.6761 139.903 58.492C139.842 58.3079 139.822 58.1125 139.845 57.9199C139.869 57.7329 139.932 57.553 140.03 57.3921C140.128 57.2312 140.26 57.0929 140.415 56.9863Z" fill="#DEB86D"/>
<path d="M142.273 55.6143C142.388 55.7601 142.47 55.929 142.513 56.1095C142.557 56.29 142.561 56.4777 142.525 56.6598C142.484 56.8428 142.404 57.0146 142.289 57.163C142.175 57.3115 142.029 57.4329 141.862 57.5187C141.751 57.3741 141.674 57.2072 141.634 57.0294C141.595 56.8517 141.595 56.6675 141.634 56.4898C141.673 56.312 141.75 56.1449 141.861 56.0001C141.971 55.8553 142.112 55.7364 142.273 55.6516V55.6143Z" fill="#DEB86D"/>
<path d="M121.875 112.859C122.312 113.001 122.694 113.275 122.967 113.644C123.107 113.805 123.22 113.988 123.303 114.185C123.4 114.389 123.466 114.606 123.499 114.829L123.34 114.736C123.275 114.736 123.34 114.82 123.34 114.81C123.354 114.811 123.366 114.808 123.378 114.803C123.39 114.797 123.401 114.79 123.41 114.78C123.419 114.77 123.425 114.759 123.43 114.746C123.434 114.734 123.435 114.721 123.434 114.708C123.508 114.708 123.564 114.82 123.555 114.913C123.551 114.978 123.522 115.038 123.476 115.083C123.429 115.128 123.368 115.154 123.303 115.156L123.154 115.072C122.955 114.961 122.773 114.823 122.612 114.661C122.459 114.512 122.327 114.343 122.22 114.157C122.107 113.974 122.019 113.776 121.959 113.569C121.882 113.341 121.853 113.099 121.875 112.859V112.859Z" fill="#DEB86D"/>
<path d="M123.34 110.013C123.881 110.274 124.335 110.686 124.647 111.198C124.978 111.697 125.156 112.281 125.161 112.879C124.618 112.616 124.158 112.21 123.829 111.705C123.5 111.2 123.315 110.615 123.294 110.013H123.34Z" fill="#DEB86D"/>
<path d="M135.337 102.488C135.896 102.739 136.369 103.148 136.7 103.665C137.048 104.162 137.249 104.748 137.278 105.354C136.726 105.101 136.256 104.697 135.925 104.187C135.573 103.688 135.369 103.099 135.337 102.488V102.488Z" fill="#DEB86D"/>
<path d="M45.5474 69.7207C46.1195 70.0276 46.5607 70.5319 46.789 71.1397C47.0431 71.7316 47.0697 72.3965 46.8637 73.0068C46.4575 72.5644 46.1405 72.0477 45.9301 71.4851C45.6925 70.9264 45.5626 70.3277 45.5474 69.7207V69.7207Z" fill="#DEB86D"/>
<path d="M139.593 75.3127C139.659 75.5637 139.659 75.8272 139.593 76.0782C139.526 76.3185 139.438 76.5527 139.332 76.7784C139.117 77.2172 138.847 77.6279 138.66 77.9733L137.885 79.439L137.801 77.7586C137.779 77.1355 137.801 76.5116 137.866 75.8915C137.924 75.2569 138.053 74.6307 138.249 74.0244C138.451 74.6301 138.586 75.2562 138.65 75.8915C138.716 76.5116 138.738 77.1355 138.716 77.7586L137.857 77.5439C138.126 77.1319 138.439 76.7501 138.791 76.405C139.107 76.0791 139.377 75.7116 139.593 75.3127V75.3127Z" fill="#DEB86D"/>
<path d="M95.5857 100.052C96.0916 100.233 96.5313 100.562 96.8476 100.997C97.164 101.432 97.3423 101.951 97.3594 102.488C96.847 102.326 96.4033 101.998 96.0992 101.555C95.7681 101.123 95.5877 100.595 95.5857 100.052V100.052Z" fill="#DEB86D"/>
<path d="M98.0598 99.8926C98.2337 99.9248 98.3981 99.9962 98.5404 100.101C98.6828 100.206 98.7993 100.343 98.8813 100.499C98.9624 100.658 99.0047 100.834 99.0047 101.013C99.0047 101.191 98.9624 101.367 98.8813 101.526C98.706 101.496 98.5403 101.425 98.3977 101.319C98.255 101.213 98.1394 101.075 98.0602 100.916C97.9811 100.757 97.9406 100.581 97.9422 100.403C97.9437 100.225 97.9872 100.05 98.0691 99.8926H98.0598Z" fill="#DEB86D"/>
<path d="M101.439 79.3916C101.709 79.7295 101.837 80.1594 101.795 80.59C101.753 81.0206 101.545 81.4179 101.215 81.6975C101.08 81.5315 100.979 81.3404 100.919 81.1354C100.858 80.9303 100.838 80.7153 100.86 80.5025C100.9 80.0706 101.108 79.6716 101.439 79.3916V79.3916Z" fill="#DEB86D"/>
</g>
<defs>
<filter id="filter0_d_79_9576" x="0.0493164" y="0" width="170.935" height="147.586" filterUnits="userSpaceOnUse" color-interpolation-filters="sRGB">
<feFlood flood-opacity="0" result="BackgroundImageFix"/>
<feColorMatrix in="SourceAlpha" type="matrix" values="0 0 0 0 0 0 0 0 0 0 0 0 0 0 0 0 0 0 127 0" result="hardAlpha"/>
<feOffset dy="4"/>
<feGaussianBlur stdDeviation="7.5"/>
<feComposite in2="hardAlpha" operator="out"/>
<feColorMatrix type="matrix" values="0 0 0 0 0 0 0 0 0 0 0 0 0 0 0 0 0 0 0.25 0"/>
<feBlend mode="normal" in2="BackgroundImageFix" result="effect1_dropShadow_79_9576"/>
<feBlend mode="normal" in="SourceGraphic" in2="effect1_dropShadow_79_9576" result="shape"/>
</filter>
</defs>
</svg>
