<svg width="103" height="69" viewBox="0 0 103 69" fill="none" xmlns="http://www.w3.org/2000/svg">
<g filter="url(#filter0_d_41_2229)">
<path d="M83.1767 35.5928C75.3456 24.6121 60.0369 11 51.3419 11C42.6468 11 27.3381 24.6121 19.4992 35.5928C11.6603 46.5736 15.0927 52.9751 21.9498 46.5893C28.8069 40.2035 44.9718 29.4113 51.3419 29.4113C57.712 29.4113 73.9082 40.1642 80.7339 46.5658C87.5596 52.9673 91.0156 46.5658 83.1767 35.5928Z" fill="#233D79"/>
<path d="M25.209 33.3071C25.2797 33.1657 25.9944 33.4878 26.2222 33.5349C26.6895 33.7063 27.205 33.6899 27.6605 33.4893C28.116 33.2886 28.476 32.9193 28.665 32.4588C29.2481 30.9208 29.7309 29.3466 30.1103 27.7461C30.3381 26.7328 30.6758 25.7981 31.7283 25.4525C32.743 25.1405 33.8361 25.2047 34.8073 25.6332C35.7656 26.018 36.0248 25.9631 36.3154 25.8217C36.6061 25.6803 36.8338 25.2954 36.8024 25.2247C36.771 25.154 36.5275 25.2247 36.2919 25.1697C36.0562 25.1148 35.7578 24.8948 35.7578 24.7299C35.7578 24.5649 35.9855 24.5335 36.2212 24.5571C36.1906 24.4934 36.185 24.4205 36.2055 24.3529C36.2526 24.1879 36.5746 24.2586 36.8103 24.3529C37.0459 24.4471 37.0616 24.5963 37.1716 24.6278H37.2501C37.4796 24.5177 37.7369 24.4793 37.9885 24.5178C38.3498 24.6278 39.4102 24.4314 39.4808 24.6827C39.5082 24.7435 39.5231 24.8091 39.5249 24.8758C39.5266 24.9424 39.5151 25.0087 39.491 25.0708C39.4669 25.1329 39.4306 25.1897 39.3844 25.2377C39.3382 25.2856 39.2828 25.324 39.2216 25.3504C38.838 25.4777 38.4812 25.6747 38.1691 25.9316C37.8942 26.2065 37.6664 26.2615 37.58 26.6386C37.5766 26.6541 37.5766 26.6702 37.58 26.6857C37.5136 27.1252 37.4768 27.5687 37.4701 28.0131C37.4701 28.4687 37.8549 29.7883 37.4308 30.2281C37.0066 30.668 36.8181 30.3852 37.1087 30.1496C37.3994 29.9139 37.3522 29.4584 37.0302 28.9949C37.0302 29.5683 37.0302 30.6051 36.6375 30.9193C36.2447 31.2335 36.0091 30.9743 36.339 30.7937C36.6689 30.613 36.6925 30.071 36.3861 29.5212C36.1671 29.1717 36.0628 28.7625 36.0876 28.3509C36.0876 28.0524 35.3022 28.7043 35.1608 28.8221C35.0194 28.94 35.1608 29.5448 34.9095 30.1024C35.112 30.7798 35.4606 31.4045 35.9306 31.9326C36.2212 32.2153 37.5565 31.7912 38.232 31.5948C38.9075 31.3985 39.2138 31.6498 38.8132 31.9012C39.1195 31.9012 39.2531 32.0897 38.9546 32.2782C38.5399 32.4783 38.0979 32.6159 37.6429 32.6866C37.0321 32.8718 36.3959 32.9593 35.7578 32.9458C35.42 32.9929 34.2418 31.2728 33.7941 31.0607C32.9035 30.7441 32.0327 30.3742 31.1864 29.9532C30.9586 29.8197 30.668 30.5187 30.4009 31.1628C30.0789 31.9483 29.1599 34.3047 27.0705 34.1004C25.8688 33.9512 25.209 33.425 25.209 33.3071Z" fill="#FF9A3C"/>
<path d="M77.4343 33.3071C77.3636 33.1657 76.6489 33.4877 76.4289 33.5349C75.9605 33.7066 75.4439 33.6904 74.9871 33.4898C74.5304 33.2893 74.1689 32.9198 73.9783 32.4588C73.3952 30.9207 72.9124 29.3465 72.533 27.746C72.3367 26.7092 71.9675 25.7981 70.915 25.4525C69.903 25.1403 68.8122 25.2045 67.8438 25.6331C66.8777 26.018 66.6185 25.963 66.3357 25.8216C66.053 25.6802 65.8095 25.2954 65.8409 25.2247C65.8723 25.154 66.1158 25.2247 66.3514 25.1697C66.5871 25.1147 66.8856 24.8948 66.8856 24.7298C66.8856 24.5649 66.6578 24.5335 66.4221 24.557C66.4456 24.4937 66.4456 24.424 66.4221 24.3607C66.375 24.1957 66.053 24.2664 65.8252 24.3607C65.5974 24.4549 65.566 24.6042 65.456 24.6356H65.3775C65.1506 24.5261 64.896 24.4878 64.647 24.5256C64.2778 24.6356 63.2174 24.4392 63.1467 24.6906C63.1194 24.7513 63.1044 24.817 63.1027 24.8836C63.101 24.9502 63.1125 25.0165 63.1366 25.0786C63.1607 25.1408 63.197 25.1975 63.2432 25.2455C63.2894 25.2935 63.3448 25.3318 63.406 25.3582C63.8024 25.5025 64.1676 25.7211 64.482 26.0023C64.7491 26.2772 64.9769 26.3322 65.0711 26.7092C65.0711 26.7092 65.0711 26.7092 65.0711 26.7563C65.1376 27.1958 65.1743 27.6393 65.1811 28.0838C65.1811 28.5393 64.8041 29.8589 65.1811 30.2988C65.5581 30.7386 65.7938 30.4559 65.5031 30.2202C65.2125 29.9846 65.2675 29.529 65.5817 29.0656C65.5817 29.639 65.5817 30.6758 65.9744 30.99C66.3671 31.3042 66.6028 31.045 66.2807 30.8643C65.9587 30.6836 65.9194 30.1417 66.2258 29.5918C66.4488 29.2441 66.5535 28.8336 66.5242 28.4215C66.5242 28.123 67.3097 28.775 67.4511 28.8928C67.5925 29.0106 67.4511 29.6154 67.7024 30.1731C67.499 30.8484 67.1535 31.4724 66.6892 32.0032C66.3907 32.286 65.0554 31.8618 64.3799 31.6655C63.7044 31.4691 63.3981 31.7205 63.7987 31.9718C63.4924 31.9718 63.3667 32.1603 63.6573 32.3488C64.0722 32.5483 64.5142 32.6859 64.969 32.7573C65.5798 32.9425 66.216 33.0299 66.8541 33.0165C67.1605 32.9222 68.3465 31.2335 68.7864 31.0214C69.677 30.7048 70.5478 30.3349 71.3941 29.9139C71.6219 29.7804 71.9125 30.4794 72.1796 31.1235C72.5016 31.909 73.4206 34.2654 75.5099 34.0611C76.8138 33.9512 77.4972 33.4249 77.4343 33.3071Z" fill="#FF9A3C"/>
<path d="M62.393 15.375C58.3007 12.6966 54.4049 11 51.3415 11C48.2782 11 44.3745 12.6966 40.2822 15.375C41.356 17.3745 42.9511 19.0458 44.8983 20.2116C46.8455 21.3774 49.072 21.9942 51.3415 21.9965C53.6097 21.9928 55.8346 21.3754 57.7803 20.2096C59.726 19.0439 61.3199 17.3733 62.393 15.375V15.375Z" fill="#7F9D3C"/>
<path d="M59.1492 13.4428C56.2666 11.9111 53.5803 11 51.3417 11C49.1032 11 46.4169 11.9111 43.5264 13.4428C44.4366 14.6667 45.6216 15.6598 46.9859 16.3419C48.3502 17.0241 49.8557 17.3763 51.381 17.3701C52.8918 17.3634 54.3803 17.005 55.7287 16.3234C57.077 15.6417 58.2481 14.6555 59.1492 13.4428V13.4428Z" fill="#FF9A3C"/>
<path d="M65.8411 17.8182L64.7808 17.0327C63.6015 19.6073 61.7086 21.7897 59.3266 23.3211C56.9445 24.8525 54.1733 25.6686 51.3415 25.6728C48.5083 25.6702 45.7354 24.8547 43.3519 23.3232C40.9683 21.7917 39.0742 19.6085 37.8944 17.0327L36.834 17.8182C38.1471 20.552 40.2052 22.8597 42.7717 24.4757C45.3381 26.0917 48.3086 26.9505 51.3415 26.9531C54.373 26.949 57.3418 26.0896 59.9068 24.4736C62.4717 22.8577 64.5286 20.5508 65.8411 17.8182V17.8182Z" fill="white"/>
<path d="M21.6277 32.7812C20.8422 33.7317 20.1589 34.6664 19.4991 35.5932C19.0985 36.1509 18.7136 36.7007 18.3916 37.2348C20.1122 39.9035 22.3931 42.1657 25.0759 43.8641C26.3012 42.8745 27.6522 41.8376 29.0818 40.7851C25.9561 38.7954 23.3903 36.0404 21.6277 32.7812V32.7812Z" fill="#7F9D3C"/>
<path d="M22.5391 31.6577C22.2249 32.0269 21.9264 32.4039 21.6279 32.7809C23.3906 36.0401 25.9563 38.7951 29.082 40.7848L30.2209 39.9993C25.3667 36.8182 23.2931 33.2915 22.5391 31.6577Z" fill="white"/>
<path d="M18.3919 37.2344C18.117 37.6585 17.8578 38.0748 17.6064 38.4833C19.3103 40.9751 21.4849 43.1097 24.008 44.767L25.0605 43.8951C22.38 42.1858 20.1044 39.9128 18.3919 37.2344V37.2344Z" fill="white"/>
<path d="M81.0478 32.7812C81.8333 33.7317 82.5245 34.6664 83.1764 35.5932C83.577 36.1509 83.9619 36.7007 84.2839 37.2348C82.5633 39.9035 80.2824 42.1657 77.5996 43.8641C76.3743 42.8745 75.0233 41.8376 73.5938 40.7851C76.7214 38.7978 79.2877 36.0422 81.0478 32.7812V32.7812Z" fill="#7F9D3C"/>
<path d="M80.1447 31.6577C80.451 32.0269 80.7574 32.4039 81.048 32.7809C79.2879 36.0419 76.7216 38.7975 73.594 40.7848L72.4629 39.9993C77.3092 36.8182 79.4064 33.2915 80.1447 31.6577Z" fill="white"/>
<path d="M84.2839 37.2344C84.5588 37.6585 84.818 38.0748 85.0694 38.4833C83.3547 40.9843 81.1633 43.1223 78.6207 44.7748L77.5996 43.8637C80.2824 42.1652 82.5633 39.9031 84.2839 37.2344V37.2344Z" fill="white"/>
<path d="M52.5282 23.8897C52.541 24.0393 52.5225 24.1899 52.4741 24.3319C52.4256 24.474 52.3481 24.6045 52.2466 24.715C52.1451 24.8256 52.0217 24.9139 51.8842 24.9743C51.7468 25.0346 51.5983 25.0658 51.4482 25.0658C51.2981 25.0658 51.1496 25.0346 51.0122 24.9743C50.8747 24.9139 50.7513 24.8256 50.6498 24.715C50.5483 24.6045 50.4708 24.474 50.4223 24.3319C50.3739 24.1899 50.3554 24.0393 50.3682 23.8897C50.3913 23.6192 50.5151 23.3671 50.7151 23.1835C50.915 22.9999 51.1767 22.8979 51.4482 22.8979C51.7197 22.8979 51.9814 22.9999 52.1813 23.1835C52.3813 23.3671 52.5051 23.6192 52.5282 23.8897V23.8897Z" fill="#FFF281"/>
<path d="M56.5184 23.1826C56.52 23.3976 56.4575 23.6082 56.339 23.7877C56.2205 23.9672 56.0513 24.1073 55.8529 24.1903C55.6546 24.2733 55.436 24.2954 55.225 24.2539C55.014 24.2123 54.8201 24.1089 54.6681 23.9568C54.516 23.8048 54.4126 23.6109 54.371 23.3999C54.3295 23.1889 54.3516 22.9703 54.4346 22.772C54.5176 22.5736 54.6578 22.4044 54.8372 22.2859C55.0167 22.1674 55.2273 22.1049 55.4424 22.1065C55.7277 22.1065 56.0015 22.2198 56.2033 22.4217C56.4051 22.6235 56.5184 22.8972 56.5184 23.1826V23.1826Z" fill="#FFF281"/>
<path d="M59.9745 21.7294C59.976 21.9445 59.9136 22.1551 59.7951 22.3346C59.6766 22.514 59.5074 22.6542 59.309 22.7372C59.1106 22.8202 58.892 22.8423 58.681 22.8008C58.47 22.7592 58.2762 22.6558 58.1241 22.5037C57.9721 22.3517 57.8687 22.1578 57.8271 21.9468C57.7855 21.7358 57.8076 21.5172 57.8907 21.3188C57.9737 21.1205 58.1138 20.9513 58.2933 20.8327C58.4727 20.7142 58.6834 20.6518 58.8984 20.6533C59.0397 20.6533 59.1796 20.6812 59.3102 20.7353C59.4408 20.7893 59.5594 20.8686 59.6593 20.9685C59.7592 21.0685 59.8385 21.1871 59.8926 21.3176C59.9467 21.4482 59.9745 21.5881 59.9745 21.7294V21.7294Z" fill="#FFF281"/>
<path d="M62.621 19.3026C62.6225 19.5174 62.5603 19.7277 62.4421 19.907C62.324 20.0863 62.1552 20.2264 61.9573 20.3097C61.7594 20.3929 61.5412 20.4155 61.3304 20.3746C61.1196 20.3336 60.9258 20.231 60.7734 20.0797C60.621 19.9285 60.517 19.7353 60.4745 19.5249C60.4321 19.3144 60.4531 19.0961 60.5349 18.8975C60.6167 18.699 60.7556 18.5293 60.934 18.4098C61.1124 18.2903 61.3223 18.2266 61.537 18.2266C61.8232 18.2266 62.0977 18.3397 62.3007 18.5413C62.5038 18.7428 62.6189 19.0165 62.621 19.3026V19.3026Z" fill="#FFF281"/>
<path d="M63.6972 17.37C63.8755 17.3706 64.0513 17.3272 64.2089 17.2437C64.3664 17.1601 64.5009 17.0389 64.6005 16.8909C64.0035 16.4667 63.4144 16.0504 62.8253 15.6577C62.6938 15.8439 62.6225 16.066 62.6211 16.2939C62.6211 16.4353 62.6489 16.5752 62.703 16.7057C62.7571 16.8363 62.8363 16.9549 62.9363 17.0548C63.0362 17.1548 63.1548 17.234 63.2854 17.2881C63.4159 17.3422 63.5559 17.37 63.6972 17.37Z" fill="#FFF281"/>
<path d="M46.3701 23.1827C46.3574 23.3322 46.3758 23.4828 46.4243 23.6249C46.4728 23.767 46.5502 23.8974 46.6518 24.008C46.7533 24.1186 46.8767 24.2068 47.0141 24.2672C47.1516 24.3276 47.3 24.3588 47.4502 24.3588C47.6003 24.3588 47.7487 24.3276 47.8862 24.2672C48.0236 24.2068 48.147 24.1186 48.2485 24.008C48.3501 23.8974 48.4275 23.767 48.476 23.6249C48.5245 23.4828 48.5429 23.3322 48.5302 23.1827C48.5071 22.9121 48.3833 22.6601 48.1833 22.4765C47.9833 22.2928 47.7217 22.1909 47.4502 22.1909C47.1786 22.1909 46.917 22.2928 46.717 22.4765C46.517 22.6601 46.3932 22.9121 46.3701 23.1827V23.1827Z" fill="#FFF281"/>
<path d="M42.9141 21.7295C42.9013 21.8791 42.9198 22.0297 42.9682 22.1718C43.0167 22.3139 43.0942 22.4443 43.1957 22.5549C43.2972 22.6654 43.4206 22.7537 43.5581 22.8141C43.6955 22.8745 43.844 22.9057 43.9941 22.9057C44.1442 22.9057 44.2927 22.8745 44.4301 22.8141C44.5676 22.7537 44.691 22.6654 44.7925 22.5549C44.894 22.4443 44.9715 22.3139 45.02 22.1718C45.0684 22.0297 45.0869 21.8791 45.0741 21.7295C45.051 21.459 44.9272 21.207 44.7272 21.0233C44.5272 20.8397 44.2656 20.7378 43.9941 20.7378C43.7226 20.7378 43.4609 20.8397 43.261 21.0233C43.061 21.207 42.9372 21.459 42.9141 21.7295Z" fill="#FFF281"/>
<path d="M40.2744 19.3027C40.2729 19.5177 40.3353 19.7284 40.4538 19.9078C40.5723 20.0873 40.7416 20.2274 40.9399 20.3104C41.1383 20.3934 41.3569 20.4156 41.5679 20.374C41.7789 20.3324 41.9727 20.229 42.1248 20.077C42.2769 19.9249 42.3803 19.731 42.4218 19.52C42.4634 19.3091 42.4413 19.0905 42.3583 18.8921C42.2753 18.6937 42.1351 18.5245 41.9557 18.406C41.7762 18.2875 41.5656 18.225 41.3505 18.2266C41.0651 18.2266 40.7914 18.34 40.5896 18.5418C40.3878 18.7436 40.2744 19.0173 40.2744 19.3027V19.3027Z" fill="#FFF281"/>
<path d="M39.1903 17.37C39.0133 17.3694 38.8391 17.3253 38.6831 17.2418C38.527 17.1583 38.3937 17.0378 38.2949 16.8909C38.884 16.4667 39.481 16.0504 40.0622 15.6577C40.1994 15.8415 40.2737 16.0646 40.2743 16.2939C40.2743 16.4359 40.2462 16.5765 40.1916 16.7076C40.1371 16.8386 40.0571 16.9576 39.9563 17.0576C39.8556 17.1577 39.736 17.2368 39.6046 17.2904C39.4731 17.344 39.3323 17.3711 39.1903 17.37V17.37Z" fill="#FFF281"/>
<path d="M60.4929 14.1966C59.6313 15.8526 58.3323 17.2408 56.7369 18.2101C55.1416 19.1795 53.3111 19.693 51.4444 19.6948C49.5653 19.695 47.7225 19.1767 46.1191 18.1969C44.5157 17.2171 43.2137 15.8138 42.3566 14.1416L41.791 14.4636C42.7044 16.2364 44.0885 17.7232 45.7914 18.761C47.4943 19.7988 49.4502 20.3475 51.4444 20.3468C53.4243 20.3457 55.3661 19.8027 57.0594 18.7768C58.7528 17.7508 60.133 16.2809 61.0506 14.5265L60.4929 14.1966Z" fill="white"/>
</g>
<path d="M19.5019 38.392C18.4332 38.7854 17.4366 38.9821 16.5121 38.9821C15.4675 38.9821 14.621 38.7079 13.9726 38.1596C13.3242 37.6112 13 36.735 13 35.5309V29.7909C13 28.8849 13.1261 28.1994 13.3782 27.7345C13.6424 27.2696 14.0386 26.8762 14.5669 26.5543C15.0952 26.2563 15.7436 26.1073 16.5121 26.1073C17.4486 26.1073 18.2951 26.304 19.0516 26.6974L18.4933 28.4856C17.9409 28.2829 17.3346 28.1816 16.6742 28.1816C16.1699 28.1816 15.7616 28.3187 15.4495 28.5928C15.1373 28.867 14.9812 29.2127 14.9812 29.63V35.4952C14.9812 36.4966 15.5455 36.9972 16.6742 36.9972C17.0344 36.9972 17.3946 36.9615 17.7548 36.89C18.115 36.8065 18.5953 36.6873 19.1957 36.5323L19.5019 38.392Z" fill="white"/>
<path d="M28.2494 35.4952C28.2494 36.6992 27.8772 37.5873 27.1327 38.1596C26.4003 38.7199 25.5178 39 24.4852 39C23.8368 39 23.2244 38.8867 22.6481 38.6602C22.0718 38.4218 21.5975 38.0403 21.2252 37.5158C20.865 36.9913 20.6849 36.3177 20.6849 35.4952V29.7373C20.6849 28.5094 21.0211 27.5796 21.6935 26.9477C22.3779 26.3159 23.3145 26 24.5032 26C25.6919 26 26.6104 26.3338 27.2588 27.0014C27.9192 27.669 28.2494 28.5869 28.2494 29.7552V35.4952ZM26.2682 30.3989C26.2682 29.8982 26.2262 29.4869 26.1422 29.1651C26.0581 28.8432 25.884 28.5928 25.6199 28.414C25.3557 28.2233 24.9715 28.1279 24.4672 28.1279C23.9629 28.1279 23.5786 28.2173 23.3145 28.3961C23.0503 28.575 22.8762 28.8253 22.7922 29.1472C22.7081 29.4571 22.6661 29.8684 22.6661 30.381V35.1554C22.6661 35.7276 22.8102 36.1807 23.0984 36.5144C23.3985 36.8363 23.8548 36.9972 24.4672 36.9972C25.0315 36.9972 25.4698 36.8244 25.7819 36.4787C26.1061 36.133 26.2682 35.68 26.2682 35.1197V30.3989Z" fill="white"/>
<path d="M38.5124 32.1871L36.4051 38.8033H34.8923L32.821 32.205V38.8033H30.8399V26.2861H32.821L35.6487 34.5653L38.5124 26.2861H40.4936V38.8033H38.5124V32.1871Z" fill="white"/>
<path d="M51.0179 32.1871L48.9106 38.8033H47.3977L45.3265 32.205V38.8033H43.3453V26.2861H45.3265L48.1542 34.5653L51.0179 26.2861H52.999V38.8033H51.0179V32.1871Z" fill="white"/>
<path d="M55.8508 26.2861H61.8663V28.2531H57.8319V31.4182H60.2994L59.7411 33.2957H57.8319V37.0151H61.8303V38.8033H55.8508V26.2861Z" fill="white"/>
<path d="M66.2041 30.3453V38.8033H64.2229V26.2861H66.2041L71.085 34.6905V26.2861H73.0842V38.8033H71.085L66.2041 30.3453Z" fill="white"/>
<path d="M77.1256 28.271H74.5321V26.2861H81.7723V28.271H79.1068V38.8033H77.1256V28.271Z" fill="white"/>
<path d="M84.5702 35.3164C84.6302 35.8409 84.8464 36.2641 85.2186 36.586C85.5908 36.9078 86.0771 37.0688 86.6774 37.0688C87.1817 37.0688 87.59 36.9853 87.9022 36.8184C88.2264 36.6515 88.4605 36.4489 88.6046 36.2105C88.7487 35.972 88.8207 35.7396 88.8207 35.5131C88.8207 34.9885 88.6886 34.5534 88.4245 34.2077C88.1723 33.8501 87.8541 33.5699 87.4699 33.3673C87.0977 33.1527 86.5874 32.9083 85.939 32.6341C85.2306 32.3361 84.6662 32.0679 84.246 31.8294C83.8378 31.5791 83.4835 31.2453 83.1834 30.8281C82.8952 30.3989 82.7511 29.8565 82.7511 29.2008C82.7511 28.6763 82.9012 28.1816 83.2014 27.7166C83.5016 27.2398 83.9578 26.8524 84.5702 26.5543C85.1826 26.2563 85.933 26.1073 86.8215 26.1073C87.4099 26.1073 87.8962 26.149 88.2804 26.2325C88.6646 26.3159 89.0548 26.453 89.4511 26.6437L88.8207 28.5034C88.3884 28.3604 88.0342 28.2591 87.7581 28.1994C87.4939 28.1398 87.1877 28.11 86.8395 28.11C86.1551 28.11 85.6508 28.2293 85.3266 28.4677C85.0024 28.7061 84.8584 29.0101 84.8944 29.3796C84.9304 29.6777 85.1105 29.934 85.4347 30.1486C85.7709 30.3631 86.2872 30.6254 86.9836 30.9354C87.8001 31.293 88.4785 31.6327 89.0188 31.9546C89.5591 32.2765 90.0214 32.7176 90.4056 33.2779C90.8019 33.8381 91 34.5236 91 35.3343C91 36.3952 90.6458 37.2714 89.9374 37.9629C89.2289 38.6543 88.1483 39 86.6954 39C85.8069 39 85.0445 38.8391 84.4081 38.5172C83.7837 38.1834 83.3034 37.7602 82.9672 37.2476C82.643 36.7231 82.4689 36.1807 82.4449 35.6204L84.5702 35.3164Z" fill="white"/>
<defs>
<filter id="filter0_d_41_2229" x="0" y="0" width="102.67" height="68.1274" filterUnits="userSpaceOnUse" color-interpolation-filters="sRGB">
<feFlood flood-opacity="0" result="BackgroundImageFix"/>
<feColorMatrix in="SourceAlpha" type="matrix" values="0 0 0 0 0 0 0 0 0 0 0 0 0 0 0 0 0 0 127 0" result="hardAlpha"/>
<feOffset dy="4"/>
<feGaussianBlur stdDeviation="7.5"/>
<feComposite in2="hardAlpha" operator="out"/>
<feColorMatrix type="matrix" values="0 0 0 0 0 0 0 0 0 0 0 0 0 0 0 0 0 0 0.45 0"/>
<feBlend mode="normal" in2="BackgroundImageFix" result="effect1_dropShadow_41_2229"/>
<feBlend mode="normal" in="SourceGraphic" in2="effect1_dropShadow_41_2229" result="shape"/>
</filter>
</defs>
</svg>
