<svg width="90" height="69" viewBox="0 0 90 69" fill="none" xmlns="http://www.w3.org/2000/svg">
<path d="M89.9749 2.284C89.9146 1.67217 89.6331 1.10336 89.1834 0.68418C88.7337 0.265 88.1465 0.0242308 87.5319 0.00699997V0H34.6249C33.9974 0.00124328 33.3927 0.235667 32.9283 0.657744C32.4639 1.07982 32.173 1.65943 32.1119 2.284H32.0859V15.423H54.4279C55.6019 15.423 56.5549 16.319 56.6709 17.462H56.6939V46.694H67.7029L74.1909 53.181C74.494 53.6328 74.9343 53.9753 75.4468 54.1578C75.9593 54.3404 76.5169 54.3533 77.0374 54.1947C77.5578 54.0362 78.0135 53.7145 78.3372 53.2772C78.6608 52.8398 78.8353 52.3101 78.8349 51.766V46.694H87.5329V46.686C88.1056 46.6711 88.6564 46.4626 89.0953 46.0945C89.5343 45.7263 89.8355 45.2203 89.9499 44.659H90.0009V2.284H89.9749Z" fill="white"/>
<path d="M49.44 20.4102H2.204V20.4162C1.65538 20.4317 1.13126 20.6468 0.729784 21.021C0.328312 21.3952 0.0770302 21.903 0.0229998 22.4492H0V60.2842H0.046C0.148579 60.7851 0.417695 61.2365 0.809538 61.565C1.20138 61.8934 1.69287 62.0796 2.204 62.0932V62.0992H9.969V66.6282C9.96944 67.1135 10.1257 67.5858 10.4147 67.9757C10.7038 68.3656 11.1104 68.6523 11.5747 68.7938C12.0389 68.9352 12.5363 68.9238 12.9937 68.7613C13.451 68.5988 13.8441 68.2938 14.115 67.8912L19.907 62.0992H49.44C50.536 62.0992 51.451 61.3192 51.66 60.2842H51.705V22.4492H51.682C51.6283 21.8915 51.369 21.3738 50.9546 20.9969C50.5401 20.62 50.0002 20.4108 49.44 20.4102Z" fill="#0471B7"/>
</svg>
