<svg width="90" height="69" viewBox="0 0 90 69" fill="none" xmlns="http://www.w3.org/2000/svg">
<path d="M89.974 2.284C89.9136 1.67217 89.6322 1.10336 89.1824 0.68418C88.7327 0.265 88.1455 0.0242308 87.531 0.00699997V0H34.624C33.9964 0.00124328 33.3917 0.235667 32.9273 0.657744C32.4629 1.07982 32.172 1.65943 32.111 2.284H32.085V15.423H54.427C55.601 15.423 56.554 16.319 56.67 17.462H56.693V46.694H67.702L74.19 53.181C74.493 53.6328 74.9333 53.9753 75.4458 54.1578C75.9583 54.3404 76.516 54.3533 77.0364 54.1947C77.5568 54.0362 78.0125 53.7145 78.3362 53.2772C78.6599 52.8398 78.8344 52.3101 78.834 51.766V46.694H87.532V46.686C88.1046 46.6711 88.6554 46.4626 89.0943 46.0945C89.5333 45.7263 89.8345 45.2203 89.949 44.659H90V2.284H89.974Z" fill="white"/>
<path d="M49.44 20.4097H2.204V20.4157C1.65538 20.4312 1.13126 20.6463 0.729784 21.0205C0.328312 21.3947 0.0770302 21.9025 0.0229998 22.4487H0V60.2837H0.046C0.148579 60.7846 0.417695 61.236 0.809538 61.5645C1.20138 61.893 1.69287 62.0791 2.204 62.0927V62.0987H9.969V66.6277C9.96944 67.113 10.1257 67.5854 10.4147 67.9752C10.7038 68.3651 11.1104 68.6518 11.5747 68.7933C12.0389 68.9347 12.5363 68.9233 12.9937 68.7608C13.451 68.5984 13.8441 68.2933 14.115 67.8907L19.907 62.0987H49.44C50.536 62.0987 51.451 61.3187 51.66 60.2837H51.705V22.4487H51.682C51.6283 21.891 51.369 21.3733 50.9546 20.9964C50.5401 20.6195 50.0002 20.4103 49.44 20.4097Z" fill="#FF3E3E"/>
</svg>
