<svg width="46" height="46" viewBox="0 0 46 46" fill="none" xmlns="http://www.w3.org/2000/svg">
<path d="M46 26.7273C46 25.8482 42.3008 26.0884 42.0069 25.4495C41.7131 24.8106 46.1061 19.5922 45.4672 18.4217C44.8283 17.2513 38.9684 19.9129 38.5991 19.3264C38.2311 18.7412 38.9722 14.8542 38.3333 14.375C37.6944 13.8958 31.625 20.6566 30.7727 19.8592C29.9217 19.0606 32.7431 6.44256 32.1604 6.18956C31.5777 5.93656 27.7917 7.93372 27.3138 7.82767C26.8359 7.72033 23.8714 0 23 0C22.1286 0 19.1641 7.72033 18.6862 7.82639C18.2083 7.93244 14.4223 5.93528 13.8396 6.18828C13.2569 6.44128 16.0783 19.0593 15.226 19.8579C14.375 20.6566 8.30556 13.8958 7.66667 14.375C7.02778 14.8542 7.76889 18.7412 7.40089 19.3264C7.03161 19.9116 1.17172 17.25 0.532833 18.4217C-0.106056 19.5934 4.28822 24.8106 3.99306 25.4495C3.69789 26.0884 0 25.8482 0 26.7273C0 27.6064 10.7819 33.4164 11.5 34.1013C12.2181 34.7849 7.77656 37.6817 8.41161 38.2273C9.14761 38.8611 13.317 37.1667 21.7222 37.0044V44.7222C21.7222 45.0611 21.8568 45.3861 22.0965 45.6257C22.3361 45.8654 22.6611 46 23 46C23.3389 46 23.6639 45.8654 23.9035 45.6257C24.1432 45.3861 24.2778 45.0611 24.2778 44.7222V37.0044C32.6817 37.1667 36.8524 38.8611 37.5884 38.2273C38.2222 37.6804 33.7819 34.7849 34.5 34.1013C35.2181 33.4164 46 27.6051 46 26.7273Z" fill="#DD2E2E"/>
</svg>
