<svg width="90" height="91" viewBox="0 0 90 91" fill="none" xmlns="http://www.w3.org/2000/svg">
<g filter="url(#filter0_d_4_7857)">
<path d="M62.939 64.5533C65.1437 66.7688 68.4159 70.4541 66.8013 71.5269C66.2166 71.8863 65.2349 71.9668 64.0655 71.8112C61.26 71.425 57.3869 69.6655 55.4826 67.1336C47.758 68.7429 40.4625 67.788 35.0982 66.4416C32.9525 70.2341 26.1398 72.6159 23.6722 71.6986C23.5545 71.654 23.4414 71.5983 23.3343 71.5323C21.446 70.3629 25.8984 65.7496 27.9905 63.7648C24.0786 61.7027 20.7809 58.6438 18.4313 54.8976C12.8685 45.8802 15.3629 37.1953 18.2757 31.6379C19.0305 30.2037 19.8893 28.8268 20.8452 27.5181C21.3292 26.8522 21.8466 26.2112 22.3955 25.5977C22.3955 25.5977 22.2185 25.4421 21.9556 25.1686C20.4429 23.5646 16.2641 17.9589 29.5247 15.7703C29.5247 15.7703 48.053 12.7931 60.8791 15.7703C72.8683 18.5597 67.8527 24.7501 67.1714 25.5387L67.0963 25.6192C68.955 27.4554 70.5671 29.5255 71.892 31.7774C71.9354 31.8466 71.9748 31.9182 72.01 31.992C77.7177 42.0447 74.0699 51.6146 70.4383 57.4671C68.5876 60.4332 66.0051 62.8734 62.939 64.5533Z" fill="#212121"/>
<path d="M71.8919 31.7559C63.9313 30.1144 51.7329 30.0661 50.3381 30.0661C58.921 30.0018 64.0976 27.84 67.1713 25.5172L67.0962 25.5977C68.955 27.4339 70.567 29.504 71.8919 31.7559V31.7559Z" fill="#121212"/>
<path d="M20.3677 46.2717C20.6684 41.9089 22.6022 37.8196 25.7837 34.8191C28.9651 31.8186 33.1605 30.1272 37.5335 30.0822H39.2179C30.1951 30.0125 24.9542 27.6308 21.9448 25.1846C22.2077 25.4582 22.3847 25.6138 22.3847 25.6138C21.8364 26.2264 21.3208 26.8674 20.8398 27.5342V27.5342C20.5072 27.9902 20.137 28.5266 19.7669 29.1435C19.6489 29.3205 19.5309 29.5083 19.4129 29.6799L19.0374 30.2539V30.2915C18.9193 30.4899 18.8013 30.6938 18.6887 30.903V30.9405C18.5635 31.1587 18.4401 31.384 18.3185 31.6164C15.3628 37.1792 12.8684 45.8801 18.4312 54.8976C20.7808 58.6438 24.0785 61.7027 27.9904 63.7648C21.7195 57.9552 20.019 51.7702 20.3677 46.2717Z" fill="#121212"/>
<path d="M27.9905 63.7648C27.9905 63.7648 25.3995 69.3007 23.699 71.6879C23.5813 71.6433 23.4682 71.5876 23.3611 71.5216C21.446 70.3629 25.8984 65.7496 27.9905 63.7648Z" fill="#363636"/>
<path d="M62.9389 64.5534C65.1436 66.7688 68.4158 70.4541 66.8012 71.527C66.2165 71.8864 65.2348 71.9669 64.0654 71.8113C62.0826 70.4679 60.2132 68.9645 58.4758 67.316C58.1514 67.0173 57.9032 66.6453 57.752 66.2311C57.6008 65.8168 57.5509 65.3724 57.6066 64.935C57.6622 64.4975 57.8218 64.0798 58.0719 63.7166C58.3221 63.3535 58.6555 63.0555 59.0444 62.8475C79.4878 52.1189 71.9777 31.9384 71.9777 31.9384L72.0314 31.9705C77.739 42.0233 74.0913 51.5932 70.4596 57.4457C68.6058 60.4224 66.0154 62.8705 62.9389 64.5534Z" fill="#363636"/>
<path d="M45.049 27.0192C56.067 27.0192 64.9989 24.8721 64.9989 22.2235C64.9989 19.5749 56.067 17.4278 45.049 17.4278C34.031 17.4278 25.0991 19.5749 25.0991 22.2235C25.0991 24.8721 34.031 27.0192 45.049 27.0192Z" fill="#FFB600"/>
<path d="M51.8722 26.338C52.7938 26.8184 53.8343 27.0232 54.8692 26.9281C55.9042 26.833 56.8899 26.4419 57.7085 25.8016L58.3254 25.7479L58.2074 24.4176C57.9231 23.4466 56.3567 22.8083 54.5329 22.9692C52.709 23.1301 51.2821 24.0421 51.1802 25.0452L51.2982 26.3755L51.8722 26.338Z" fill="#FF9500"/>
<path d="M51.2551 26.3916C51.1586 25.3187 52.6606 24.2727 54.6132 24.0956C56.5658 23.9186 58.2287 24.6643 58.3253 25.7586C58.4219 26.8529 56.9199 27.8775 54.9672 28.0491C53.0146 28.2208 51.3517 27.4805 51.2551 26.3916Z" fill="#FFC200"/>
<path d="M34.1433 18.1895C33.1394 17.8958 32.0667 17.941 31.0911 18.3183C30.0918 18.6121 29.216 19.2243 28.5966 20.0617L27.9905 20.2816L28.4196 21.5476C28.9239 22.4273 30.5975 22.6741 32.3302 22.084C34.0629 21.4939 35.2377 20.2762 35.0982 19.2731L34.6637 18.0125L34.1433 18.1895Z" fill="#FF9500"/>
<path d="M34.728 17.9911C35.0821 19.0264 33.8644 20.3782 32.0137 21.0112C30.163 21.6442 28.3659 21.317 28.0119 20.2817C27.6579 19.2463 28.8756 17.8892 30.7316 17.2562C32.5877 16.6232 34.374 16.9504 34.728 17.9911Z" fill="#FFC200"/>
<path d="M44.877 13.571C43.8746 13.28 42.8044 13.3252 41.8301 13.6997C40.827 13.9974 39.9502 14.6177 39.3357 15.4646L38.7456 15.663L39.1801 16.929C39.6844 17.8088 41.358 18.0555 43.0907 17.4654C44.8234 16.8754 45.9982 15.6577 45.8587 14.6545L45.4295 13.3886L44.877 13.571Z" fill="#FF9500"/>
<path d="M45.4673 13.3725C45.8213 14.4078 44.6197 15.7704 42.7476 16.398C40.8754 17.0256 39.0998 16.6984 38.7458 15.6631C38.3917 14.6278 39.6094 13.2706 41.4655 12.6376C43.3215 12.0046 45.1132 12.3318 45.4673 13.3725Z" fill="#FFC200"/>
<path d="M61.3455 19.1015C60.3368 18.8499 59.2769 18.8948 58.293 19.2306C57.3092 19.5665 56.4431 20.1792 55.7988 20.9951L55.2141 21.1936L55.6433 22.4596C56.1475 23.3393 57.8212 23.5861 59.5538 22.996C61.2865 22.4059 62.4828 21.1775 62.3218 20.1744L61.8873 18.9084L61.3455 19.1015Z" fill="#FF9500"/>
<path d="M61.9304 18.9031C62.2845 19.9384 61.0668 21.2955 59.2161 21.9285C57.3654 22.5615 55.5683 22.2343 55.2143 21.1936C54.8602 20.1529 56.0779 18.8011 57.934 18.1681C59.7901 17.5352 61.5764 17.8677 61.9304 18.9031Z" fill="#FFC200"/>
<path d="M30.9731 22.9048C30.3521 22.0643 29.4717 21.4517 28.4679 21.1614C27.4897 20.7924 26.4174 20.7547 25.4156 21.0541L24.8256 20.861L24.4018 22.127C24.273 23.1301 25.4746 24.337 27.1912 24.9164C28.9078 25.4957 30.5976 25.2329 31.0964 24.3531L31.5202 23.0872L30.9731 22.9048Z" fill="#FF9500"/>
<path d="M31.563 23.1033C31.2143 24.1386 29.4172 24.4819 27.5666 23.865C25.7159 23.2481 24.4767 21.9017 24.8254 20.861C25.1741 19.8203 26.9711 19.477 28.8218 20.0993C30.6725 20.7215 31.9063 22.0626 31.563 23.1033Z" fill="#FFC200"/>
<path d="M35.6508 24.6965C35.0298 23.8561 34.1495 23.2434 33.1456 22.9531C32.1674 22.5841 31.0951 22.5464 30.0933 22.8458L29.5033 22.6527L29.0634 23.9187C28.9347 24.9272 30.1363 26.1342 31.8528 26.7135C33.5694 27.2929 35.2645 27.03 35.7581 26.1503L36.2408 24.8896L35.6508 24.6965Z" fill="#FF9500"/>
<path d="M36.2407 24.8896C35.892 25.9303 34.095 26.2736 32.2443 25.6567C30.3936 25.0398 29.1544 23.6933 29.5031 22.6527C29.8518 21.612 31.6488 21.2687 33.4995 21.8856C35.3502 22.5025 36.5733 23.8489 36.2407 24.8896Z" fill="#FFC200"/>
<path d="M39.9044 15.2821C38.9296 14.909 37.8593 14.8657 36.8575 15.1588C35.8347 15.3759 34.9114 15.9223 34.229 16.7144L33.6228 16.8432L33.95 18.1413C34.4274 19.0747 36.0367 19.4556 37.8231 18.9889C39.6094 18.5222 40.87 17.4225 40.8163 16.414L40.4945 15.1159L39.9044 15.2821Z" fill="#FF9500"/>
<path d="M40.5106 15.1319C40.7788 16.2048 39.4377 17.444 37.5495 17.9214C35.6612 18.3988 33.891 17.916 33.6228 16.8432C33.3546 15.7703 34.6957 14.5311 36.5785 14.0537C38.4614 13.5763 40.2424 14.0698 40.5106 15.1319Z" fill="#FFC200"/>
<path d="M46.39 20.1905C45.414 19.8152 44.3419 19.77 43.3377 20.0617C42.3151 20.2792 41.3919 20.8256 40.7092 21.6174L40.1084 21.7676L40.4356 23.0657C40.8648 23.983 42.517 24.3639 44.2872 23.9187C46.0574 23.4734 47.3556 22.3523 47.3019 21.3384L46.9908 20.0617L46.39 20.1905Z" fill="#FF9500"/>
<path d="M46.9908 20.0617C47.259 21.1346 45.9179 22.3737 44.0351 22.8511C42.1522 23.3286 40.3766 22.8511 40.1084 21.7783C39.8402 20.7054 41.1813 19.4663 43.0641 18.9835C44.947 18.5007 46.7226 18.9888 46.9908 20.0617Z" fill="#FFC200"/>
<path d="M43.3594 20.0081C43.5632 20.0081 43.7724 20.0081 43.9709 20.0081C44.295 20.088 44.6045 20.2183 44.8882 20.3943C45.1895 20.5421 45.5086 20.6503 45.8377 20.7162C46.0469 20.7591 46.3151 20.7591 46.4224 20.5714C46.4695 20.4864 46.4829 20.3868 46.4599 20.2924C46.4071 20.1228 46.3185 19.9665 46.2 19.8342C46.0816 19.7018 45.936 19.5965 45.7733 19.5253C45.0957 19.1501 44.3126 19.0105 43.5471 19.1284C43.3325 19.1552 42.9785 19.1284 42.8444 19.3268C42.603 19.6916 43.0536 19.9759 43.3594 20.0081Z" fill="#FFD829"/>
<path d="M54.9889 17.9159C54.496 16.9936 53.7139 16.2586 52.7628 15.8239C51.8469 15.3216 50.7918 15.1332 49.7587 15.2874L49.2223 15.0085L48.6 16.1833C48.3211 17.1542 49.3189 18.5275 50.955 19.3482C52.5911 20.169 54.2809 20.1582 54.8977 19.3482L55.4986 18.1573L54.9889 17.9159Z" fill="#FF9500"/>
<path d="M55.5417 18.1842C55.0482 19.1606 53.2297 19.2571 51.481 18.3559C49.7322 17.4547 48.7076 15.9688 49.2011 14.9871C49.6946 14.0054 51.5131 13.9143 53.2673 14.8155C55.0214 15.7167 56.0353 17.2026 55.5417 18.1842Z" fill="#FFC200"/>
<path d="M54.104 22.5937C53.6111 21.6713 52.8289 20.9363 51.8778 20.5016C50.9632 19.9959 49.9069 19.8073 48.8738 19.9652L48.3373 19.6808L47.7365 20.8771C47.4576 21.8534 48.4553 23.2213 50.0914 24.042C51.7276 24.8628 53.4173 24.852 54.0342 24.042L54.635 22.8458L54.104 22.5937Z" fill="#FF9500"/>
<path d="M54.6538 22.8701C55.147 21.8912 54.127 20.3822 52.3755 19.4998C50.6239 18.6173 48.8042 18.6955 48.311 19.6745C47.8178 20.6534 48.8379 22.1624 50.5894 23.0448C52.3409 23.9273 54.1606 23.8491 54.6538 22.8701Z" fill="#FFC200"/>
<path d="M43.3487 17.3796C42.3451 17.0865 41.2731 17.1298 40.2964 17.5029C39.2943 17.7996 38.4177 18.4179 37.802 19.2624L37.2119 19.4609L37.6464 20.7054C38.1507 21.5852 39.8243 21.8373 41.557 21.2419C43.2897 20.6464 44.4645 19.4395 44.3304 18.4363L43.9012 17.1703L43.3487 17.3796Z" fill="#FF7700"/>
<path d="M43.9331 17.1596C44.2872 18.2003 43.0695 19.5521 41.2134 20.1797C39.3574 20.8074 37.5657 20.4802 37.2117 19.4395C36.8576 18.3988 38.0807 17.0524 39.9367 16.4194C41.7928 15.7864 43.5845 16.1243 43.9331 17.1596Z" fill="#FFA600"/>
<path d="M44.5234 25.485C45.2366 26.2423 46.1791 26.7437 47.2056 26.9119C48.221 27.158 49.289 27.0657 50.2472 26.6491L50.8533 26.7725L51.1215 25.4636C51.1215 24.4497 49.8073 23.3929 48.0156 23.0282C46.2239 22.6634 44.5932 23.1247 44.2069 24.0581L43.9387 25.3724L44.5234 25.485Z" fill="#FF7700"/>
<path d="M43.9116 25.3617C44.1316 24.2888 45.8643 23.7524 47.7847 24.1225C49.7051 24.4926 51.0891 25.6996 50.8692 26.7725C50.6492 27.8453 48.9166 28.3818 46.9961 28.0116C45.0757 27.6415 43.6917 26.4345 43.9116 25.3617Z" fill="#FFA600"/>
<path d="M44.6199 23.6504C43.6004 23.422 42.5341 23.5331 41.5837 23.9669C40.6018 24.3277 39.7651 25.0004 39.2019 25.882L38.6279 26.118L39.1644 27.3572C39.7008 28.2047 41.4066 28.3442 43.1018 27.6468C44.7969 26.9495 45.8858 25.662 45.6874 24.6696L45.1509 23.4305L44.6199 23.6504Z" fill="#FF7700"/>
<path d="M45.1561 23.4144C45.5745 24.4282 44.4426 25.8552 42.6295 26.6008C40.8163 27.3464 39.0086 27.1372 38.5901 26.118C38.1717 25.0988 39.3036 23.6772 41.1167 22.9316C42.9299 22.186 44.7591 22.4005 45.1561 23.4144Z" fill="#FFA600"/>
<path d="M48.8308 16.9289C47.8114 16.6981 46.7444 16.8093 45.7946 17.2454C44.8117 17.6045 43.9746 18.2776 43.4128 19.1605L42.8389 19.3965L43.3753 20.6303C43.9117 21.4725 45.6176 21.6173 47.3127 20.92C49.0078 20.2226 50.0968 18.9352 49.8983 17.9428L49.3619 16.709L48.8308 16.9289Z" fill="#FF7700"/>
<path d="M49.4046 16.6929C49.823 17.7067 48.6912 19.1337 46.878 19.8793C45.0649 20.6249 43.2571 20.4157 42.8387 19.3965C42.4203 18.3773 43.5468 16.9557 45.3653 16.2101C47.1838 15.4645 48.9862 15.679 49.4046 16.6929Z" fill="#FFA600"/>
<path d="M49.2866 12.6429C48.2603 12.41 47.1858 12.5213 46.2289 12.9594C45.2484 13.3202 44.4135 13.993 43.8525 14.8745L43.2786 15.1105L43.815 16.3443C44.3514 17.1918 46.0626 17.3313 47.7524 16.634C49.4422 15.9366 50.5418 14.6492 50.3434 13.6568L49.8069 12.423L49.2866 12.6429Z" fill="#FF7700"/>
<path d="M49.8606 12.4069C50.2791 13.4207 49.1472 14.8476 47.3394 15.5933C45.5317 16.3389 43.7185 16.1297 43.3001 15.1105C42.8817 14.0913 44.0136 12.6697 45.8267 11.9241C47.6398 11.1785 49.4476 11.393 49.8606 12.4069Z" fill="#FFA600"/>
<path d="M64.2695 21.376C63.2578 21.1393 62.1962 21.243 61.2494 21.671C60.2669 22.0283 59.431 22.7019 58.873 23.5861L58.2937 23.8221L58.8301 25.0559C59.3666 25.8981 61.0724 26.0429 62.7675 25.3456C64.4627 24.6482 65.557 23.3608 65.3531 22.3684L64.8167 21.1346L64.2695 21.376Z" fill="#FF7700"/>
<path d="M64.8433 21.1346C65.2617 22.1538 64.1298 23.5808 62.3221 24.3532C60.5143 25.1257 58.7012 24.8896 58.2827 23.8704C57.8643 22.8512 59.0016 21.4297 60.8093 20.6787C62.6171 19.9277 64.4249 20.1261 64.8433 21.1346Z" fill="#FFA600"/>
<path d="M56.2549 17.3152C55.2357 17.0815 54.1678 17.1928 53.2187 17.6317C52.2411 17.9866 51.4065 18.6516 50.8423 19.5253L50.2683 19.7613L50.8047 21.0005C51.3412 21.848 53.0524 21.9929 54.7421 21.2955C56.4319 20.5982 57.5316 19.3107 57.3331 18.3183L56.8235 17.0845L56.2549 17.3152Z" fill="#FF7700"/>
<path d="M56.829 17.0792C57.2474 18.0877 56.1155 19.5146 54.3024 20.2656C52.4892 21.0166 50.6815 20.802 50.2684 19.7774C49.8554 18.7528 50.9819 17.342 52.795 16.591C54.6081 15.84 56.4213 16.0653 56.829 17.0792Z" fill="#FFA600"/>
<path d="M32.148 20.5177C32.772 21.3562 33.654 21.9668 34.6585 22.2557C35.6349 22.6258 36.7064 22.6616 37.7054 22.3577L38.2955 22.5561L38.7193 21.2848C38.848 20.2817 37.6464 19.0693 35.9245 18.4953C34.2025 17.9214 32.5181 18.1789 32.0192 19.064L31.5955 20.3299L32.148 20.5177Z" fill="#FF7700"/>
<path d="M31.5579 20.3192C31.9012 19.2786 33.7036 18.9352 35.5543 19.5521C37.405 20.169 38.6442 21.5155 38.2955 22.5561C37.9468 23.5968 36.1498 23.9401 34.3045 23.3232C32.4591 22.7064 31.2092 21.3599 31.5579 20.3192Z" fill="#FFA600"/>
<path d="M61.6892 25.5816C61.1944 24.662 60.4127 23.9292 59.463 23.4949C58.5471 22.9926 57.492 22.8042 56.459 22.9584L55.9225 22.6795L55.3217 23.8757C55.0428 24.8521 56.0405 26.22 57.6767 27.0461C59.3128 27.8722 61.0025 27.8561 61.6194 27.0461L62.2202 25.8552L61.6892 25.5816Z" fill="#FF9500"/>
<path d="M62.2417 25.8659C61.7482 26.8422 59.9297 26.9388 58.1809 26.0376C56.4321 25.1364 55.4075 23.6505 55.885 22.6688C56.3624 21.6871 58.197 21.5959 59.9511 22.4918C61.7052 23.3876 62.7352 24.8896 62.2417 25.8659Z" fill="#FFC200"/>
<path d="M40.5804 22.937C39.577 22.6415 38.5043 22.6849 37.5281 23.0603C36.5263 23.3577 35.6499 23.9759 35.0337 24.8198L34.4436 25.0183L34.8781 26.2843C35.3824 27.164 37.056 27.4108 38.7887 26.8207C40.5214 26.2307 41.7015 25.013 41.562 24.0098L41.1705 22.7439L40.5804 22.937Z" fill="#FF9500"/>
<path d="M41.1704 22.7439C41.5191 23.7792 40.3014 25.131 38.4454 25.764C36.5893 26.397 34.7976 26.0644 34.4436 25.0237C34.0895 23.983 35.3126 22.6312 37.1687 22.0036C39.0247 21.376 40.8164 21.6978 41.1704 22.7439Z" fill="#FFC200"/>
<path d="M45.9931 19.7076C45.0163 19.3335 43.9435 19.292 42.9408 19.5896C41.9248 19.806 41.0074 20.3485 40.3283 21.1345L39.7275 21.2901L40.0548 22.5829C40.4839 23.5002 42.1307 23.8864 43.9063 23.4358C45.6819 22.9852 46.9533 21.8695 46.8943 20.861L46.567 19.5628L45.9931 19.7076Z" fill="#FF9500"/>
<path d="M46.5938 19.5575C46.862 20.6303 45.521 21.8695 43.6381 22.3523C41.7552 22.8351 39.9796 22.3523 39.7114 21.2794C39.4432 20.2065 40.7843 18.962 42.6672 18.4846C44.55 18.0072 46.3256 18.4953 46.5938 19.5575Z" fill="#FFC200"/>
<path d="M22.3955 25.5977C24.0227 26.3283 25.6901 26.9659 27.3897 27.5074C29.072 28.0493 30.7843 28.4935 32.518 28.8377C34.2483 29.1974 35.9983 29.4554 37.7589 29.6102C39.5238 29.7979 41.2993 29.8194 43.1232 29.8891C41.3603 30.2651 39.5613 30.445 37.7589 30.4255C35.9432 30.4263 34.1319 30.2466 32.3517 29.8891C30.5706 29.5236 28.8297 28.9846 27.1537 28.2798C25.454 27.6042 23.8535 26.702 22.3955 25.5977V25.5977Z" fill="#121212"/>
<path d="M48.9434 30.0715C50.5527 29.9213 52.1244 29.7551 53.6908 29.5351C55.2572 29.3152 56.8182 29.0845 58.3524 28.7519C59.8866 28.4248 61.4002 28.0074 62.8852 27.502C64.3713 26.9593 65.8072 26.288 67.1767 25.4958C66.0177 26.6347 64.6712 27.5656 63.1963 28.2477C61.7104 28.9151 60.1588 29.4257 58.5669 29.7711C56.9765 30.0968 55.3615 30.2888 53.7391 30.3451C52.1353 30.4164 50.5286 30.3247 48.9434 30.0715V30.0715Z" fill="#121212"/>
</g>
<path d="M10.6737 47.6512C11.095 47.6512 11.502 47.5652 11.8946 47.3932C12.2872 47.2211 12.6511 46.9726 12.9863 46.6477L13.3597 47.0634C12.1819 48.5544 10.8317 49.2999 9.30914 49.2999C8.43773 49.2999 7.67645 49.104 7.02529 48.7121C6.38371 48.3203 5.88577 47.7659 5.53146 47.0491C5.17715 46.3323 5 45.4912 5 44.5259C5 43.6943 5.158 42.8915 5.47401 42.1173C5.79958 41.3336 6.21135 40.7076 6.70929 40.2392C7.19766 39.9238 7.71954 39.6849 8.27494 39.5224C8.83992 39.3504 9.39532 39.2643 9.94114 39.2643C10.6689 39.2643 11.3344 39.422 11.9377 39.7375C12.5506 40.0433 13.0341 40.4734 13.3885 41.0277L11.6217 42.5044C11.1238 41.6251 10.5253 40.6741 9.82623 39.6514C9.4049 39.8235 9.02186 40.1198 8.67713 40.5403C8.3324 40.9608 8.05949 41.4626 7.85839 42.0456C7.66688 42.6287 7.57112 43.2356 7.57112 43.8664C7.57112 45.0707 7.83924 46.0025 8.37549 46.662C8.92132 47.3215 9.68738 47.6512 10.6737 47.6512Z" fill="white"/>
<path d="M18.5788 39.2643C19.5173 39.2643 20.336 39.4459 21.035 39.8091C21.7437 40.1723 22.2895 40.7076 22.6725 41.4148C23.0651 42.1221 23.2614 42.9871 23.2614 44.0098C23.2614 44.6597 23.1465 45.3335 22.9167 46.0312C22.6869 46.7194 22.3517 47.3311 21.9112 47.8663C21.4516 48.2964 20.9249 48.6452 20.3312 48.9129C19.7375 49.1709 19.1055 49.2999 18.4352 49.2999C17.5063 49.2999 16.6876 49.1184 15.979 48.7552C15.2799 48.392 14.7341 47.8567 14.3415 47.1495C13.9585 46.4422 13.767 45.5772 13.767 44.5545C13.767 43.9142 13.8867 43.2451 14.1261 42.5474C14.3655 41.8497 14.7054 41.2332 15.1459 40.698C15.596 40.2679 16.113 39.9238 16.6972 39.6658C17.2909 39.3982 17.9181 39.2643 18.5788 39.2643ZM16.3237 43.551C16.3237 44.6597 16.4674 45.5533 16.7546 46.2319C17.0419 46.9105 17.4776 47.4123 18.0617 47.7373C18.6459 48.0527 19.4024 48.2343 20.3312 48.2821C20.4461 47.8042 20.5371 47.245 20.6041 46.6047C20.6807 45.9547 20.719 45.4243 20.719 45.0133C20.719 43.8951 20.5706 42.9966 20.2738 42.318C19.9865 41.6299 19.546 41.1233 18.9523 40.7984C18.3586 40.4734 17.6021 40.2918 16.6828 40.2536C16.5775 40.7506 16.4913 41.3288 16.4243 41.9883C16.3572 42.6478 16.3237 43.1687 16.3237 43.551Z" fill="white"/>
<path d="M36.3466 48.5831V49.0849H32.3678V48.5831L33.1435 48.5688L32.4684 41.2141L29.6962 47.4792H29.2509L26.2776 41.1711L26.0047 48.5688L26.7803 48.5831V49.0849H23.6347V48.5831L24.1949 48.5688L25.5738 39.9955L24.7838 39.9812V39.4794H28.0874L30.4 44.1675L32.3966 39.4794H35.3699V39.9812L34.6086 39.9955L35.7864 48.5688L36.3466 48.5831Z" fill="white"/>
<path d="M49.1113 48.5831V49.0849H45.1325V48.5831L45.9082 48.5688L45.2331 41.2141L42.4609 47.4792H42.0156L39.0423 41.1711L38.7694 48.5688L39.545 48.5831V49.0849H36.3994V48.5831L36.9595 48.5688L38.3385 39.9955L37.5485 39.9812V39.4794H40.8521L43.1647 44.1675L45.1613 39.4794H48.1346V39.9812L47.3733 39.9955L48.5511 48.5688L49.1113 48.5831Z" fill="white"/>
<path d="M56.9349 46.2319V49.0849H49.6524V48.5831L50.3563 48.5688V39.9955L49.6524 39.9812V39.4794H56.6476V42.2607L56.0874 42.2464L56.0587 41.5295C54.9958 40.87 53.8897 40.3157 52.7406 39.8665L52.7694 43.852H55.4554V44.3825H52.7694L52.7981 48.6835C54.0238 48.2151 55.2064 47.6417 56.346 46.9631L56.3747 46.2463L56.9349 46.2319Z" fill="white"/>
<path d="M67.3538 39.4794V39.9812L66.65 39.9955L66.2765 49.0706L64.5385 49.0849L59.3531 40.9417L59.899 48.5688L60.7464 48.5831V49.0849H57.8162V48.5831L58.52 48.5688L58.7642 39.9955L58.0604 39.9812V39.4794H61.6083L65.7881 45.9452L65.4147 39.9955L64.5672 39.9812V39.4794H67.3538Z" fill="white"/>
<path d="M76.379 39.4794V42.2607L75.8188 42.2464L75.79 41.5295C74.8037 40.8223 73.985 40.3014 73.3338 39.9668V48.5688L74.4686 48.5831V49.0849H69.8147V48.5831L70.9494 48.5688V39.9668C70.2983 40.3014 69.4795 40.8223 68.4932 41.5295L68.4645 42.2464L67.9043 42.2607V39.4794H76.379Z" fill="white"/>
<path d="M79.521 40.9991C79.521 41.3049 79.6072 41.5869 79.7796 41.8449C79.9519 42.103 80.1674 42.3324 80.426 42.5331C80.6845 42.7338 81.0388 42.9823 81.4889 43.2786C82.0155 43.6227 82.4369 43.9285 82.7529 44.1961C83.0689 44.4542 83.337 44.7696 83.5573 45.1423C83.7871 45.5055 83.902 45.9165 83.902 46.3753C83.902 46.8818 83.7631 47.3597 83.4854 47.8089C83.2077 48.2486 82.7912 48.607 82.2358 48.8842C81.6804 49.1614 81.0101 49.2999 80.2249 49.2999C78.5395 49.2999 77.3425 48.6309 76.6339 47.2928L78.257 46.0455C78.7167 46.9918 79.2338 47.9093 79.8083 48.7982H79.8227C80.1004 48.7982 80.3589 48.7265 80.5983 48.5831C80.8377 48.4302 81.0292 48.2343 81.1729 47.9953C81.3165 47.7564 81.3883 47.5031 81.3883 47.2355C81.3883 46.9488 81.3021 46.6859 81.1298 46.447C80.967 46.1985 80.7611 45.9834 80.5121 45.8018C80.2632 45.6107 79.9232 45.3813 79.4923 45.1137C78.9752 44.7887 78.5587 44.502 78.2427 44.2535C77.9267 44.005 77.6537 43.7039 77.4239 43.3503C77.2037 42.9871 77.0936 42.5713 77.0936 42.103C77.0936 41.5773 77.242 41.0994 77.5388 40.6693C77.8453 40.2297 78.2762 39.8856 78.8316 39.6371C79.3965 39.3886 80.0573 39.2643 80.8138 39.2643C81.5511 39.2643 82.1544 39.3838 82.6236 39.6228C83.1024 39.8521 83.5333 40.1819 83.9164 40.612L82.4082 42.1317C81.9006 41.2906 81.3883 40.5021 80.8712 39.7661C80.4403 39.7661 80.1052 39.8856 79.8658 40.1245C79.6359 40.3539 79.521 40.6454 79.521 40.9991Z" fill="white"/>
<defs>
<filter id="filter0_d_4_7857" x="0.116943" y="0.479919" width="89.8828" height="90.4153" filterUnits="userSpaceOnUse" color-interpolation-filters="sRGB">
<feFlood flood-opacity="0" result="BackgroundImageFix"/>
<feColorMatrix in="SourceAlpha" type="matrix" values="0 0 0 0 0 0 0 0 0 0 0 0 0 0 0 0 0 0 127 0" result="hardAlpha"/>
<feOffset dy="4"/>
<feGaussianBlur stdDeviation="7.5"/>
<feComposite in2="hardAlpha" operator="out"/>
<feColorMatrix type="matrix" values="0 0 0 0 0 0 0 0 0 0 0 0 0 0 0 0 0 0 0.45 0"/>
<feBlend mode="normal" in2="BackgroundImageFix" result="effect1_dropShadow_4_7857"/>
<feBlend mode="normal" in="SourceGraphic" in2="effect1_dropShadow_4_7857" result="shape"/>
</filter>
</defs>
</svg>
